<svg width="668" height="339" viewBox="0 0 668 339" fill="none" xmlns="http://www.w3.org/2000/svg">
<rect x="4.63257" y="339" width="339" height="663.368" rx="20" transform="rotate(-90 4.63257 339)" fill="#190042"/>
<path d="M618.896 39L625.845 48L632.793 39" stroke="#D9D9D9"/>
<line x1="50.0305" y1="85.5" x2="647.617" y2="85.5" stroke="#626262"/>
<line x1="173.68" y1="279" x2="173.68" y2="86" stroke="#626262"/>
<line x1="333.037" y1="279" x2="333.037" y2="86" stroke="#626262"/>
<line x1="492.393" y1="279" x2="492.393" y2="86" stroke="#626262"/>
<line x1="647.117" y1="278" x2="647.117" y2="85" stroke="#626262"/>
<line x1="50.0305" y1="117.5" x2="647.617" y2="117.5" stroke="#626262"/>
<line x1="50.0305" y1="149.5" x2="647.617" y2="149.5" stroke="#626262"/>
<line x1="50.0305" y1="182.5" x2="647.617" y2="182.5" stroke="#626262"/>
<line x1="50.0305" y1="213.5" x2="647.617" y2="213.5" stroke="#626262"/>
<line x1="50.0305" y1="246.5" x2="647.617" y2="246.5" stroke="#626262"/>
<line x1="50.0305" y1="278.5" x2="647.617" y2="278.5" stroke="#626262"/>
<path d="M53.7366 269.716C294.091 281.086 354.734 -54.7558 645.764 269.716" stroke="#51D0FF" stroke-width="2"/>
<rect x="538.802" y="19.043" width="107.816" height="46.8221" rx="23.411" stroke="#51D0FF" stroke-width="2"/>
<path d="M555.035 47.9634L552.01 37.0543H553.741L555.866 45.5024H555.968L558.178 37.0543H559.893L562.104 45.5078H562.205L564.325 37.0543H566.062L563.031 47.9634H561.374L559.078 39.7922H558.993L556.697 47.9634H555.035ZM569.855 48.1285C569.049 48.1285 568.355 47.9563 567.773 47.6118C567.194 47.2638 566.746 46.7755 566.43 46.147C566.118 45.5149 565.961 44.7745 565.961 43.9257C565.961 43.0877 566.118 42.349 566.43 41.7098C566.746 41.0706 567.187 40.5717 567.751 40.213C568.319 39.8544 568.983 39.675 569.743 39.675C570.205 39.675 570.653 39.7514 571.086 39.9041C571.519 40.0568 571.908 40.2965 572.252 40.6232C572.597 40.9499 572.868 41.3742 573.067 41.8963C573.266 42.4147 573.366 43.0451 573.366 43.7872V44.3519H566.862V43.1587H571.805C571.805 42.7397 571.72 42.3686 571.549 42.0454C571.379 41.7187 571.139 41.4612 570.83 41.273C570.525 41.0848 570.166 40.9907 569.754 40.9907C569.307 40.9907 568.916 41.1008 568.582 41.321C568.252 41.5376 567.996 41.8217 567.815 42.1733C567.638 42.5213 567.549 42.8995 567.549 43.3078V44.24C567.549 44.7869 567.645 45.2521 567.836 45.6356C568.032 46.0191 568.303 46.3121 568.651 46.5145C568.999 46.7134 569.406 46.8128 569.871 46.8128C570.173 46.8128 570.448 46.7702 570.697 46.685C570.945 46.5962 571.16 46.4648 571.341 46.2908C571.523 46.1168 571.661 45.9019 571.757 45.6463L573.264 45.9179C573.144 46.3618 572.927 46.7507 572.615 47.0845C572.306 47.4147 571.917 47.6722 571.448 47.8568C570.983 48.038 570.452 48.1285 569.855 48.1285ZM578.359 48.1285C577.553 48.1285 576.859 47.9563 576.276 47.6118C575.697 47.2638 575.25 46.7755 574.934 46.147C574.621 45.5149 574.465 44.7745 574.465 43.9257C574.465 43.0877 574.621 42.349 574.934 41.7098C575.25 41.0706 575.69 40.5717 576.255 40.213C576.823 39.8544 577.487 39.675 578.247 39.675C578.709 39.675 579.156 39.7514 579.589 39.9041C580.023 40.0568 580.412 40.2965 580.756 40.6232C581.1 40.9499 581.372 41.3742 581.571 41.8963C581.77 42.4147 581.869 43.0451 581.869 43.7872V44.3519H575.365V43.1587H580.309C580.309 42.7397 580.223 42.3686 580.053 42.0454C579.882 41.7187 579.643 41.4612 579.334 41.273C579.028 41.0848 578.67 40.9907 578.258 40.9907C577.81 40.9907 577.42 41.1008 577.086 41.321C576.756 41.5376 576.5 41.8217 576.319 42.1733C576.141 42.5213 576.053 42.8995 576.053 43.3078V44.24C576.053 44.7869 576.148 45.2521 576.34 45.6356C576.535 46.0191 576.807 46.3121 577.155 46.5145C577.503 46.7134 577.91 46.8128 578.375 46.8128C578.677 46.8128 578.952 46.7702 579.201 46.685C579.449 46.5962 579.664 46.4648 579.845 46.2908C580.026 46.1168 580.165 45.9019 580.261 45.6463L581.768 45.9179C581.647 46.3618 581.431 46.7507 581.118 47.0845C580.809 47.4147 580.42 47.6722 579.952 47.8568C579.486 48.038 578.956 48.1285 578.359 48.1285ZM584.801 45.1882L584.791 43.2439H585.068L588.328 39.7816H590.235L586.516 43.7233H586.266L584.801 45.1882ZM583.336 47.9634V37.0543H584.929V47.9634H583.336ZM588.503 47.9634L585.574 44.0749L586.671 42.9616L590.458 47.9634H588.503Z" fill="#E3E3E3"/>
<path d="M25.6876 38.1045V23.559H30.8723C32.0039 23.559 32.9414 23.765 33.6848 24.1769C34.4281 24.5889 34.9845 25.1523 35.3538 25.8673C35.7231 26.5775 35.9078 27.3777 35.9078 28.2678C35.9078 29.1627 35.7208 29.9677 35.3467 30.6826C34.9774 31.3928 34.4187 31.9563 33.6706 32.373C32.9272 32.7849 31.9921 32.9909 30.8652 32.9909H27.2998V31.1301H30.6663C31.3813 31.1301 31.9613 31.007 32.4064 30.7607C32.8514 30.5098 33.1781 30.1689 33.3865 29.738C33.5948 29.3071 33.699 28.8171 33.699 28.2678C33.699 27.7186 33.5948 27.2309 33.3865 26.8048C33.1781 26.3786 32.8491 26.0448 32.3993 25.8034C31.9542 25.5619 31.3671 25.4411 30.6379 25.4411H27.8822V38.1045H25.6876ZM37.9101 38.1045V27.1954H39.9627V28.9284H40.0763C40.2752 28.3412 40.6256 27.8796 41.1275 27.5434C41.6341 27.2025 42.207 27.032 42.8462 27.032C42.9788 27.032 43.135 27.0368 43.315 27.0463C43.4996 27.0557 43.644 27.0676 43.7482 27.0818V29.113C43.663 29.0893 43.5115 29.0633 43.2936 29.0349C43.0758 29.0017 42.858 28.9852 42.6402 28.9852C42.1383 28.9852 41.6909 29.0917 41.2979 29.3048C40.9097 29.5131 40.6019 29.8043 40.3746 30.1784C40.1473 30.5477 40.0337 30.9691 40.0337 31.4426V38.1045H37.9101ZM45.1859 38.1045V27.1954H47.3095V38.1045H45.1859ZM46.2584 25.5122C45.889 25.5122 45.5718 25.3891 45.3066 25.1428C45.0462 24.8919 44.916 24.5936 44.916 24.248C44.916 23.8976 45.0462 23.5993 45.3066 23.3531C45.5718 23.1021 45.889 22.9767 46.2584 22.9767C46.6277 22.9767 46.9425 23.1021 47.203 23.3531C47.4681 23.5993 47.6007 23.8976 47.6007 24.248C47.6007 24.5936 47.4681 24.8919 47.203 25.1428C46.9425 25.3891 46.6277 25.5122 46.2584 25.5122ZM54.3615 38.3247C53.3057 38.3247 52.3966 38.0856 51.6343 37.6073C50.8767 37.1244 50.2943 36.4591 49.8871 35.6116C49.4799 34.7641 49.2763 33.7934 49.2763 32.6997C49.2763 31.5917 49.4847 30.614 49.9013 29.7664C50.318 28.9142 50.9051 28.2489 51.6627 27.7707C52.4203 27.2925 53.3128 27.0534 54.3402 27.0534C55.1688 27.0534 55.9075 27.2072 56.5561 27.515C57.2048 27.818 57.728 28.2442 58.1257 28.7934C58.5282 29.3427 58.7673 29.9842 58.8431 30.7181H56.7763C56.6627 30.2068 56.4023 29.7664 55.9951 29.3971C55.5926 29.0278 55.0528 28.8431 54.3757 28.8431C53.7839 28.8431 53.2654 28.9994 52.8204 29.3119C52.38 29.6196 52.0367 30.06 51.7905 30.6329C51.5443 31.2011 51.4212 31.8734 51.4212 32.6499C51.4212 33.4454 51.5419 34.132 51.7834 34.7096C52.0249 35.2873 52.3658 35.7347 52.8061 36.0519C53.2512 36.3692 53.7744 36.5278 54.3757 36.5278C54.7782 36.5278 55.1428 36.4544 55.4695 36.3076C55.8009 36.1561 56.0779 35.9407 56.3005 35.6613C56.5277 35.382 56.6864 35.0458 56.7763 34.6528H58.8431C58.7673 35.3583 58.5377 35.988 58.1542 36.542C57.7706 37.096 57.2569 37.5316 56.613 37.8488C55.9738 38.166 55.2233 38.3247 54.3615 38.3247ZM65.4157 38.3247C64.3409 38.3247 63.4153 38.095 62.6387 37.6357C61.867 37.1717 61.2704 36.5207 60.849 35.6826C60.4323 34.8398 60.224 33.8526 60.224 32.721C60.224 31.6035 60.4323 30.6187 60.849 29.7664C61.2704 28.9142 61.8575 28.2489 62.6103 27.7707C63.3679 27.2925 64.2533 27.0534 65.2666 27.0534C65.8821 27.0534 66.4787 27.1552 67.0564 27.3588C67.634 27.5624 68.1525 27.882 68.6118 28.3176C69.071 28.7532 69.4333 29.319 69.6984 30.015C69.9636 30.7063 70.0961 31.5467 70.0961 32.5363V33.2892H61.4243V31.6982H68.0152C68.0152 31.1395 67.9015 30.6447 67.6743 30.2139C67.447 29.7783 67.1274 29.435 66.7155 29.184C66.3083 28.9331 65.83 28.8076 65.2808 28.8076C64.6842 28.8076 64.1634 28.9544 63.7183 29.248C63.278 29.5368 62.937 29.9156 62.6956 30.3843C62.4588 30.8483 62.3405 31.3526 62.3405 31.8971V33.14C62.3405 33.8692 62.4683 34.4894 62.724 35.0008C62.9844 35.5122 63.3466 35.9028 63.8106 36.1727C64.2746 36.4378 64.8168 36.5704 65.437 36.5704C65.8395 36.5704 66.2065 36.5136 66.5379 36.3999C66.8693 36.2816 67.1558 36.1064 67.3973 35.8744C67.6387 35.6424 67.8234 35.3559 67.9512 35.015L69.9612 35.3772C69.8002 35.9691 69.5114 36.4875 69.0947 36.9326C68.6828 37.373 68.1643 37.7162 67.5393 37.9624C66.9191 38.2039 66.2112 38.3247 65.4157 38.3247ZM81.5405 38.3247C80.4846 38.3247 79.5755 38.0856 78.8132 37.6073C78.0556 37.1244 77.4732 36.4591 77.066 35.6116C76.6588 34.7641 76.4552 33.7934 76.4552 32.6997C76.4552 31.5917 76.6636 30.614 77.0802 29.7664C77.4969 28.9142 78.084 28.2489 78.8416 27.7707C79.5992 27.2925 80.4917 27.0534 81.5191 27.0534C82.3477 27.0534 83.0864 27.2072 83.7351 27.515C84.3837 27.818 84.9069 28.2442 85.3047 28.7934C85.7071 29.3427 85.9462 29.9842 86.022 30.7181H83.9552C83.8416 30.2068 83.5812 29.7664 83.174 29.3971C82.7715 29.0278 82.2317 28.8431 81.5547 28.8431C80.9628 28.8431 80.4443 28.9994 79.9993 29.3119C79.5589 29.6196 79.2156 30.06 78.9694 30.6329C78.7232 31.2011 78.6001 31.8734 78.6001 32.6499C78.6001 33.4454 78.7208 34.132 78.9623 34.7096C79.2038 35.2873 79.5447 35.7347 79.9851 36.0519C80.4301 36.3692 80.9533 36.5278 81.5547 36.5278C81.9571 36.5278 82.3217 36.4544 82.6484 36.3076C82.9798 36.1561 83.2568 35.9407 83.4794 35.6613C83.7066 35.382 83.8653 35.0458 83.9552 34.6528H86.022C85.9462 35.3583 85.7166 35.988 85.3331 36.542C84.9495 37.096 84.4358 37.5316 83.7919 37.8488C83.1527 38.166 82.4022 38.3247 81.5405 38.3247ZM90.0165 31.6272V38.1045H87.8929V23.559H89.9881V28.971H90.1231C90.3787 28.3838 90.7694 27.9175 91.2949 27.5718C91.8205 27.2262 92.507 27.0534 93.3546 27.0534C94.1027 27.0534 94.7561 27.2072 95.3148 27.515C95.8783 27.8228 96.3139 28.282 96.6216 28.8928C96.9341 29.4989 97.0904 30.2565 97.0904 31.1656V38.1045H94.9668V31.4213C94.9668 30.6211 94.7608 30.0008 94.3489 29.5605C93.937 29.1154 93.3641 28.8928 92.6302 28.8928C92.1283 28.8928 91.6784 28.9994 91.2807 29.2124C90.8877 29.4255 90.5776 29.738 90.3503 30.1499C90.1278 30.5571 90.0165 31.0496 90.0165 31.6272ZM102.699 38.346C102.008 38.346 101.383 38.2181 100.824 37.9624C100.265 37.702 99.8225 37.3256 99.4958 36.8332C99.1738 36.3408 99.0128 35.7371 99.0128 35.0221C99.0128 34.4066 99.1312 33.8999 99.3679 33.5022C99.6047 33.1045 99.9243 32.7896 100.327 32.5576C100.729 32.3256 101.179 32.1504 101.676 32.032C102.173 31.9137 102.68 31.8237 103.196 31.7622C103.849 31.6864 104.38 31.6249 104.787 31.5775C105.194 31.5254 105.49 31.4426 105.675 31.3289C105.859 31.2153 105.952 31.0306 105.952 30.7749V30.7252C105.952 30.105 105.777 29.6244 105.426 29.2835C105.081 28.9426 104.564 28.7721 103.878 28.7721C103.163 28.7721 102.599 28.9307 102.188 29.248C101.78 29.5605 101.499 29.9085 101.342 30.292L99.3466 29.8374C99.5834 29.1746 99.929 28.6395 100.384 28.2323C100.843 27.8204 101.371 27.5221 101.967 27.3374C102.564 27.1481 103.191 27.0534 103.849 27.0534C104.285 27.0534 104.747 27.1054 105.234 27.2096C105.727 27.309 106.186 27.4937 106.612 27.7636C107.043 28.0335 107.396 28.4194 107.67 28.9213C107.945 29.4184 108.082 30.0647 108.082 30.8602V38.1045H106.009V36.613H105.923C105.786 36.8876 105.58 37.1575 105.305 37.4227C105.031 37.6878 104.678 37.908 104.247 38.0832C103.816 38.2584 103.3 38.346 102.699 38.346ZM103.161 36.6414C103.748 36.6414 104.25 36.5254 104.666 36.2934C105.088 36.0614 105.407 35.7584 105.625 35.3843C105.848 35.0055 105.959 34.6007 105.959 34.1698V32.7636C105.883 32.8393 105.736 32.9104 105.519 32.9767C105.305 33.0382 105.062 33.0927 104.787 33.14C104.512 33.1826 104.245 33.2229 103.984 33.2607C103.724 33.2939 103.506 33.3223 103.331 33.346C102.919 33.3981 102.543 33.4856 102.202 33.6088C101.866 33.7319 101.596 33.9094 101.392 34.1414C101.193 34.3687 101.094 34.6717 101.094 35.0505C101.094 35.5761 101.288 35.9738 101.676 36.2437C102.064 36.5088 102.559 36.6414 103.161 36.6414ZM110.511 38.1045V27.1954H112.563V28.9284H112.677C112.876 28.3412 113.226 27.8796 113.728 27.5434C114.235 27.2025 114.808 27.032 115.447 27.032C115.58 27.032 115.736 27.0368 115.916 27.0463C116.1 27.0557 116.245 27.0676 116.349 27.0818V29.113C116.264 29.0893 116.112 29.0633 115.894 29.0349C115.677 29.0017 115.459 28.9852 115.241 28.9852C114.739 28.9852 114.292 29.0917 113.899 29.3048C113.51 29.5131 113.203 29.8043 112.975 30.1784C112.748 30.5477 112.634 30.9691 112.634 31.4426V38.1045H110.511ZM123.524 27.1954V28.8999H117.565V27.1954H123.524ZM119.163 24.5818H121.286V34.9014C121.286 35.3133 121.348 35.6234 121.471 35.8318C121.594 36.0354 121.753 36.175 121.947 36.2508C122.146 36.3218 122.361 36.3573 122.593 36.3573C122.764 36.3573 122.913 36.3455 123.041 36.3218C123.168 36.2981 123.268 36.2792 123.339 36.265L123.722 38.0193C123.599 38.0666 123.424 38.114 123.197 38.1613C122.97 38.2134 122.685 38.2418 122.345 38.2465C121.786 38.256 121.265 38.1566 120.782 37.9482C120.299 37.7399 119.908 37.4179 119.61 36.9823C119.312 36.5467 119.163 35.9999 119.163 35.3417V24.5818Z" fill="#E3E3E3"/>
<path d="M54.534 66.07C54.534 66.65 54.334 67.1333 53.934 67.52C53.5407 67.9 52.9373 68.09 52.124 68.09H50.784V71H49.874V64.03H52.124C52.9107 64.03 53.5073 64.22 53.914 64.6C54.3273 64.98 54.534 65.47 54.534 66.07ZM52.124 67.34C52.6307 67.34 53.004 67.23 53.244 67.01C53.484 66.79 53.604 66.4767 53.604 66.07C53.604 65.21 53.1107 64.78 52.124 64.78H50.784V67.34H52.124ZM56.375 66.41C56.535 66.0967 56.7617 65.8533 57.055 65.68C57.355 65.5067 57.7184 65.42 58.145 65.42V66.36H57.905C56.885 66.36 56.375 66.9133 56.375 68.02V71H55.465V65.52H56.375V66.41ZM59.4655 64.63C59.2922 64.63 59.1455 64.57 59.0255 64.45C58.9055 64.33 58.8455 64.1833 58.8455 64.01C58.8455 63.8367 58.9055 63.69 59.0255 63.57C59.1455 63.45 59.2922 63.39 59.4655 63.39C59.6322 63.39 59.7722 63.45 59.8855 63.57C60.0055 63.69 60.0655 63.8367 60.0655 64.01C60.0655 64.1833 60.0055 64.33 59.8855 64.45C59.7722 64.57 59.6322 64.63 59.4655 64.63ZM59.9055 65.52V71H58.9955V65.52H59.9055ZM60.9164 68.25C60.9164 67.6833 61.0298 67.19 61.2564 66.77C61.4831 66.3433 61.7964 66.0133 62.1964 65.78C62.6031 65.5467 63.0664 65.43 63.5864 65.43C64.2598 65.43 64.8131 65.5933 65.2464 65.92C65.6864 66.2467 65.9764 66.7 66.1164 67.28H65.1364C65.0431 66.9467 64.8598 66.6833 64.5864 66.49C64.3198 66.2967 63.9864 66.2 63.5864 66.2C63.0664 66.2 62.6464 66.38 62.3264 66.74C62.0064 67.0933 61.8464 67.5967 61.8464 68.25C61.8464 68.91 62.0064 69.42 62.3264 69.78C62.6464 70.14 63.0664 70.32 63.5864 70.32C63.9864 70.32 64.3198 70.2267 64.5864 70.04C64.8531 69.8533 65.0364 69.5867 65.1364 69.24H66.1164C65.9698 69.8 65.6764 70.25 65.2364 70.59C64.7964 70.9233 64.2464 71.09 63.5864 71.09C63.0664 71.09 62.6031 70.9733 62.1964 70.74C61.7964 70.5067 61.4831 70.1767 61.2564 69.75C61.0298 69.3233 60.9164 68.8233 60.9164 68.25ZM72.1306 68.05C72.1306 68.2233 72.1206 68.4067 72.1006 68.6H67.7206C67.754 69.14 67.9373 69.5633 68.2706 69.87C68.6106 70.17 69.0206 70.32 69.5006 70.32C69.894 70.32 70.2206 70.23 70.4806 70.05C70.7473 69.8633 70.934 69.6167 71.0406 69.31H72.0206C71.874 69.8367 71.5806 70.2667 71.1406 70.6C70.7006 70.9267 70.154 71.09 69.5006 71.09C68.9806 71.09 68.514 70.9733 68.1006 70.74C67.694 70.5067 67.374 70.1767 67.1406 69.75C66.9073 69.3167 66.7906 68.8167 66.7906 68.25C66.7906 67.6833 66.904 67.1867 67.1306 66.76C67.3573 66.3333 67.674 66.0067 68.0806 65.78C68.494 65.5467 68.9673 65.43 69.5006 65.43C70.0206 65.43 70.4806 65.5433 70.8806 65.77C71.2806 65.9967 71.5873 66.31 71.8006 66.71C72.0206 67.1033 72.1306 67.55 72.1306 68.05ZM71.1906 67.86C71.1906 67.5133 71.114 67.2167 70.9606 66.97C70.8073 66.7167 70.5973 66.5267 70.3306 66.4C70.0706 66.2667 69.7806 66.2 69.4606 66.2C69.0006 66.2 68.6073 66.3467 68.2806 66.64C67.9606 66.9333 67.7773 67.34 67.7306 67.86H71.1906ZM77.9878 71.09C77.4745 71.09 77.0078 70.9733 76.5878 70.74C76.1745 70.5067 75.8478 70.1767 75.6078 69.75C75.3745 69.3167 75.2578 68.8167 75.2578 68.25C75.2578 67.69 75.3778 67.1967 75.6178 66.77C75.8645 66.3367 76.1978 66.0067 76.6178 65.78C77.0378 65.5467 77.5078 65.43 78.0278 65.43C78.5478 65.43 79.0178 65.5467 79.4378 65.78C79.8578 66.0067 80.1878 66.3333 80.4278 66.76C80.6745 67.1867 80.7978 67.6833 80.7978 68.25C80.7978 68.8167 80.6712 69.3167 80.4178 69.75C80.1712 70.1767 79.8345 70.5067 79.4078 70.74C78.9812 70.9733 78.5078 71.09 77.9878 71.09ZM77.9878 70.29C78.3145 70.29 78.6212 70.2133 78.9078 70.06C79.1945 69.9067 79.4245 69.6767 79.5978 69.37C79.7778 69.0633 79.8678 68.69 79.8678 68.25C79.8678 67.81 79.7812 67.4367 79.6078 67.13C79.4345 66.8233 79.2078 66.5967 78.9278 66.45C78.6478 66.2967 78.3445 66.22 78.0178 66.22C77.6845 66.22 77.3778 66.2967 77.0978 66.45C76.8245 66.5967 76.6045 66.8233 76.4378 67.13C76.2712 67.4367 76.1878 67.81 76.1878 68.25C76.1878 68.6967 76.2678 69.0733 76.4278 69.38C76.5945 69.6867 76.8145 69.9167 77.0878 70.07C77.3612 70.2167 77.6612 70.29 77.9878 70.29ZM84.0243 66.27H82.8743V71H81.9643V66.27H81.2543V65.52H81.9643V65.13C81.9643 64.5167 82.121 64.07 82.4343 63.79C82.7543 63.5033 83.2643 63.36 83.9643 63.36V64.12C83.5643 64.12 83.281 64.2 83.1143 64.36C82.9543 64.5133 82.8743 64.77 82.8743 65.13V65.52H84.0243V66.27ZM86.9613 64.6V63.77H88.8413V71H87.9213V64.6H86.9613ZM99.8905 64.08V71H98.9805V65.84L96.6805 71H96.0405L93.7305 65.83V71H92.8205V64.08H93.8005L96.3605 69.8L98.9205 64.08H99.8905ZM105.354 69.45H102.314L101.754 71H100.794L103.314 64.07H104.364L106.874 71H105.914L105.354 69.45ZM105.094 68.71L103.834 65.19L102.574 68.71H105.094ZM110.622 67.52L112.762 71H111.732L110.062 68.28L108.472 71H107.462L109.592 67.52L107.452 64.03H108.472L110.152 66.76L111.752 64.03H112.772L110.622 67.52ZM114.693 64.03V71H113.783V64.03H114.693Z" fill="#9C9C9C"/>
<path d="M307.06 318.03V318.77H305.16V325H304.25V318.77H302.34V318.03H307.06ZM308.45 318.63C308.277 318.63 308.13 318.57 308.01 318.45C307.89 318.33 307.83 318.183 307.83 318.01C307.83 317.837 307.89 317.69 308.01 317.57C308.13 317.45 308.277 317.39 308.45 317.39C308.617 317.39 308.757 317.45 308.87 317.57C308.99 317.69 309.05 317.837 309.05 318.01C309.05 318.183 308.99 318.33 308.87 318.45C308.757 318.57 308.617 318.63 308.45 318.63ZM308.89 319.52V325H307.98V319.52H308.89ZM316.831 319.42C317.258 319.42 317.638 319.51 317.971 319.69C318.304 319.863 318.568 320.127 318.761 320.48C318.954 320.833 319.051 321.263 319.051 321.77V325H318.151V321.9C318.151 321.353 318.014 320.937 317.741 320.65C317.474 320.357 317.111 320.21 316.651 320.21C316.178 320.21 315.801 320.363 315.521 320.67C315.241 320.97 315.101 321.407 315.101 321.98V325H314.201V321.9C314.201 321.353 314.064 320.937 313.791 320.65C313.524 320.357 313.161 320.21 312.701 320.21C312.228 320.21 311.851 320.363 311.571 320.67C311.291 320.97 311.151 321.407 311.151 321.98V325H310.241V319.52H311.151V320.31C311.331 320.023 311.571 319.803 311.871 319.65C312.178 319.497 312.514 319.42 312.881 319.42C313.341 319.42 313.748 319.523 314.101 319.73C314.454 319.937 314.718 320.24 314.891 320.64C315.044 320.253 315.298 319.953 315.651 319.74C316.004 319.527 316.398 319.42 316.831 319.42ZM325.344 322.05C325.344 322.223 325.334 322.407 325.314 322.6H320.934C320.967 323.14 321.15 323.563 321.484 323.87C321.824 324.17 322.234 324.32 322.714 324.32C323.107 324.32 323.434 324.23 323.694 324.05C323.96 323.863 324.147 323.617 324.254 323.31H325.234C325.087 323.837 324.794 324.267 324.354 324.6C323.914 324.927 323.367 325.09 322.714 325.09C322.194 325.09 321.727 324.973 321.314 324.74C320.907 324.507 320.587 324.177 320.354 323.75C320.12 323.317 320.004 322.817 320.004 322.25C320.004 321.683 320.117 321.187 320.344 320.76C320.57 320.333 320.887 320.007 321.294 319.78C321.707 319.547 322.18 319.43 322.714 319.43C323.234 319.43 323.694 319.543 324.094 319.77C324.494 319.997 324.8 320.31 325.014 320.71C325.234 321.103 325.344 321.55 325.344 322.05ZM324.404 321.86C324.404 321.513 324.327 321.217 324.174 320.97C324.02 320.717 323.81 320.527 323.544 320.4C323.284 320.267 322.994 320.2 322.674 320.2C322.214 320.2 321.82 320.347 321.494 320.64C321.174 320.933 320.99 321.34 320.944 321.86H324.404ZM332.211 315.58L329.471 326.7H328.571L331.301 315.58H332.211ZM336.723 318.03V322.44C336.723 323.06 336.873 323.52 337.173 323.82C337.48 324.12 337.903 324.27 338.443 324.27C338.976 324.27 339.393 324.12 339.693 323.82C340 323.52 340.153 323.06 340.153 322.44V318.03H341.063V322.43C341.063 323.01 340.946 323.5 340.713 323.9C340.48 324.293 340.163 324.587 339.763 324.78C339.37 324.973 338.926 325.07 338.433 325.07C337.94 325.07 337.493 324.973 337.093 324.78C336.7 324.587 336.386 324.293 336.153 323.9C335.926 323.5 335.813 323.01 335.813 322.43V318.03H336.723ZM346.671 318.03V318.77H344.771V325H343.861V318.77H341.951V318.03H346.671ZM347.251 321.51C347.251 320.83 347.404 320.22 347.711 319.68C348.018 319.133 348.434 318.707 348.961 318.4C349.494 318.093 350.084 317.94 350.731 317.94C351.491 317.94 352.154 318.123 352.721 318.49C353.288 318.857 353.701 319.377 353.961 320.05H352.871C352.678 319.63 352.398 319.307 352.031 319.08C351.671 318.853 351.238 318.74 350.731 318.74C350.244 318.74 349.808 318.853 349.421 319.08C349.034 319.307 348.731 319.63 348.511 320.05C348.291 320.463 348.181 320.95 348.181 321.51C348.181 322.063 348.291 322.55 348.511 322.97C348.731 323.383 349.034 323.703 349.421 323.93C349.808 324.157 350.244 324.27 350.731 324.27C351.238 324.27 351.671 324.16 352.031 323.94C352.398 323.713 352.678 323.39 352.871 322.97H353.961C353.701 323.637 353.288 324.153 352.721 324.52C352.154 324.88 351.491 325.06 350.731 325.06C350.084 325.06 349.494 324.91 348.961 324.61C348.434 324.303 348.018 323.88 347.711 323.34C347.404 322.8 347.251 322.19 347.251 321.51Z" fill="#9C9C9C"/>
<path d="M15.563 194.113C16.085 194.113 16.52 194.293 16.868 194.653C17.21 195.007 17.381 195.55 17.381 196.282V197.488H20V198.307H13.727V196.282C13.727 195.574 13.898 195.037 14.24 194.671C14.582 194.299 15.023 194.113 15.563 194.113ZM16.706 196.282C16.706 195.826 16.607 195.49 16.409 195.274C16.211 195.058 15.929 194.95 15.563 194.95C14.789 194.95 14.402 195.394 14.402 196.282V197.488H16.706V196.282ZM15.869 192.456C15.587 192.312 15.368 192.108 15.212 191.844C15.056 191.574 14.978 191.247 14.978 190.863H15.824V191.079C15.824 191.997 16.322 192.456 17.318 192.456H20V193.275H15.068V192.456H15.869ZM14.267 189.675C14.267 189.831 14.213 189.963 14.105 190.071C13.997 190.179 13.865 190.233 13.709 190.233C13.553 190.233 13.421 190.179 13.313 190.071C13.205 189.963 13.151 189.831 13.151 189.675C13.151 189.525 13.205 189.399 13.313 189.297C13.421 189.189 13.553 189.135 13.709 189.135C13.865 189.135 13.997 189.189 14.105 189.297C14.213 189.399 14.267 189.525 14.267 189.675ZM15.068 189.279H20V190.098H15.068V189.279ZM17.525 188.369C17.015 188.369 16.571 188.267 16.193 188.063C15.809 187.859 15.512 187.577 15.302 187.217C15.092 186.851 14.987 186.434 14.987 185.966C14.987 185.36 15.134 184.862 15.428 184.472C15.722 184.076 16.13 183.815 16.652 183.689V184.571C16.352 184.655 16.115 184.82 15.941 185.066C15.767 185.306 15.68 185.606 15.68 185.966C15.68 186.434 15.842 186.812 16.166 187.1C16.484 187.388 16.937 187.532 17.525 187.532C18.119 187.532 18.578 187.388 18.902 187.1C19.226 186.812 19.388 186.434 19.388 185.966C19.388 185.606 19.304 185.306 19.136 185.066C18.968 184.826 18.728 184.661 18.416 184.571V183.689C18.92 183.821 19.325 184.085 19.631 184.481C19.931 184.877 20.081 185.372 20.081 185.966C20.081 186.434 19.976 186.851 19.766 187.217C19.556 187.577 19.259 187.859 18.875 188.063C18.491 188.267 18.041 188.369 17.525 188.369ZM17.345 178.276C17.501 178.276 17.666 178.285 17.84 178.303V182.245C18.326 182.215 18.707 182.05 18.983 181.75C19.253 181.444 19.388 181.075 19.388 180.643C19.388 180.289 19.307 179.995 19.145 179.761C18.977 179.521 18.755 179.353 18.479 179.257V178.375C18.953 178.507 19.34 178.771 19.64 179.167C19.934 179.563 20.081 180.055 20.081 180.643C20.081 181.111 19.976 181.531 19.766 181.903C19.556 182.269 19.259 182.557 18.875 182.767C18.485 182.977 18.035 183.082 17.525 183.082C17.015 183.082 16.568 182.98 16.184 182.776C15.8 182.572 15.506 182.287 15.302 181.921C15.092 181.549 14.987 181.123 14.987 180.643C14.987 180.175 15.089 179.761 15.293 179.401C15.497 179.041 15.779 178.765 16.139 178.573C16.493 178.375 16.895 178.276 17.345 178.276ZM17.174 179.122C16.862 179.122 16.595 179.191 16.373 179.329C16.145 179.467 15.974 179.656 15.86 179.896C15.74 180.13 15.68 180.391 15.68 180.679C15.68 181.093 15.812 181.447 16.076 181.741C16.34 182.029 16.706 182.194 17.174 182.236V179.122ZM11.522 172.096L21.53 174.562V175.372L11.522 172.915V172.096ZM20.063 166.847C20.063 167.261 19.991 167.633 19.847 167.963C19.697 168.287 19.493 168.542 19.235 168.728C18.971 168.914 18.668 169.01 18.326 169.016V168.143C18.62 168.113 18.869 167.993 19.073 167.783C19.271 167.567 19.37 167.255 19.37 166.847C19.37 166.457 19.274 166.151 19.082 165.929C18.884 165.701 18.632 165.587 18.326 165.587C18.086 165.587 17.891 165.653 17.741 165.785C17.591 165.917 17.477 166.082 17.399 166.28C17.321 166.478 17.237 166.745 17.147 167.081C17.039 167.495 16.931 167.828 16.823 168.08C16.715 168.326 16.547 168.539 16.319 168.719C16.085 168.893 15.773 168.98 15.383 168.98C15.041 168.98 14.738 168.893 14.474 168.719C14.21 168.545 14.006 168.302 13.862 167.99C13.718 167.672 13.646 167.309 13.646 166.901C13.646 166.313 13.793 165.833 14.087 165.461C14.381 165.083 14.771 164.87 15.257 164.822V165.722C15.017 165.752 14.807 165.878 14.627 166.1C14.441 166.322 14.348 166.616 14.348 166.982C14.348 167.324 14.438 167.603 14.618 167.819C14.792 168.035 15.038 168.143 15.356 168.143C15.584 168.143 15.77 168.08 15.914 167.954C16.058 167.822 16.169 167.663 16.247 167.477C16.319 167.285 16.403 167.018 16.499 166.676C16.613 166.262 16.727 165.929 16.841 165.677C16.949 165.425 17.12 165.209 17.354 165.029C17.582 164.849 17.894 164.759 18.29 164.759C18.596 164.759 18.884 164.84 19.154 165.002C19.424 165.164 19.643 165.404 19.811 165.722C19.979 166.04 20.063 166.415 20.063 166.847ZM18.605 160.026V162.762L20 163.266V164.13L13.763 161.862V160.917L20 158.658V159.522L18.605 160.026ZM17.939 160.26L14.771 161.394L17.939 162.528V160.26ZM13.727 153.988H14.393V155.698H20V156.517H14.393V158.236H13.727V153.988Z" fill="#9C9C9C"/>
<path d="M165.076 294.03C165.836 294.03 166.493 294.173 167.046 294.46C167.606 294.74 168.033 295.143 168.326 295.67C168.626 296.197 168.776 296.817 168.776 297.53C168.776 298.243 168.626 298.863 168.326 299.39C168.033 299.91 167.606 300.31 167.046 300.59C166.493 300.863 165.836 301 165.076 301H162.906V294.03H165.076ZM165.076 300.25C165.976 300.25 166.663 300.013 167.136 299.54C167.609 299.06 167.846 298.39 167.846 297.53C167.846 296.663 167.606 295.987 167.126 295.5C166.653 295.013 165.969 294.77 165.076 294.77H163.816V300.25H165.076ZM169.436 298.24C169.436 297.68 169.55 297.19 169.776 296.77C170.003 296.343 170.313 296.013 170.706 295.78C171.106 295.547 171.55 295.43 172.036 295.43C172.516 295.43 172.933 295.533 173.286 295.74C173.64 295.947 173.903 296.207 174.076 296.52V295.52H174.996V301H174.076V299.98C173.896 300.3 173.626 300.567 173.266 300.78C172.913 300.987 172.5 301.09 172.026 301.09C171.54 301.09 171.1 300.97 170.706 300.73C170.313 300.49 170.003 300.153 169.776 299.72C169.55 299.287 169.436 298.793 169.436 298.24ZM174.076 298.25C174.076 297.837 173.993 297.477 173.826 297.17C173.66 296.863 173.433 296.63 173.146 296.47C172.866 296.303 172.556 296.22 172.216 296.22C171.876 296.22 171.566 296.3 171.286 296.46C171.006 296.62 170.783 296.853 170.616 297.16C170.45 297.467 170.366 297.827 170.366 298.24C170.366 298.66 170.45 299.027 170.616 299.34C170.783 299.647 171.006 299.883 171.286 300.05C171.566 300.21 171.876 300.29 172.216 300.29C172.556 300.29 172.866 300.21 173.146 300.05C173.433 299.883 173.66 299.647 173.826 299.34C173.993 299.027 174.076 298.663 174.076 298.25ZM177.444 296.27V299.5C177.444 299.767 177.501 299.957 177.614 300.07C177.727 300.177 177.924 300.23 178.204 300.23H178.874V301H178.054C177.547 301 177.167 300.883 176.914 300.65C176.661 300.417 176.534 300.033 176.534 299.5V296.27H175.824V295.52H176.534V294.14H177.444V295.52H178.874V296.27H177.444ZM184.777 298.05C184.777 298.223 184.767 298.407 184.747 298.6H180.367C180.4 299.14 180.583 299.563 180.917 299.87C181.257 300.17 181.667 300.32 182.147 300.32C182.54 300.32 182.867 300.23 183.127 300.05C183.393 299.863 183.58 299.617 183.687 299.31H184.667C184.52 299.837 184.227 300.267 183.787 300.6C183.347 300.927 182.8 301.09 182.147 301.09C181.627 301.09 181.16 300.973 180.747 300.74C180.34 300.507 180.02 300.177 179.787 299.75C179.553 299.317 179.437 298.817 179.437 298.25C179.437 297.683 179.55 297.187 179.777 296.76C180.003 296.333 180.32 296.007 180.727 295.78C181.14 295.547 181.613 295.43 182.147 295.43C182.667 295.43 183.127 295.543 183.527 295.77C183.927 295.997 184.233 296.31 184.447 296.71C184.667 297.103 184.777 297.55 184.777 298.05ZM183.837 297.86C183.837 297.513 183.76 297.217 183.607 296.97C183.453 296.717 183.243 296.527 182.977 296.4C182.717 296.267 182.427 296.2 182.107 296.2C181.647 296.2 181.253 296.347 180.927 296.64C180.607 296.933 180.423 297.34 180.377 297.86H183.837Z" fill="#9C9C9C"/>
<path d="M327.212 294.03C327.972 294.03 328.629 294.173 329.182 294.46C329.742 294.74 330.169 295.143 330.462 295.67C330.762 296.197 330.912 296.817 330.912 297.53C330.912 298.243 330.762 298.863 330.462 299.39C330.169 299.91 329.742 300.31 329.182 300.59C328.629 300.863 327.972 301 327.212 301H325.042V294.03H327.212ZM327.212 300.25C328.112 300.25 328.799 300.013 329.272 299.54C329.745 299.06 329.982 298.39 329.982 297.53C329.982 296.663 329.742 295.987 329.262 295.5C328.789 295.013 328.105 294.77 327.212 294.77H325.952V300.25H327.212ZM331.572 298.24C331.572 297.68 331.686 297.19 331.912 296.77C332.139 296.343 332.449 296.013 332.842 295.78C333.242 295.547 333.686 295.43 334.172 295.43C334.652 295.43 335.069 295.533 335.422 295.74C335.776 295.947 336.039 296.207 336.212 296.52V295.52H337.132V301H336.212V299.98C336.032 300.3 335.762 300.567 335.402 300.78C335.049 300.987 334.636 301.09 334.162 301.09C333.676 301.09 333.236 300.97 332.842 300.73C332.449 300.49 332.139 300.153 331.912 299.72C331.686 299.287 331.572 298.793 331.572 298.24ZM336.212 298.25C336.212 297.837 336.129 297.477 335.962 297.17C335.796 296.863 335.569 296.63 335.282 296.47C335.002 296.303 334.692 296.22 334.352 296.22C334.012 296.22 333.702 296.3 333.422 296.46C333.142 296.62 332.919 296.853 332.752 297.16C332.586 297.467 332.502 297.827 332.502 298.24C332.502 298.66 332.586 299.027 332.752 299.34C332.919 299.647 333.142 299.883 333.422 300.05C333.702 300.21 334.012 300.29 334.352 300.29C334.692 300.29 335.002 300.21 335.282 300.05C335.569 299.883 335.796 299.647 335.962 299.34C336.129 299.027 336.212 298.663 336.212 298.25ZM339.58 296.27V299.5C339.58 299.767 339.637 299.957 339.75 300.07C339.863 300.177 340.06 300.23 340.34 300.23H341.01V301H340.19C339.683 301 339.303 300.883 339.05 300.65C338.797 300.417 338.67 300.033 338.67 299.5V296.27H337.96V295.52H338.67V294.14H339.58V295.52H341.01V296.27H339.58ZM346.913 298.05C346.913 298.223 346.903 298.407 346.883 298.6H342.503C342.536 299.14 342.719 299.563 343.053 299.87C343.393 300.17 343.803 300.32 344.283 300.32C344.676 300.32 345.003 300.23 345.263 300.05C345.529 299.863 345.716 299.617 345.823 299.31H346.803C346.656 299.837 346.363 300.267 345.923 300.6C345.483 300.927 344.936 301.09 344.283 301.09C343.763 301.09 343.296 300.973 342.883 300.74C342.476 300.507 342.156 300.177 341.923 299.75C341.689 299.317 341.573 298.817 341.573 298.25C341.573 297.683 341.686 297.187 341.913 296.76C342.139 296.333 342.456 296.007 342.863 295.78C343.276 295.547 343.749 295.43 344.283 295.43C344.803 295.43 345.263 295.543 345.663 295.77C346.063 295.997 346.369 296.31 346.583 296.71C346.803 297.103 346.913 297.55 346.913 298.05ZM345.973 297.86C345.973 297.513 345.896 297.217 345.743 296.97C345.589 296.717 345.379 296.527 345.113 296.4C344.853 296.267 344.563 296.2 344.243 296.2C343.783 296.2 343.389 296.347 343.063 296.64C342.743 296.933 342.559 297.34 342.513 297.86H345.973Z" fill="#9C9C9C"/>
<path d="M489.348 294.03C490.108 294.03 490.764 294.173 491.318 294.46C491.878 294.74 492.304 295.143 492.598 295.67C492.898 296.197 493.048 296.817 493.048 297.53C493.048 298.243 492.898 298.863 492.598 299.39C492.304 299.91 491.878 300.31 491.318 300.59C490.764 300.863 490.108 301 489.348 301H487.178V294.03H489.348ZM489.348 300.25C490.248 300.25 490.934 300.013 491.408 299.54C491.881 299.06 492.118 298.39 492.118 297.53C492.118 296.663 491.878 295.987 491.398 295.5C490.924 295.013 490.241 294.77 489.348 294.77H488.088V300.25H489.348ZM493.708 298.24C493.708 297.68 493.821 297.19 494.048 296.77C494.275 296.343 494.585 296.013 494.978 295.78C495.378 295.547 495.821 295.43 496.308 295.43C496.788 295.43 497.205 295.533 497.558 295.74C497.911 295.947 498.175 296.207 498.348 296.52V295.52H499.268V301H498.348V299.98C498.168 300.3 497.898 300.567 497.538 300.78C497.185 300.987 496.771 301.09 496.298 301.09C495.811 301.09 495.371 300.97 494.978 300.73C494.585 300.49 494.275 300.153 494.048 299.72C493.821 299.287 493.708 298.793 493.708 298.24ZM498.348 298.25C498.348 297.837 498.265 297.477 498.098 297.17C497.931 296.863 497.705 296.63 497.418 296.47C497.138 296.303 496.828 296.22 496.488 296.22C496.148 296.22 495.838 296.3 495.558 296.46C495.278 296.62 495.055 296.853 494.888 297.16C494.721 297.467 494.638 297.827 494.638 298.24C494.638 298.66 494.721 299.027 494.888 299.34C495.055 299.647 495.278 299.883 495.558 300.05C495.838 300.21 496.148 300.29 496.488 300.29C496.828 300.29 497.138 300.21 497.418 300.05C497.705 299.883 497.931 299.647 498.098 299.34C498.265 299.027 498.348 298.663 498.348 298.25ZM501.716 296.27V299.5C501.716 299.767 501.773 299.957 501.886 300.07C501.999 300.177 502.196 300.23 502.476 300.23H503.146V301H502.326C501.819 301 501.439 300.883 501.186 300.65C500.933 300.417 500.806 300.033 500.806 299.5V296.27H500.096V295.52H500.806V294.14H501.716V295.52H503.146V296.27H501.716ZM509.048 298.05C509.048 298.223 509.038 298.407 509.018 298.6H504.638C504.672 299.14 504.855 299.563 505.188 299.87C505.528 300.17 505.938 300.32 506.418 300.32C506.812 300.32 507.138 300.23 507.398 300.05C507.665 299.863 507.852 299.617 507.958 299.31H508.938C508.792 299.837 508.498 300.267 508.058 300.6C507.618 300.927 507.072 301.09 506.418 301.09C505.898 301.09 505.432 300.973 505.018 300.74C504.612 300.507 504.292 300.177 504.058 299.75C503.825 299.317 503.708 298.817 503.708 298.25C503.708 297.683 503.822 297.187 504.048 296.76C504.275 296.333 504.592 296.007 504.998 295.78C505.412 295.547 505.885 295.43 506.418 295.43C506.938 295.43 507.398 295.543 507.798 295.77C508.198 295.997 508.505 296.31 508.718 296.71C508.938 297.103 509.048 297.55 509.048 298.05ZM508.108 297.86C508.108 297.513 508.032 297.217 507.878 296.97C507.725 296.717 507.515 296.527 507.248 296.4C506.988 296.267 506.698 296.2 506.378 296.2C505.918 296.2 505.525 296.347 505.198 296.64C504.878 296.933 504.695 297.34 504.648 297.86H508.108Z" fill="#9C9C9C"/>
<path d="M25.6351 84.31C25.6351 83.1633 25.8218 82.27 26.1951 81.63C26.5685 80.9833 27.2218 80.66 28.1551 80.66C29.0818 80.66 29.7318 80.9833 30.1051 81.63C30.4785 82.27 30.6651 83.1633 30.6651 84.31C30.6651 85.4767 30.4785 86.3833 30.1051 87.03C29.7318 87.6767 29.0818 88 28.1551 88C27.2218 88 26.5685 87.6767 26.1951 87.03C25.8218 86.3833 25.6351 85.4767 25.6351 84.31ZM29.7651 84.31C29.7651 83.73 29.7251 83.24 29.6451 82.84C29.5718 82.4333 29.4151 82.1067 29.1751 81.86C28.9418 81.6133 28.6018 81.49 28.1551 81.49C27.7018 81.49 27.3551 81.6133 27.1151 81.86C26.8818 82.1067 26.7251 82.4333 26.6451 82.84C26.5718 83.24 26.5351 83.73 26.5351 84.31C26.5351 84.91 26.5718 85.4133 26.6451 85.82C26.7251 86.2267 26.8818 86.5533 27.1151 86.8C27.3551 87.0467 27.7018 87.17 28.1551 87.17C28.6018 87.17 28.9418 87.0467 29.1751 86.8C29.4151 86.5533 29.5718 86.2267 29.6451 85.82C29.7251 85.4133 29.7651 84.91 29.7651 84.31ZM31.7144 84.31C31.7144 83.1633 31.9011 82.27 32.2744 81.63C32.6478 80.9833 33.3011 80.66 34.2344 80.66C35.1611 80.66 35.8111 80.9833 36.1844 81.63C36.5578 82.27 36.7444 83.1633 36.7444 84.31C36.7444 85.4767 36.5578 86.3833 36.1844 87.03C35.8111 87.6767 35.1611 88 34.2344 88C33.3011 88 32.6478 87.6767 32.2744 87.03C31.9011 86.3833 31.7144 85.4767 31.7144 84.31ZM35.8444 84.31C35.8444 83.73 35.8044 83.24 35.7244 82.84C35.6511 82.4333 35.4944 82.1067 35.2544 81.86C35.0211 81.6133 34.6811 81.49 34.2344 81.49C33.7811 81.49 33.4344 81.6133 33.1944 81.86C32.9611 82.1067 32.8044 82.4333 32.7244 82.84C32.6511 83.24 32.6144 83.73 32.6144 84.31C32.6144 84.91 32.6511 85.4133 32.7244 85.82C32.8044 86.2267 32.9611 86.5533 33.1944 86.8C33.4344 87.0467 33.7811 87.17 34.2344 87.17C34.6811 87.17 35.0211 87.0467 35.2544 86.8C35.4944 86.5533 35.6511 86.2267 35.7244 85.82C35.8044 85.4133 35.8444 84.91 35.8444 84.31ZM38.2337 88.06C38.0604 88.06 37.9137 88 37.7937 87.88C37.6737 87.76 37.6137 87.6133 37.6137 87.44C37.6137 87.2667 37.6737 87.12 37.7937 87C37.9137 86.88 38.0604 86.82 38.2337 86.82C38.4004 86.82 38.5404 86.88 38.6537 87C38.7737 87.12 38.8337 87.2667 38.8337 87.44C38.8337 87.6133 38.7737 87.76 38.6537 87.88C38.5404 88 38.4004 88.06 38.2337 88.06ZM39.6933 84.31C39.6933 83.1633 39.88 82.27 40.2533 81.63C40.6267 80.9833 41.28 80.66 42.2133 80.66C43.14 80.66 43.79 80.9833 44.1633 81.63C44.5367 82.27 44.7233 83.1633 44.7233 84.31C44.7233 85.4767 44.5367 86.3833 44.1633 87.03C43.79 87.6767 43.14 88 42.2133 88C41.28 88 40.6267 87.6767 40.2533 87.03C39.88 86.3833 39.6933 85.4767 39.6933 84.31ZM43.8233 84.31C43.8233 83.73 43.7833 83.24 43.7033 82.84C43.63 82.4333 43.4733 82.1067 43.2333 81.86C43 81.6133 42.66 81.49 42.2133 81.49C41.76 81.49 41.4133 81.6133 41.1733 81.86C40.94 82.1067 40.7833 82.4333 40.7033 82.84C40.63 83.24 40.5933 83.73 40.5933 84.31C40.5933 84.91 40.63 85.4133 40.7033 85.82C40.7833 86.2267 40.94 86.5533 41.1733 86.8C41.4133 87.0467 41.76 87.17 42.2133 87.17C42.66 87.17 43 87.0467 43.2333 86.8C43.4733 86.5533 43.63 86.2267 43.7033 85.82C43.7833 85.4133 43.8233 84.91 43.8233 84.31Z" fill="#9C9C9C"/>
<path d="M25.6351 116.31C25.6351 115.163 25.8218 114.27 26.1951 113.63C26.5685 112.983 27.2218 112.66 28.1551 112.66C29.0818 112.66 29.7318 112.983 30.1051 113.63C30.4785 114.27 30.6651 115.163 30.6651 116.31C30.6651 117.477 30.4785 118.383 30.1051 119.03C29.7318 119.677 29.0818 120 28.1551 120C27.2218 120 26.5685 119.677 26.1951 119.03C25.8218 118.383 25.6351 117.477 25.6351 116.31ZM29.7651 116.31C29.7651 115.73 29.7251 115.24 29.6451 114.84C29.5718 114.433 29.4151 114.107 29.1751 113.86C28.9418 113.613 28.6018 113.49 28.1551 113.49C27.7018 113.49 27.3551 113.613 27.1151 113.86C26.8818 114.107 26.7251 114.433 26.6451 114.84C26.5718 115.24 26.5351 115.73 26.5351 116.31C26.5351 116.91 26.5718 117.413 26.6451 117.82C26.7251 118.227 26.8818 118.553 27.1151 118.8C27.3551 119.047 27.7018 119.17 28.1551 119.17C28.6018 119.17 28.9418 119.047 29.1751 118.8C29.4151 118.553 29.5718 118.227 29.6451 117.82C29.7251 117.413 29.7651 116.91 29.7651 116.31ZM31.7144 116.31C31.7144 115.163 31.9011 114.27 32.2744 113.63C32.6478 112.983 33.3011 112.66 34.2344 112.66C35.1611 112.66 35.8111 112.983 36.1844 113.63C36.5578 114.27 36.7444 115.163 36.7444 116.31C36.7444 117.477 36.5578 118.383 36.1844 119.03C35.8111 119.677 35.1611 120 34.2344 120C33.3011 120 32.6478 119.677 32.2744 119.03C31.9011 118.383 31.7144 117.477 31.7144 116.31ZM35.8444 116.31C35.8444 115.73 35.8044 115.24 35.7244 114.84C35.6511 114.433 35.4944 114.107 35.2544 113.86C35.0211 113.613 34.6811 113.49 34.2344 113.49C33.7811 113.49 33.4344 113.613 33.1944 113.86C32.9611 114.107 32.8044 114.433 32.7244 114.84C32.6511 115.24 32.6144 115.73 32.6144 116.31C32.6144 116.91 32.6511 117.413 32.7244 117.82C32.8044 118.227 32.9611 118.553 33.1944 118.8C33.4344 119.047 33.7811 119.17 34.2344 119.17C34.6811 119.17 35.0211 119.047 35.2544 118.8C35.4944 118.553 35.6511 118.227 35.7244 117.82C35.8044 117.413 35.8444 116.91 35.8444 116.31ZM38.2337 120.06C38.0604 120.06 37.9137 120 37.7937 119.88C37.6737 119.76 37.6137 119.613 37.6137 119.44C37.6137 119.267 37.6737 119.12 37.7937 119C37.9137 118.88 38.0604 118.82 38.2337 118.82C38.4004 118.82 38.5404 118.88 38.6537 119C38.7737 119.12 38.8337 119.267 38.8337 119.44C38.8337 119.613 38.7737 119.76 38.6537 119.88C38.5404 120 38.4004 120.06 38.2337 120.06ZM39.6933 116.31C39.6933 115.163 39.88 114.27 40.2533 113.63C40.6267 112.983 41.28 112.66 42.2133 112.66C43.14 112.66 43.79 112.983 44.1633 113.63C44.5367 114.27 44.7233 115.163 44.7233 116.31C44.7233 117.477 44.5367 118.383 44.1633 119.03C43.79 119.677 43.14 120 42.2133 120C41.28 120 40.6267 119.677 40.2533 119.03C39.88 118.383 39.6933 117.477 39.6933 116.31ZM43.8233 116.31C43.8233 115.73 43.7833 115.24 43.7033 114.84C43.63 114.433 43.4733 114.107 43.2333 113.86C43 113.613 42.66 113.49 42.2133 113.49C41.76 113.49 41.4133 113.613 41.1733 113.86C40.94 114.107 40.7833 114.433 40.7033 114.84C40.63 115.24 40.5933 115.73 40.5933 116.31C40.5933 116.91 40.63 117.413 40.7033 117.82C40.7833 118.227 40.94 118.553 41.1733 118.8C41.4133 119.047 41.76 119.17 42.2133 119.17C42.66 119.17 43 119.047 43.2333 118.8C43.4733 118.553 43.63 118.227 43.7033 117.82C43.7833 117.413 43.8233 116.91 43.8233 116.31Z" fill="#9C9C9C"/>
<path d="M25.6351 148.31C25.6351 147.163 25.8218 146.27 26.1951 145.63C26.5685 144.983 27.2218 144.66 28.1551 144.66C29.0818 144.66 29.7318 144.983 30.1051 145.63C30.4785 146.27 30.6651 147.163 30.6651 148.31C30.6651 149.477 30.4785 150.383 30.1051 151.03C29.7318 151.677 29.0818 152 28.1551 152C27.2218 152 26.5685 151.677 26.1951 151.03C25.8218 150.383 25.6351 149.477 25.6351 148.31ZM29.7651 148.31C29.7651 147.73 29.7251 147.24 29.6451 146.84C29.5718 146.433 29.4151 146.107 29.1751 145.86C28.9418 145.613 28.6018 145.49 28.1551 145.49C27.7018 145.49 27.3551 145.613 27.1151 145.86C26.8818 146.107 26.7251 146.433 26.6451 146.84C26.5718 147.24 26.5351 147.73 26.5351 148.31C26.5351 148.91 26.5718 149.413 26.6451 149.82C26.7251 150.227 26.8818 150.553 27.1151 150.8C27.3551 151.047 27.7018 151.17 28.1551 151.17C28.6018 151.17 28.9418 151.047 29.1751 150.8C29.4151 150.553 29.5718 150.227 29.6451 149.82C29.7251 149.413 29.7651 148.91 29.7651 148.31ZM31.7144 148.31C31.7144 147.163 31.9011 146.27 32.2744 145.63C32.6478 144.983 33.3011 144.66 34.2344 144.66C35.1611 144.66 35.8111 144.983 36.1844 145.63C36.5578 146.27 36.7444 147.163 36.7444 148.31C36.7444 149.477 36.5578 150.383 36.1844 151.03C35.8111 151.677 35.1611 152 34.2344 152C33.3011 152 32.6478 151.677 32.2744 151.03C31.9011 150.383 31.7144 149.477 31.7144 148.31ZM35.8444 148.31C35.8444 147.73 35.8044 147.24 35.7244 146.84C35.6511 146.433 35.4944 146.107 35.2544 145.86C35.0211 145.613 34.6811 145.49 34.2344 145.49C33.7811 145.49 33.4344 145.613 33.1944 145.86C32.9611 146.107 32.8044 146.433 32.7244 146.84C32.6511 147.24 32.6144 147.73 32.6144 148.31C32.6144 148.91 32.6511 149.413 32.7244 149.82C32.8044 150.227 32.9611 150.553 33.1944 150.8C33.4344 151.047 33.7811 151.17 34.2344 151.17C34.6811 151.17 35.0211 151.047 35.2544 150.8C35.4944 150.553 35.6511 150.227 35.7244 149.82C35.8044 149.413 35.8444 148.91 35.8444 148.31ZM38.2337 152.06C38.0604 152.06 37.9137 152 37.7937 151.88C37.6737 151.76 37.6137 151.613 37.6137 151.44C37.6137 151.267 37.6737 151.12 37.7937 151C37.9137 150.88 38.0604 150.82 38.2337 150.82C38.4004 150.82 38.5404 150.88 38.6537 151C38.7737 151.12 38.8337 151.267 38.8337 151.44C38.8337 151.613 38.7737 151.76 38.6537 151.88C38.5404 152 38.4004 152.06 38.2337 152.06ZM39.6933 148.31C39.6933 147.163 39.88 146.27 40.2533 145.63C40.6267 144.983 41.28 144.66 42.2133 144.66C43.14 144.66 43.79 144.983 44.1633 145.63C44.5367 146.27 44.7233 147.163 44.7233 148.31C44.7233 149.477 44.5367 150.383 44.1633 151.03C43.79 151.677 43.14 152 42.2133 152C41.28 152 40.6267 151.677 40.2533 151.03C39.88 150.383 39.6933 149.477 39.6933 148.31ZM43.8233 148.31C43.8233 147.73 43.7833 147.24 43.7033 146.84C43.63 146.433 43.4733 146.107 43.2333 145.86C43 145.613 42.66 145.49 42.2133 145.49C41.76 145.49 41.4133 145.613 41.1733 145.86C40.94 146.107 40.7833 146.433 40.7033 146.84C40.63 147.24 40.5933 147.73 40.5933 148.31C40.5933 148.91 40.63 149.413 40.7033 149.82C40.7833 150.227 40.94 150.553 41.1733 150.8C41.4133 151.047 41.76 151.17 42.2133 151.17C42.66 151.17 43 151.047 43.2333 150.8C43.4733 150.553 43.63 150.227 43.7033 149.82C43.7833 149.413 43.8233 148.91 43.8233 148.31Z" fill="#9C9C9C"/>
<path d="M99.7545 297.31C99.7545 296.163 99.9412 295.27 100.315 294.63C100.688 293.983 101.341 293.66 102.275 293.66C103.201 293.66 103.851 293.983 104.225 294.63C104.598 295.27 104.785 296.163 104.785 297.31C104.785 298.477 104.598 299.383 104.225 300.03C103.851 300.677 103.201 301 102.275 301C101.341 301 100.688 300.677 100.315 300.03C99.9412 299.383 99.7545 298.477 99.7545 297.31ZM103.885 297.31C103.885 296.73 103.845 296.24 103.765 295.84C103.691 295.433 103.535 295.107 103.295 294.86C103.061 294.613 102.721 294.49 102.275 294.49C101.821 294.49 101.475 294.613 101.235 294.86C101.001 295.107 100.845 295.433 100.765 295.84C100.691 296.24 100.655 296.73 100.655 297.31C100.655 297.91 100.691 298.413 100.765 298.82C100.845 299.227 101.001 299.553 101.235 299.8C101.475 300.047 101.821 300.17 102.275 300.17C102.721 300.17 103.061 300.047 103.295 299.8C103.535 299.553 103.691 299.227 103.765 298.82C103.845 298.413 103.885 297.91 103.885 297.31ZM105.834 297.31C105.834 296.163 106.02 295.27 106.394 294.63C106.767 293.983 107.42 293.66 108.354 293.66C109.28 293.66 109.93 293.983 110.304 294.63C110.677 295.27 110.864 296.163 110.864 297.31C110.864 298.477 110.677 299.383 110.304 300.03C109.93 300.677 109.28 301 108.354 301C107.42 301 106.767 300.677 106.394 300.03C106.02 299.383 105.834 298.477 105.834 297.31ZM109.964 297.31C109.964 296.73 109.924 296.24 109.844 295.84C109.77 295.433 109.614 295.107 109.374 294.86C109.14 294.613 108.8 294.49 108.354 294.49C107.9 294.49 107.554 294.613 107.314 294.86C107.08 295.107 106.924 295.433 106.844 295.84C106.77 296.24 106.734 296.73 106.734 297.31C106.734 297.91 106.77 298.413 106.844 298.82C106.924 299.227 107.08 299.553 107.314 299.8C107.554 300.047 107.9 300.17 108.354 300.17C108.8 300.17 109.14 300.047 109.374 299.8C109.614 299.553 109.77 299.227 109.844 298.82C109.924 298.413 109.964 297.91 109.964 297.31Z" fill="#9C9C9C"/>
<path d="M229.463 297.31C229.463 296.163 229.65 295.27 230.023 294.63C230.397 293.983 231.05 293.66 231.983 293.66C232.91 293.66 233.56 293.983 233.933 294.63C234.307 295.27 234.493 296.163 234.493 297.31C234.493 298.477 234.307 299.383 233.933 300.03C233.56 300.677 232.91 301 231.983 301C231.05 301 230.397 300.677 230.023 300.03C229.65 299.383 229.463 298.477 229.463 297.31ZM233.593 297.31C233.593 296.73 233.553 296.24 233.473 295.84C233.4 295.433 233.243 295.107 233.003 294.86C232.77 294.613 232.43 294.49 231.983 294.49C231.53 294.49 231.183 294.613 230.943 294.86C230.71 295.107 230.553 295.433 230.473 295.84C230.4 296.24 230.363 296.73 230.363 297.31C230.363 297.91 230.4 298.413 230.473 298.82C230.553 299.227 230.71 299.553 230.943 299.8C231.183 300.047 231.53 300.17 231.983 300.17C232.43 300.17 232.77 300.047 233.003 299.8C233.243 299.553 233.4 299.227 233.473 298.82C233.553 298.413 233.593 297.91 233.593 297.31ZM235.543 297.31C235.543 296.163 235.729 295.27 236.103 294.63C236.476 293.983 237.129 293.66 238.063 293.66C238.989 293.66 239.639 293.983 240.013 294.63C240.386 295.27 240.573 296.163 240.573 297.31C240.573 298.477 240.386 299.383 240.013 300.03C239.639 300.677 238.989 301 238.063 301C237.129 301 236.476 300.677 236.103 300.03C235.729 299.383 235.543 298.477 235.543 297.31ZM239.673 297.31C239.673 296.73 239.633 296.24 239.553 295.84C239.479 295.433 239.323 295.107 239.083 294.86C238.849 294.613 238.509 294.49 238.063 294.49C237.609 294.49 237.263 294.613 237.023 294.86C236.789 295.107 236.633 295.433 236.553 295.84C236.479 296.24 236.443 296.73 236.443 297.31C236.443 297.91 236.479 298.413 236.553 298.82C236.633 299.227 236.789 299.553 237.023 299.8C237.263 300.047 237.609 300.17 238.063 300.17C238.509 300.17 238.849 300.047 239.083 299.8C239.323 299.553 239.479 299.227 239.553 298.82C239.633 298.413 239.673 297.91 239.673 297.31Z" fill="#9C9C9C"/>
<path d="M276.714 297.31C276.714 296.163 276.901 295.27 277.274 294.63C277.648 293.983 278.301 293.66 279.234 293.66C280.161 293.66 280.811 293.983 281.184 294.63C281.558 295.27 281.744 296.163 281.744 297.31C281.744 298.477 281.558 299.383 281.184 300.03C280.811 300.677 280.161 301 279.234 301C278.301 301 277.648 300.677 277.274 300.03C276.901 299.383 276.714 298.477 276.714 297.31ZM280.844 297.31C280.844 296.73 280.804 296.24 280.724 295.84C280.651 295.433 280.494 295.107 280.254 294.86C280.021 294.613 279.681 294.49 279.234 294.49C278.781 294.49 278.434 294.613 278.194 294.86C277.961 295.107 277.804 295.433 277.724 295.84C277.651 296.24 277.614 296.73 277.614 297.31C277.614 297.91 277.651 298.413 277.724 298.82C277.804 299.227 277.961 299.553 278.194 299.8C278.434 300.047 278.781 300.17 279.234 300.17C279.681 300.17 280.021 300.047 280.254 299.8C280.494 299.553 280.651 299.227 280.724 298.82C280.804 298.413 280.844 297.91 280.844 297.31ZM282.794 297.31C282.794 296.163 282.98 295.27 283.354 294.63C283.727 293.983 284.38 293.66 285.314 293.66C286.24 293.66 286.89 293.983 287.264 294.63C287.637 295.27 287.824 296.163 287.824 297.31C287.824 298.477 287.637 299.383 287.264 300.03C286.89 300.677 286.24 301 285.314 301C284.38 301 283.727 300.677 283.354 300.03C282.98 299.383 282.794 298.477 282.794 297.31ZM286.924 297.31C286.924 296.73 286.884 296.24 286.804 295.84C286.73 295.433 286.574 295.107 286.334 294.86C286.1 294.613 285.76 294.49 285.314 294.49C284.86 294.49 284.514 294.613 284.274 294.86C284.04 295.107 283.884 295.433 283.804 295.84C283.73 296.24 283.694 296.73 283.694 297.31C283.694 297.91 283.73 298.413 283.804 298.82C283.884 299.227 284.04 299.553 284.274 299.8C284.514 300.047 284.86 300.17 285.314 300.17C285.76 300.17 286.1 300.047 286.334 299.8C286.574 299.553 286.73 299.227 286.804 298.82C286.884 298.413 286.924 297.91 286.924 297.31Z" fill="#9C9C9C"/>
<path d="M388.82 297.31C388.82 296.163 389.006 295.27 389.38 294.63C389.753 293.983 390.406 293.66 391.34 293.66C392.266 293.66 392.916 293.983 393.29 294.63C393.663 295.27 393.85 296.163 393.85 297.31C393.85 298.477 393.663 299.383 393.29 300.03C392.916 300.677 392.266 301 391.34 301C390.406 301 389.753 300.677 389.38 300.03C389.006 299.383 388.82 298.477 388.82 297.31ZM392.95 297.31C392.95 296.73 392.91 296.24 392.83 295.84C392.756 295.433 392.6 295.107 392.36 294.86C392.126 294.613 391.786 294.49 391.34 294.49C390.886 294.49 390.54 294.613 390.3 294.86C390.066 295.107 389.91 295.433 389.83 295.84C389.756 296.24 389.72 296.73 389.72 297.31C389.72 297.91 389.756 298.413 389.83 298.82C389.91 299.227 390.066 299.553 390.3 299.8C390.54 300.047 390.886 300.17 391.34 300.17C391.786 300.17 392.126 300.047 392.36 299.8C392.6 299.553 392.756 299.227 392.83 298.82C392.91 298.413 392.95 297.91 392.95 297.31ZM394.899 297.31C394.899 296.163 395.086 295.27 395.459 294.63C395.832 293.983 396.486 293.66 397.419 293.66C398.346 293.66 398.996 293.983 399.369 294.63C399.742 295.27 399.929 296.163 399.929 297.31C399.929 298.477 399.742 299.383 399.369 300.03C398.996 300.677 398.346 301 397.419 301C396.486 301 395.832 300.677 395.459 300.03C395.086 299.383 394.899 298.477 394.899 297.31ZM399.029 297.31C399.029 296.73 398.989 296.24 398.909 295.84C398.836 295.433 398.679 295.107 398.439 294.86C398.206 294.613 397.866 294.49 397.419 294.49C396.966 294.49 396.619 294.613 396.379 294.86C396.146 295.107 395.989 295.433 395.909 295.84C395.836 296.24 395.799 296.73 395.799 297.31C395.799 297.91 395.836 298.413 395.909 298.82C395.989 299.227 396.146 299.553 396.379 299.8C396.619 300.047 396.966 300.17 397.419 300.17C397.866 300.17 398.206 300.047 398.439 299.8C398.679 299.553 398.836 299.227 398.909 298.82C398.989 298.413 399.029 297.91 399.029 297.31Z" fill="#9C9C9C"/>
<path d="M546.323 297.31C546.323 296.163 546.51 295.27 546.883 294.63C547.256 293.983 547.91 293.66 548.843 293.66C549.77 293.66 550.42 293.983 550.793 294.63C551.166 295.27 551.353 296.163 551.353 297.31C551.353 298.477 551.166 299.383 550.793 300.03C550.42 300.677 549.77 301 548.843 301C547.91 301 547.256 300.677 546.883 300.03C546.51 299.383 546.323 298.477 546.323 297.31ZM550.453 297.31C550.453 296.73 550.413 296.24 550.333 295.84C550.26 295.433 550.103 295.107 549.863 294.86C549.63 294.613 549.29 294.49 548.843 294.49C548.39 294.49 548.043 294.613 547.803 294.86C547.57 295.107 547.413 295.433 547.333 295.84C547.26 296.24 547.223 296.73 547.223 297.31C547.223 297.91 547.26 298.413 547.333 298.82C547.413 299.227 547.57 299.553 547.803 299.8C548.043 300.047 548.39 300.17 548.843 300.17C549.29 300.17 549.63 300.047 549.863 299.8C550.103 299.553 550.26 299.227 550.333 298.82C550.413 298.413 550.453 297.91 550.453 297.31ZM552.402 297.31C552.402 296.163 552.589 295.27 552.962 294.63C553.336 293.983 553.989 293.66 554.922 293.66C555.849 293.66 556.499 293.983 556.872 294.63C557.246 295.27 557.432 296.163 557.432 297.31C557.432 298.477 557.246 299.383 556.872 300.03C556.499 300.677 555.849 301 554.922 301C553.989 301 553.336 300.677 552.962 300.03C552.589 299.383 552.402 298.477 552.402 297.31ZM556.532 297.31C556.532 296.73 556.492 296.24 556.412 295.84C556.339 295.433 556.182 295.107 555.942 294.86C555.709 294.613 555.369 294.49 554.922 294.49C554.469 294.49 554.122 294.613 553.882 294.86C553.649 295.107 553.492 295.433 553.412 295.84C553.339 296.24 553.302 296.73 553.302 297.31C553.302 297.91 553.339 298.413 553.412 298.82C553.492 299.227 553.649 299.553 553.882 299.8C554.122 300.047 554.469 300.17 554.922 300.17C555.369 300.17 555.709 300.047 555.942 299.8C556.182 299.553 556.339 299.227 556.412 298.82C556.492 298.413 556.532 297.91 556.532 297.31Z" fill="#9C9C9C"/>
<path d="M589.868 297.31C589.868 296.163 590.055 295.27 590.428 294.63C590.802 293.983 591.455 293.66 592.388 293.66C593.315 293.66 593.965 293.983 594.338 294.63C594.712 295.27 594.898 296.163 594.898 297.31C594.898 298.477 594.712 299.383 594.338 300.03C593.965 300.677 593.315 301 592.388 301C591.455 301 590.802 300.677 590.428 300.03C590.055 299.383 589.868 298.477 589.868 297.31ZM593.998 297.31C593.998 296.73 593.958 296.24 593.878 295.84C593.805 295.433 593.648 295.107 593.408 294.86C593.175 294.613 592.835 294.49 592.388 294.49C591.935 294.49 591.588 294.613 591.348 294.86C591.115 295.107 590.958 295.433 590.878 295.84C590.805 296.24 590.768 296.73 590.768 297.31C590.768 297.91 590.805 298.413 590.878 298.82C590.958 299.227 591.115 299.553 591.348 299.8C591.588 300.047 591.935 300.17 592.388 300.17C592.835 300.17 593.175 300.047 593.408 299.8C593.648 299.553 593.805 299.227 593.878 298.82C593.958 298.413 593.998 297.91 593.998 297.31ZM595.948 297.31C595.948 296.163 596.134 295.27 596.508 294.63C596.881 293.983 597.534 293.66 598.468 293.66C599.394 293.66 600.044 293.983 600.418 294.63C600.791 295.27 600.978 296.163 600.978 297.31C600.978 298.477 600.791 299.383 600.418 300.03C600.044 300.677 599.394 301 598.468 301C597.534 301 596.881 300.677 596.508 300.03C596.134 299.383 595.948 298.477 595.948 297.31ZM600.078 297.31C600.078 296.73 600.038 296.24 599.958 295.84C599.884 295.433 599.728 295.107 599.488 294.86C599.254 294.613 598.914 294.49 598.468 294.49C598.014 294.49 597.668 294.613 597.428 294.86C597.194 295.107 597.038 295.433 596.958 295.84C596.884 296.24 596.848 296.73 596.848 297.31C596.848 297.91 596.884 298.413 596.958 298.82C597.038 299.227 597.194 299.553 597.428 299.8C597.668 300.047 598.014 300.17 598.468 300.17C598.914 300.17 599.254 300.047 599.488 299.8C599.728 299.553 599.884 299.227 599.958 298.82C600.038 298.413 600.078 297.91 600.078 297.31Z" fill="#9C9C9C"/>
<path d="M441.63 297.31C441.63 296.163 441.816 295.27 442.19 294.63C442.563 293.983 443.216 293.66 444.15 293.66C445.076 293.66 445.726 293.983 446.1 294.63C446.473 295.27 446.66 296.163 446.66 297.31C446.66 298.477 446.473 299.383 446.1 300.03C445.726 300.677 445.076 301 444.15 301C443.216 301 442.563 300.677 442.19 300.03C441.816 299.383 441.63 298.477 441.63 297.31ZM445.76 297.31C445.76 296.73 445.72 296.24 445.64 295.84C445.566 295.433 445.41 295.107 445.17 294.86C444.936 294.613 444.596 294.49 444.15 294.49C443.696 294.49 443.35 294.613 443.11 294.86C442.876 295.107 442.72 295.433 442.64 295.84C442.566 296.24 442.53 296.73 442.53 297.31C442.53 297.91 442.566 298.413 442.64 298.82C442.72 299.227 442.876 299.553 443.11 299.8C443.35 300.047 443.696 300.17 444.15 300.17C444.596 300.17 444.936 300.047 445.17 299.8C445.41 299.553 445.566 299.227 445.64 298.82C445.72 298.413 445.76 297.91 445.76 297.31ZM447.709 297.31C447.709 296.163 447.896 295.27 448.269 294.63C448.642 293.983 449.296 293.66 450.229 293.66C451.156 293.66 451.806 293.983 452.179 294.63C452.552 295.27 452.739 296.163 452.739 297.31C452.739 298.477 452.552 299.383 452.179 300.03C451.806 300.677 451.156 301 450.229 301C449.296 301 448.642 300.677 448.269 300.03C447.896 299.383 447.709 298.477 447.709 297.31ZM451.839 297.31C451.839 296.73 451.799 296.24 451.719 295.84C451.646 295.433 451.489 295.107 451.249 294.86C451.016 294.613 450.676 294.49 450.229 294.49C449.776 294.49 449.429 294.613 449.189 294.86C448.956 295.107 448.799 295.433 448.719 295.84C448.646 296.24 448.609 296.73 448.609 297.31C448.609 297.91 448.646 298.413 448.719 298.82C448.799 299.227 448.956 299.553 449.189 299.8C449.429 300.047 449.776 300.17 450.229 300.17C450.676 300.17 451.016 300.047 451.249 299.8C451.489 299.553 451.646 299.227 451.719 298.82C451.799 298.413 451.839 297.91 451.839 297.31Z" fill="#9C9C9C"/>
<path d="M25.6351 179.31C25.6351 178.163 25.8218 177.27 26.1951 176.63C26.5685 175.983 27.2218 175.66 28.1551 175.66C29.0818 175.66 29.7318 175.983 30.1051 176.63C30.4785 177.27 30.6651 178.163 30.6651 179.31C30.6651 180.477 30.4785 181.383 30.1051 182.03C29.7318 182.677 29.0818 183 28.1551 183C27.2218 183 26.5685 182.677 26.1951 182.03C25.8218 181.383 25.6351 180.477 25.6351 179.31ZM29.7651 179.31C29.7651 178.73 29.7251 178.24 29.6451 177.84C29.5718 177.433 29.4151 177.107 29.1751 176.86C28.9418 176.613 28.6018 176.49 28.1551 176.49C27.7018 176.49 27.3551 176.613 27.1151 176.86C26.8818 177.107 26.7251 177.433 26.6451 177.84C26.5718 178.24 26.5351 178.73 26.5351 179.31C26.5351 179.91 26.5718 180.413 26.6451 180.82C26.7251 181.227 26.8818 181.553 27.1151 181.8C27.3551 182.047 27.7018 182.17 28.1551 182.17C28.6018 182.17 28.9418 182.047 29.1751 181.8C29.4151 181.553 29.5718 181.227 29.6451 180.82C29.7251 180.413 29.7651 179.91 29.7651 179.31ZM31.7144 179.31C31.7144 178.163 31.9011 177.27 32.2744 176.63C32.6478 175.983 33.3011 175.66 34.2344 175.66C35.1611 175.66 35.8111 175.983 36.1844 176.63C36.5578 177.27 36.7444 178.163 36.7444 179.31C36.7444 180.477 36.5578 181.383 36.1844 182.03C35.8111 182.677 35.1611 183 34.2344 183C33.3011 183 32.6478 182.677 32.2744 182.03C31.9011 181.383 31.7144 180.477 31.7144 179.31ZM35.8444 179.31C35.8444 178.73 35.8044 178.24 35.7244 177.84C35.6511 177.433 35.4944 177.107 35.2544 176.86C35.0211 176.613 34.6811 176.49 34.2344 176.49C33.7811 176.49 33.4344 176.613 33.1944 176.86C32.9611 177.107 32.8044 177.433 32.7244 177.84C32.6511 178.24 32.6144 178.73 32.6144 179.31C32.6144 179.91 32.6511 180.413 32.7244 180.82C32.8044 181.227 32.9611 181.553 33.1944 181.8C33.4344 182.047 33.7811 182.17 34.2344 182.17C34.6811 182.17 35.0211 182.047 35.2544 181.8C35.4944 181.553 35.6511 181.227 35.7244 180.82C35.8044 180.413 35.8444 179.91 35.8444 179.31ZM38.2337 183.06C38.0604 183.06 37.9137 183 37.7937 182.88C37.6737 182.76 37.6137 182.613 37.6137 182.44C37.6137 182.267 37.6737 182.12 37.7937 182C37.9137 181.88 38.0604 181.82 38.2337 181.82C38.4004 181.82 38.5404 181.88 38.6537 182C38.7737 182.12 38.8337 182.267 38.8337 182.44C38.8337 182.613 38.7737 182.76 38.6537 182.88C38.5404 183 38.4004 183.06 38.2337 183.06ZM39.6933 179.31C39.6933 178.163 39.88 177.27 40.2533 176.63C40.6267 175.983 41.28 175.66 42.2133 175.66C43.14 175.66 43.79 175.983 44.1633 176.63C44.5367 177.27 44.7233 178.163 44.7233 179.31C44.7233 180.477 44.5367 181.383 44.1633 182.03C43.79 182.677 43.14 183 42.2133 183C41.28 183 40.6267 182.677 40.2533 182.03C39.88 181.383 39.6933 180.477 39.6933 179.31ZM43.8233 179.31C43.8233 178.73 43.7833 178.24 43.7033 177.84C43.63 177.433 43.4733 177.107 43.2333 176.86C43 176.613 42.66 176.49 42.2133 176.49C41.76 176.49 41.4133 176.613 41.1733 176.86C40.94 177.107 40.7833 177.433 40.7033 177.84C40.63 178.24 40.5933 178.73 40.5933 179.31C40.5933 179.91 40.63 180.413 40.7033 180.82C40.7833 181.227 40.94 181.553 41.1733 181.8C41.4133 182.047 41.76 182.17 42.2133 182.17C42.66 182.17 43 182.047 43.2333 181.8C43.4733 181.553 43.63 181.227 43.7033 180.82C43.7833 180.413 43.8233 179.91 43.8233 179.31Z" fill="#9C9C9C"/>
<path d="M25.6351 211.31C25.6351 210.163 25.8218 209.27 26.1951 208.63C26.5685 207.983 27.2218 207.66 28.1551 207.66C29.0818 207.66 29.7318 207.983 30.1051 208.63C30.4785 209.27 30.6651 210.163 30.6651 211.31C30.6651 212.477 30.4785 213.383 30.1051 214.03C29.7318 214.677 29.0818 215 28.1551 215C27.2218 215 26.5685 214.677 26.1951 214.03C25.8218 213.383 25.6351 212.477 25.6351 211.31ZM29.7651 211.31C29.7651 210.73 29.7251 210.24 29.6451 209.84C29.5718 209.433 29.4151 209.107 29.1751 208.86C28.9418 208.613 28.6018 208.49 28.1551 208.49C27.7018 208.49 27.3551 208.613 27.1151 208.86C26.8818 209.107 26.7251 209.433 26.6451 209.84C26.5718 210.24 26.5351 210.73 26.5351 211.31C26.5351 211.91 26.5718 212.413 26.6451 212.82C26.7251 213.227 26.8818 213.553 27.1151 213.8C27.3551 214.047 27.7018 214.17 28.1551 214.17C28.6018 214.17 28.9418 214.047 29.1751 213.8C29.4151 213.553 29.5718 213.227 29.6451 212.82C29.7251 212.413 29.7651 211.91 29.7651 211.31ZM31.7144 211.31C31.7144 210.163 31.9011 209.27 32.2744 208.63C32.6478 207.983 33.3011 207.66 34.2344 207.66C35.1611 207.66 35.8111 207.983 36.1844 208.63C36.5578 209.27 36.7444 210.163 36.7444 211.31C36.7444 212.477 36.5578 213.383 36.1844 214.03C35.8111 214.677 35.1611 215 34.2344 215C33.3011 215 32.6478 214.677 32.2744 214.03C31.9011 213.383 31.7144 212.477 31.7144 211.31ZM35.8444 211.31C35.8444 210.73 35.8044 210.24 35.7244 209.84C35.6511 209.433 35.4944 209.107 35.2544 208.86C35.0211 208.613 34.6811 208.49 34.2344 208.49C33.7811 208.49 33.4344 208.613 33.1944 208.86C32.9611 209.107 32.8044 209.433 32.7244 209.84C32.6511 210.24 32.6144 210.73 32.6144 211.31C32.6144 211.91 32.6511 212.413 32.7244 212.82C32.8044 213.227 32.9611 213.553 33.1944 213.8C33.4344 214.047 33.7811 214.17 34.2344 214.17C34.6811 214.17 35.0211 214.047 35.2544 213.8C35.4944 213.553 35.6511 213.227 35.7244 212.82C35.8044 212.413 35.8444 211.91 35.8444 211.31ZM38.2337 215.06C38.0604 215.06 37.9137 215 37.7937 214.88C37.6737 214.76 37.6137 214.613 37.6137 214.44C37.6137 214.267 37.6737 214.12 37.7937 214C37.9137 213.88 38.0604 213.82 38.2337 213.82C38.4004 213.82 38.5404 213.88 38.6537 214C38.7737 214.12 38.8337 214.267 38.8337 214.44C38.8337 214.613 38.7737 214.76 38.6537 214.88C38.5404 215 38.4004 215.06 38.2337 215.06ZM39.6933 211.31C39.6933 210.163 39.88 209.27 40.2533 208.63C40.6267 207.983 41.28 207.66 42.2133 207.66C43.14 207.66 43.79 207.983 44.1633 208.63C44.5367 209.27 44.7233 210.163 44.7233 211.31C44.7233 212.477 44.5367 213.383 44.1633 214.03C43.79 214.677 43.14 215 42.2133 215C41.28 215 40.6267 214.677 40.2533 214.03C39.88 213.383 39.6933 212.477 39.6933 211.31ZM43.8233 211.31C43.8233 210.73 43.7833 210.24 43.7033 209.84C43.63 209.433 43.4733 209.107 43.2333 208.86C43 208.613 42.66 208.49 42.2133 208.49C41.76 208.49 41.4133 208.613 41.1733 208.86C40.94 209.107 40.7833 209.433 40.7033 209.84C40.63 210.24 40.5933 210.73 40.5933 211.31C40.5933 211.91 40.63 212.413 40.7033 212.82C40.7833 213.227 40.94 213.553 41.1733 213.8C41.4133 214.047 41.76 214.17 42.2133 214.17C42.66 214.17 43 214.047 43.2333 213.8C43.4733 213.553 43.63 213.227 43.7033 212.82C43.7833 212.413 43.8233 211.91 43.8233 211.31Z" fill="#9C9C9C"/>
<path d="M25.6351 243.31C25.6351 242.163 25.8218 241.27 26.1951 240.63C26.5685 239.983 27.2218 239.66 28.1551 239.66C29.0818 239.66 29.7318 239.983 30.1051 240.63C30.4785 241.27 30.6651 242.163 30.6651 243.31C30.6651 244.477 30.4785 245.383 30.1051 246.03C29.7318 246.677 29.0818 247 28.1551 247C27.2218 247 26.5685 246.677 26.1951 246.03C25.8218 245.383 25.6351 244.477 25.6351 243.31ZM29.7651 243.31C29.7651 242.73 29.7251 242.24 29.6451 241.84C29.5718 241.433 29.4151 241.107 29.1751 240.86C28.9418 240.613 28.6018 240.49 28.1551 240.49C27.7018 240.49 27.3551 240.613 27.1151 240.86C26.8818 241.107 26.7251 241.433 26.6451 241.84C26.5718 242.24 26.5351 242.73 26.5351 243.31C26.5351 243.91 26.5718 244.413 26.6451 244.82C26.7251 245.227 26.8818 245.553 27.1151 245.8C27.3551 246.047 27.7018 246.17 28.1551 246.17C28.6018 246.17 28.9418 246.047 29.1751 245.8C29.4151 245.553 29.5718 245.227 29.6451 244.82C29.7251 244.413 29.7651 243.91 29.7651 243.31ZM31.7144 243.31C31.7144 242.163 31.9011 241.27 32.2744 240.63C32.6478 239.983 33.3011 239.66 34.2344 239.66C35.1611 239.66 35.8111 239.983 36.1844 240.63C36.5578 241.27 36.7444 242.163 36.7444 243.31C36.7444 244.477 36.5578 245.383 36.1844 246.03C35.8111 246.677 35.1611 247 34.2344 247C33.3011 247 32.6478 246.677 32.2744 246.03C31.9011 245.383 31.7144 244.477 31.7144 243.31ZM35.8444 243.31C35.8444 242.73 35.8044 242.24 35.7244 241.84C35.6511 241.433 35.4944 241.107 35.2544 240.86C35.0211 240.613 34.6811 240.49 34.2344 240.49C33.7811 240.49 33.4344 240.613 33.1944 240.86C32.9611 241.107 32.8044 241.433 32.7244 241.84C32.6511 242.24 32.6144 242.73 32.6144 243.31C32.6144 243.91 32.6511 244.413 32.7244 244.82C32.8044 245.227 32.9611 245.553 33.1944 245.8C33.4344 246.047 33.7811 246.17 34.2344 246.17C34.6811 246.17 35.0211 246.047 35.2544 245.8C35.4944 245.553 35.6511 245.227 35.7244 244.82C35.8044 244.413 35.8444 243.91 35.8444 243.31ZM38.2337 247.06C38.0604 247.06 37.9137 247 37.7937 246.88C37.6737 246.76 37.6137 246.613 37.6137 246.44C37.6137 246.267 37.6737 246.12 37.7937 246C37.9137 245.88 38.0604 245.82 38.2337 245.82C38.4004 245.82 38.5404 245.88 38.6537 246C38.7737 246.12 38.8337 246.267 38.8337 246.44C38.8337 246.613 38.7737 246.76 38.6537 246.88C38.5404 247 38.4004 247.06 38.2337 247.06ZM39.6933 243.31C39.6933 242.163 39.88 241.27 40.2533 240.63C40.6267 239.983 41.28 239.66 42.2133 239.66C43.14 239.66 43.79 239.983 44.1633 240.63C44.5367 241.27 44.7233 242.163 44.7233 243.31C44.7233 244.477 44.5367 245.383 44.1633 246.03C43.79 246.677 43.14 247 42.2133 247C41.28 247 40.6267 246.677 40.2533 246.03C39.88 245.383 39.6933 244.477 39.6933 243.31ZM43.8233 243.31C43.8233 242.73 43.7833 242.24 43.7033 241.84C43.63 241.433 43.4733 241.107 43.2333 240.86C43 240.613 42.66 240.49 42.2133 240.49C41.76 240.49 41.4133 240.613 41.1733 240.86C40.94 241.107 40.7833 241.433 40.7033 241.84C40.63 242.24 40.5933 242.73 40.5933 243.31C40.5933 243.91 40.63 244.413 40.7033 244.82C40.7833 245.227 40.94 245.553 41.1733 245.8C41.4133 246.047 41.76 246.17 42.2133 246.17C42.66 246.17 43 246.047 43.2333 245.8C43.4733 245.553 43.63 245.227 43.7033 244.82C43.7833 244.413 43.8233 243.91 43.8233 243.31Z" fill="#9C9C9C"/>
<path d="M25.6351 275.31C25.6351 274.163 25.8218 273.27 26.1951 272.63C26.5685 271.983 27.2218 271.66 28.1551 271.66C29.0818 271.66 29.7318 271.983 30.1051 272.63C30.4785 273.27 30.6651 274.163 30.6651 275.31C30.6651 276.477 30.4785 277.383 30.1051 278.03C29.7318 278.677 29.0818 279 28.1551 279C27.2218 279 26.5685 278.677 26.1951 278.03C25.8218 277.383 25.6351 276.477 25.6351 275.31ZM29.7651 275.31C29.7651 274.73 29.7251 274.24 29.6451 273.84C29.5718 273.433 29.4151 273.107 29.1751 272.86C28.9418 272.613 28.6018 272.49 28.1551 272.49C27.7018 272.49 27.3551 272.613 27.1151 272.86C26.8818 273.107 26.7251 273.433 26.6451 273.84C26.5718 274.24 26.5351 274.73 26.5351 275.31C26.5351 275.91 26.5718 276.413 26.6451 276.82C26.7251 277.227 26.8818 277.553 27.1151 277.8C27.3551 278.047 27.7018 278.17 28.1551 278.17C28.6018 278.17 28.9418 278.047 29.1751 277.8C29.4151 277.553 29.5718 277.227 29.6451 276.82C29.7251 276.413 29.7651 275.91 29.7651 275.31ZM31.7144 275.31C31.7144 274.163 31.9011 273.27 32.2744 272.63C32.6478 271.983 33.3011 271.66 34.2344 271.66C35.1611 271.66 35.8111 271.983 36.1844 272.63C36.5578 273.27 36.7444 274.163 36.7444 275.31C36.7444 276.477 36.5578 277.383 36.1844 278.03C35.8111 278.677 35.1611 279 34.2344 279C33.3011 279 32.6478 278.677 32.2744 278.03C31.9011 277.383 31.7144 276.477 31.7144 275.31ZM35.8444 275.31C35.8444 274.73 35.8044 274.24 35.7244 273.84C35.6511 273.433 35.4944 273.107 35.2544 272.86C35.0211 272.613 34.6811 272.49 34.2344 272.49C33.7811 272.49 33.4344 272.613 33.1944 272.86C32.9611 273.107 32.8044 273.433 32.7244 273.84C32.6511 274.24 32.6144 274.73 32.6144 275.31C32.6144 275.91 32.6511 276.413 32.7244 276.82C32.8044 277.227 32.9611 277.553 33.1944 277.8C33.4344 278.047 33.7811 278.17 34.2344 278.17C34.6811 278.17 35.0211 278.047 35.2544 277.8C35.4944 277.553 35.6511 277.227 35.7244 276.82C35.8044 276.413 35.8444 275.91 35.8444 275.31ZM38.2337 279.06C38.0604 279.06 37.9137 279 37.7937 278.88C37.6737 278.76 37.6137 278.613 37.6137 278.44C37.6137 278.267 37.6737 278.12 37.7937 278C37.9137 277.88 38.0604 277.82 38.2337 277.82C38.4004 277.82 38.5404 277.88 38.6537 278C38.7737 278.12 38.8337 278.267 38.8337 278.44C38.8337 278.613 38.7737 278.76 38.6537 278.88C38.5404 279 38.4004 279.06 38.2337 279.06ZM39.6933 275.31C39.6933 274.163 39.88 273.27 40.2533 272.63C40.6267 271.983 41.28 271.66 42.2133 271.66C43.14 271.66 43.79 271.983 44.1633 272.63C44.5367 273.27 44.7233 274.163 44.7233 275.31C44.7233 276.477 44.5367 277.383 44.1633 278.03C43.79 278.677 43.14 279 42.2133 279C41.28 279 40.6267 278.677 40.2533 278.03C39.88 277.383 39.6933 276.477 39.6933 275.31ZM43.8233 275.31C43.8233 274.73 43.7833 274.24 43.7033 273.84C43.63 273.433 43.4733 273.107 43.2333 272.86C43 272.613 42.66 272.49 42.2133 272.49C41.76 272.49 41.4133 272.613 41.1733 272.86C40.94 273.107 40.7833 273.433 40.7033 273.84C40.63 274.24 40.5933 274.73 40.5933 275.31C40.5933 275.91 40.63 276.413 40.7033 276.82C40.7833 277.227 40.94 277.553 41.1733 277.8C41.4133 278.047 41.76 278.17 42.2133 278.17C42.66 278.17 43 278.047 43.2333 277.8C43.4733 277.553 43.63 277.227 43.7033 276.82C43.7833 276.413 43.8233 275.91 43.8233 275.31Z" fill="#9C9C9C"/>
</svg>
