<svg width="200" height="200" viewBox="0 0 200 200" fill="none" xmlns="http://www.w3.org/2000/svg">
<path d="M100 0C80.2219 0 60.8879 5.8649 44.443 16.853C27.9981 27.8412 15.1809 43.459 7.61209 61.7316C0.0433284 80.0042 -1.937 100.111 1.92152 119.509C5.78004 138.907 15.3041 156.725 29.2894 170.711C43.2746 184.696 61.0929 194.22 80.491 198.078C99.8891 201.937 119.996 199.957 138.268 192.388C156.541 184.819 172.159 172.002 183.147 155.557C194.135 139.112 200 119.778 200 100C199.972 73.4869 189.427 48.0678 170.68 29.3202C151.932 10.5727 126.513 0.0279983 100 0ZM100 184.615C83.2647 184.615 66.9052 179.653 52.9902 170.355C39.0753 161.057 28.23 147.842 21.8256 132.381C15.4213 116.919 13.7456 99.9061 17.0105 83.4923C20.2754 67.0786 28.3343 52.0016 40.1679 40.1679C52.0016 28.3342 67.0786 20.2754 83.4924 17.0105C99.9062 13.7456 116.919 15.4212 132.381 21.8256C147.842 28.2299 161.057 39.0753 170.355 52.9902C179.653 66.9051 184.615 83.2646 184.615 100C184.59 122.434 175.667 143.941 159.804 159.804C143.941 175.667 122.434 184.59 100 184.615ZM138.462 119.231C138.462 126.371 135.625 133.219 130.576 138.268C125.527 143.317 118.679 146.154 111.538 146.154H107.692V153.846C107.692 155.886 106.882 157.843 105.439 159.285C103.997 160.728 102.04 161.538 100 161.538C97.9599 161.538 96.0033 160.728 94.5607 159.285C93.1182 157.843 92.3077 155.886 92.3077 153.846V146.154H76.9231C74.883 146.154 72.9264 145.343 71.4838 143.901C70.0412 142.458 69.2308 140.502 69.2308 138.462C69.2308 136.421 70.0412 134.465 71.4838 133.022C72.9264 131.58 74.883 130.769 76.9231 130.769H111.538C114.599 130.769 117.534 129.554 119.697 127.39C121.861 125.226 123.077 122.291 123.077 119.231C123.077 116.171 121.861 113.236 119.697 111.072C117.534 108.908 114.599 107.692 111.538 107.692H88.4616C81.3211 107.692 74.4731 104.856 69.4241 99.8067C64.375 94.7576 61.5385 87.9097 61.5385 80.7692C61.5385 73.6288 64.375 66.7808 69.4241 61.7317C74.4731 56.6827 81.3211 53.8461 88.4616 53.8461H92.3077V46.1538C92.3077 44.1137 93.1182 42.1571 94.5607 40.7146C96.0033 39.272 97.9599 38.4615 100 38.4615C102.04 38.4615 103.997 39.272 105.439 40.7146C106.882 42.1571 107.692 44.1137 107.692 46.1538V53.8461H123.077C125.117 53.8461 127.074 54.6566 128.516 56.0992C129.959 57.5418 130.769 59.4983 130.769 61.5384C130.769 63.5786 129.959 65.5351 128.516 66.9777C127.074 68.4203 125.117 69.2308 123.077 69.2308H88.4616C85.4014 69.2308 82.4665 70.4464 80.3026 72.6103C78.1388 74.7742 76.9231 77.709 76.9231 80.7692C76.9231 83.8294 78.1388 86.7643 80.3026 88.9281C82.4665 91.092 85.4014 92.3077 88.4616 92.3077H111.538C118.679 92.3077 125.527 95.1442 130.576 100.193C135.625 105.242 138.462 112.09 138.462 119.231Z" fill="#7A3BFF"/>
</svg>
