<svg width="51" height="78" viewBox="0 0 51 78" fill="none" xmlns="http://www.w3.org/2000/svg">
<path d="M40.545 36.0028C42.6954 33.8916 44.2059 31.195 44.8967 28.2338C45.5875 25.2726 45.4296 22.1714 44.4417 19.2991C43.4538 16.4268 41.6775 13.9042 39.3241 12.0315C36.9707 10.1588 34.1393 9.01465 31.1667 8.73528V2.88889C31.1667 2.12271 30.8681 1.38791 30.3368 0.846136C29.8054 0.304364 29.0848 0 28.3333 0C27.5819 0 26.8612 0.304364 26.3298 0.846136C25.7985 1.38791 25.5 2.12271 25.5 2.88889V8.66667H19.8333V2.88889C19.8333 2.12271 19.5348 1.38791 19.0035 0.846136C18.4721 0.304364 17.7514 0 17 0C16.2485 0 15.5279 0.304364 14.9965 0.846136C14.4652 1.38791 14.1667 2.12271 14.1667 2.88889V8.66667H2.83333C2.08189 8.66667 1.36122 8.97103 0.829864 9.5128C0.298511 10.0546 0 10.7894 0 11.5556C0 12.3217 0.298511 13.0565 0.829864 13.5983C1.36122 14.1401 2.08189 14.4444 2.83333 14.4444H5.66666V63.5556H2.83333C2.08189 63.5556 1.36122 63.8599 0.829864 64.4017C0.298511 64.9435 0 65.6783 0 66.4444C0 67.2106 0.298511 67.9454 0.829864 68.4872C1.36122 69.029 2.08189 69.3333 2.83333 69.3333H14.1667V75.1111C14.1667 75.8773 14.4652 76.6121 14.9965 77.1539C15.5279 77.6956 16.2485 78 17 78C17.7514 78 18.4721 77.6956 19.0035 77.1539C19.5348 76.6121 19.8333 75.8773 19.8333 75.1111V69.3333H25.5V75.1111C25.5 75.8773 25.7985 76.6121 26.3298 77.1539C26.8612 77.6956 27.5819 78 28.3333 78C29.0848 78 29.8054 77.6956 30.3368 77.1539C30.8681 76.6121 31.1667 75.8773 31.1667 75.1111V69.3333H34C37.9294 69.3333 41.7374 67.9454 44.7764 65.4057C47.8154 62.866 49.8977 59.3313 50.6692 55.4029C51.4406 51.4744 50.8535 47.3948 49.0077 43.8579C47.1619 40.321 44.1715 37.5452 40.545 36.0028ZM39.6666 24.5556C39.6666 27.2372 38.6219 29.809 36.7621 31.7052C34.9024 33.6014 32.38 34.6667 29.75 34.6667H11.3333V14.4444H29.75C32.38 14.4444 34.9024 15.5097 36.7621 17.4059C38.6219 19.3021 39.6666 21.8739 39.6666 24.5556ZM34 63.5556H11.3333V40.4444H34C37.0058 40.4444 39.8884 41.6619 42.0139 43.829C44.1393 45.9961 45.3333 48.9353 45.3333 52C45.3333 55.0647 44.1393 58.0039 42.0139 60.171C39.8884 62.3381 37.0058 63.5556 34 63.5556Z" fill="#51D0FF"/>
</svg>
