<svg width="18" height="15" viewBox="0 0 18 15" fill="none" xmlns="http://www.w3.org/2000/svg">
<path d="M17.8499 5.00467L13.6496 0.204747C13.5934 0.14061 13.5242 0.0891758 13.4466 0.0538711C13.369 0.0185663 13.2848 0.000201554 13.1996 0H4.79898C4.71373 0.000201554 4.62949 0.0185663 4.55189 0.0538711C4.4743 0.0891758 4.40511 0.14061 4.34895 0.204747L0.148659 5.00467C0.0506701 5.11654 -0.00228059 5.26081 7.53692e-05 5.4095C0.00243133 5.55819 0.059926 5.7007 0.16141 5.80941L8.56199 14.8093C8.61813 14.8695 8.68606 14.9174 8.76155 14.9503C8.83703 14.9831 8.91846 15 9.00077 15C9.08308 15 9.16451 14.9831 9.24 14.9503C9.31548 14.9174 9.38341 14.8695 9.43955 14.8093L17.8401 5.80941C17.9412 5.70033 17.9982 5.55761 18 5.40892C18.0018 5.26023 17.9483 5.11617 17.8499 5.00467ZM16.0775 4.79992H12.8995L10.1994 1.19998H12.9273L16.0775 4.79992ZM4.99249 5.99991L7.2524 11.6496L1.97954 5.99991H4.99249ZM11.713 5.99991L8.99927 12.7843L6.28558 5.99991H11.713ZM6.5991 4.79992L8.99927 1.59973L11.3994 4.79992H6.5991ZM13.006 5.99991H16.019L10.7461 11.6496L13.006 5.99991ZM5.07125 1.19998H7.79919L5.099 4.79992H1.92103L5.07125 1.19998Z" fill="#51D0FF"/>
</svg>
