<svg width="36" height="34" viewBox="0 0 36 34" fill="none" xmlns="http://www.w3.org/2000/svg">
<path d="M17.6391 0C14.176 0 10.7907 0.997032 7.91122 2.86502C5.03177 4.733 2.78751 7.38804 1.46225 10.4944C0.136981 13.6007 -0.209769 17.0189 0.465846 20.3165C1.14146 23.6142 2.80909 26.6433 5.25786 29.0208C7.70664 31.3983 10.8266 33.0174 14.2231 33.6733C17.6196 34.3293 21.1403 33.9926 24.3397 32.7059C27.5392 31.4193 30.2738 29.2403 32.1978 26.4447C34.1218 23.6491 35.1487 20.3623 35.1487 17C35.1438 12.4928 33.2975 8.17153 30.0149 4.98444C26.7322 1.79735 22.2814 0.0047597 17.6391 0ZM17.6391 31.3846C14.7088 31.3846 11.8443 30.541 9.40781 28.9604C6.97135 27.3798 5.07237 25.1332 3.95099 22.5048C2.82961 19.8763 2.53621 16.984 3.10788 14.1937C3.67955 11.4034 5.09063 8.84026 7.16267 6.82854C9.2347 4.81682 11.8746 3.44681 14.7486 2.89178C17.6226 2.33675 20.6016 2.62161 23.3089 3.71035C26.0161 4.79908 28.33 6.6428 29.958 9.00833C31.586 11.3739 32.4549 14.155 32.4549 17C32.4505 20.8137 30.8881 24.47 28.1105 27.1667C25.333 29.8634 21.5671 31.3803 17.6391 31.3846ZM23.9796 17.3825C24.1048 17.5039 24.2042 17.6482 24.2719 17.8069C24.3397 17.9657 24.3746 18.1358 24.3746 18.3077C24.3746 18.4795 24.3397 18.6497 24.2719 18.8085C24.2042 18.9672 24.1048 19.1114 23.9796 19.2329L18.592 24.4636C18.4669 24.5852 18.3184 24.6817 18.1549 24.7475C17.9913 24.8133 17.8161 24.8472 17.6391 24.8472C17.4621 24.8472 17.2868 24.8133 17.1233 24.7475C16.9598 24.6817 16.8112 24.5852 16.6861 24.4636L11.2985 19.2329C11.0458 18.9875 10.9038 18.6547 10.9038 18.3077C10.9038 17.9607 11.0458 17.6279 11.2985 17.3825C11.5513 17.1371 11.8941 16.9993 12.2515 16.9993C12.6089 16.9993 12.9517 17.1371 13.2044 17.3825L16.2922 20.382V10.4615C16.2922 10.1147 16.4341 9.7821 16.6867 9.53686C16.9393 9.29162 17.2818 9.15384 17.6391 9.15384C17.9963 9.15384 18.3389 9.29162 18.5915 9.53686C18.8441 9.7821 18.986 10.1147 18.986 10.4615V20.382L22.0737 17.3825C22.1988 17.2609 22.3474 17.1645 22.5109 17.0986C22.6744 17.0328 22.8497 16.999 23.0267 16.999C23.2037 16.999 23.3789 17.0328 23.5424 17.0986C23.7059 17.1645 23.8545 17.2609 23.9796 17.3825Z" fill="#51D0FF"/>
</svg>
