<svg width="31" height="23" viewBox="0 0 31 23" fill="none" xmlns="http://www.w3.org/2000/svg">
<path d="M31 11.5C31 11.8389 30.8639 12.1639 30.6217 12.4035C30.3794 12.6432 30.0509 12.7778 29.7083 12.7778H1.29167C0.949095 12.7778 0.620555 12.6432 0.378321 12.4035C0.136086 12.1639 0 11.8389 0 11.5C0 11.1611 0.136086 10.8361 0.378321 10.5965C0.620555 10.3568 0.949095 10.2222 1.29167 10.2222H29.7083C30.0509 10.2222 30.3794 10.3568 30.6217 10.5965C30.8639 10.8361 31 11.1611 31 11.5ZM1.29167 2.55556H29.7083C30.0509 2.55556 30.3794 2.42093 30.6217 2.1813C30.8639 1.94167 31 1.61667 31 1.27778C31 0.93889 30.8639 0.613882 30.6217 0.374253C30.3794 0.134623 30.0509 0 29.7083 0H1.29167C0.949095 0 0.620555 0.134623 0.378321 0.374253C0.136086 0.613882 0 0.93889 0 1.27778C0 1.61667 0.136086 1.94167 0.378321 2.1813C0.620555 2.42093 0.949095 2.55556 1.29167 2.55556ZM29.7083 20.4444H1.29167C0.949095 20.4444 0.620555 20.5791 0.378321 20.8187C0.136086 21.0583 0 21.3833 0 21.7222C0 22.0611 0.136086 22.3861 0.378321 22.6257C0.620555 22.8654 0.949095 23 1.29167 23H29.7083C30.0509 23 30.3794 22.8654 30.6217 22.6257C30.8639 22.3861 31 22.0611 31 21.7222C31 21.3833 30.8639 21.0583 30.6217 20.8187C30.3794 20.5791 30.0509 20.4444 29.7083 20.4444Z" fill="#51D0FF"/>
</svg>
