<svg width="42" height="40" viewBox="0 0 42 40" fill="none" xmlns="http://www.w3.org/2000/svg">
<path d="M42 20C42 20.442 41.8156 20.866 41.4874 21.1785C41.1592 21.4911 40.7141 21.6667 40.25 21.6667H22.75V38.3333C22.75 38.7754 22.5656 39.1993 22.2374 39.5118C21.9093 39.8244 21.4641 40 21 40C20.5359 40 20.0908 39.8244 19.7626 39.5118C19.4344 39.1993 19.25 38.7754 19.25 38.3333V21.6667H1.75C1.28587 21.6667 0.840752 21.4911 0.512563 21.1785C0.184375 20.866 0 20.442 0 20C0 19.558 0.184375 19.134 0.512563 18.8215C0.840752 18.5089 1.28587 18.3333 1.75 18.3333H19.25V1.66667C19.25 1.22464 19.4344 0.800716 19.7626 0.488156C20.0908 0.175595 20.5359 0 21 0C21.4641 0 21.9093 0.175595 22.2374 0.488156C22.5656 0.800716 22.75 1.22464 22.75 1.66667V18.3333H40.25C40.7141 18.3333 41.1592 18.5089 41.4874 18.8215C41.8156 19.134 42 19.558 42 20Z" fill="#51D0FF"/>
</svg>
