<svg width="40" height="30" viewBox="0 0 40 30" fill="none" xmlns="http://www.w3.org/2000/svg">
<path d="M34.1178 6.44809C32.266 4.39675 30.0651 2.77087 27.6421 1.66419C25.219 0.557518 22.6217 -0.008055 20 8.66663e-05H19.9285C8.94105 0.0415339 0 10.0658 0 22.3283V26.8421C0 27.6796 0.301019 28.4829 0.836836 29.0751C1.37265 29.6673 2.09938 30 2.85714 30H37.1428C37.9005 30 38.6273 29.6673 39.1631 29.0751C39.6989 28.4829 39.9999 27.6796 39.9999 26.8421V22.1053C40.0073 19.1949 39.491 16.3119 38.4812 13.6239C37.4714 10.936 35.9882 8.49677 34.1178 6.44809ZM37.1428 26.8421H18.5196L28.2982 11.9803C28.5212 11.6416 28.6134 11.2189 28.5545 10.8051C28.4956 10.3913 28.2903 10.0203 27.9839 9.77374C27.6775 9.5272 27.295 9.42529 26.9206 9.49043C26.5462 9.55557 26.2105 9.78244 25.9874 10.1211L14.9857 26.8421H2.85714V22.3283C2.85714 21.7204 2.88392 21.1204 2.93392 20.5263H7.14284C7.52172 20.5263 7.88509 20.36 8.15299 20.0639C8.4209 19.7678 8.57141 19.3662 8.57141 18.9474C8.57141 18.5286 8.4209 18.127 8.15299 17.8309C7.88509 17.5348 7.52172 17.3685 7.14284 17.3685H3.44107C5.28392 9.69874 11.2982 3.90007 18.5714 3.22508V7.8948C18.5714 8.31356 18.7219 8.71517 18.9898 9.01128C19.2577 9.30739 19.6211 9.47374 20 9.47374C20.3788 9.47374 20.7422 9.30739 21.0101 9.01128C21.278 8.71517 21.4285 8.31356 21.4285 7.8948V3.2231C24.9726 3.55275 28.3365 5.09079 31.0555 7.62472C33.7745 10.1587 35.7144 13.5634 36.6071 17.3685H32.8571C32.4782 17.3685 32.1148 17.5348 31.8469 17.8309C31.579 18.127 31.4285 18.5286 31.4285 18.9474C31.4285 19.3662 31.579 19.7678 31.8469 20.0639C32.1148 20.36 32.4782 20.5263 32.8571 20.5263H37.0839C37.1214 21.0494 37.1428 21.5744 37.1428 22.1053V26.8421Z" fill="#51D0FF"/>
</svg>
