<svg width="47" height="42" viewBox="0 0 47 42" fill="none" xmlns="http://www.w3.org/2000/svg">
<path d="M3.13333 17.4994H7.83333V31.4997H4.7C4.28449 31.4997 3.88601 31.6841 3.5922 32.0123C3.29839 32.3405 3.13333 32.7856 3.13333 33.2498C3.13333 33.7139 3.29839 34.159 3.5922 34.4872C3.88601 34.8154 4.28449 34.9998 4.7 34.9998H42.3C42.7155 34.9998 43.114 34.8154 43.4078 34.4872C43.7016 34.159 43.8667 33.7139 43.8667 33.2498C43.8667 32.7856 43.7016 32.3405 43.4078 32.0123C43.114 31.6841 42.7155 31.4997 42.3 31.4997H39.1667V17.4994H43.8667C44.2075 17.499 44.539 17.3744 44.8108 17.1446C45.0825 16.9147 45.2798 16.5921 45.3726 16.2257C45.4654 15.8593 45.4487 15.4691 45.325 15.1143C45.2013 14.7595 44.9774 14.4594 44.6872 14.2596L24.3205 0.259231C24.0737 0.0897346 23.7897 0 23.5 0C23.2103 0 22.9263 0.0897346 22.6795 0.259231L2.31279 14.2596C2.02262 14.4594 1.79871 14.7595 1.67502 15.1143C1.55133 15.4691 1.53462 15.8593 1.62742 16.2257C1.72022 16.5921 1.91746 16.9147 2.18923 17.1446C2.461 17.3744 2.79246 17.499 3.13333 17.4994ZM10.9667 17.4994H17.2333V31.4997H10.9667V17.4994ZM26.6333 17.4994V31.4997H20.3667V17.4994H26.6333ZM36.0333 31.4997H29.7667V17.4994H36.0333V31.4997ZM23.5 3.80307L38.3324 13.9993H8.66758L23.5 3.80307ZM47 40.25C47 40.7141 46.8349 41.1592 46.5411 41.4874C46.2473 41.8156 45.8488 42 45.4333 42H1.56667C1.15116 42 0.752673 41.8156 0.458866 41.4874C0.165059 41.1592 0 40.7141 0 40.25C0 39.7858 0.165059 39.3407 0.458866 39.0125C0.752673 38.6843 1.15116 38.4999 1.56667 38.4999H45.4333C45.8488 38.4999 46.2473 38.6843 46.5411 39.0125C46.8349 39.3407 47 39.7858 47 40.25Z" fill="#51D0FF"/>
</svg>
