<svg width="27" height="30" viewBox="0 0 27 30" fill="none" xmlns="http://www.w3.org/2000/svg">
<path d="M25.8638 20.7403C25.9958 20.9789 26.0317 21.2623 25.9635 21.5284C25.8954 21.7945 25.7287 22.0217 25.5 22.1601L13.5 29.448C13.3471 29.5408 13.1733 29.5897 12.9963 29.5897C12.8192 29.5897 12.6454 29.5408 12.4925 29.448L0.4925 22.1601C0.267117 22.0191 0.104148 21.7914 0.0388751 21.5262C-0.0263974 21.261 0.0112804 20.9797 0.143751 20.7432C0.276221 20.5067 0.492823 20.3341 0.746661 20.2627C1.0005 20.1912 1.27114 20.2268 1.5 20.3616L13 27.3436L24.5 20.3616C24.7292 20.2241 25.0014 20.1867 25.257 20.2577C25.5126 20.3287 25.7308 20.5022 25.8638 20.7403ZM24.5 14.1148L13 21.0969L1.5 14.1148C1.27231 13.9968 1.00997 13.9735 0.766382 14.0498C0.522796 14.126 0.31627 14.296 0.188841 14.5252C0.061412 14.7544 0.0226569 15.0255 0.0804636 15.2834C0.13827 15.5413 0.288294 15.7666 0.5 15.9134L12.5 23.2012C12.6529 23.2941 12.8267 23.343 13.0037 23.343C13.1808 23.343 13.3546 23.2941 13.5075 23.2012L25.5075 15.9134C25.6228 15.8455 25.7239 15.7544 25.8051 15.6455C25.8863 15.5366 25.9459 15.412 25.9804 15.2789C26.015 15.1458 26.0238 15.0069 26.0064 14.8702C25.9889 14.7335 25.9456 14.6018 25.8789 14.4827C25.8122 14.3636 25.7234 14.2595 25.6177 14.1764C25.5121 14.0933 25.3916 14.0329 25.2633 13.9987C25.135 13.9645 25.0015 13.9571 24.8705 13.977C24.7394 13.997 24.6135 14.0438 24.5 14.1148ZM0 8.76736C0.000398802 8.58501 0.046794 8.40596 0.134542 8.24814C0.222291 8.09032 0.348314 7.95927 0.5 7.86809L12.5 0.580226C12.6529 0.487392 12.8267 0.438477 13.0037 0.438477C13.1808 0.438477 13.3546 0.487392 13.5075 0.580226L25.5075 7.86809C25.6585 7.95978 25.7837 8.09106 25.8707 8.24884C25.9578 8.40663 26.0036 8.58541 26.0036 8.76736C26.0036 8.94932 25.9578 9.12809 25.8707 9.28588C25.7837 9.44366 25.6585 9.57494 25.5075 9.66663L13.5075 16.9545C13.3546 17.0473 13.1808 17.0962 13.0037 17.0962C12.8267 17.0962 12.6529 17.0473 12.5 16.9545L0.5 9.66663C0.348314 9.57545 0.222291 9.4444 0.134542 9.28658C0.046794 9.12876 0.000398802 8.94971 0 8.76736ZM2.985 8.76736L13 14.8501L23.015 8.76736L13 2.6846L2.985 8.76736Z" fill="#51d0ff"/>
</svg>
