<svg width="37" height="50" viewBox="0 0 37 50" fill="none" xmlns="http://www.w3.org/2000/svg">
<path d="M36.5081 14.024L24.7353 0.562501C24.579 0.383973 24.3935 0.242408 24.1893 0.145892C23.9852 0.0493766 23.7664 -0.00019805 23.5455 5.94612e-07H3.36364C2.47154 5.94612e-07 1.61599 0.405219 0.985186 1.12651C0.354382 1.84781 0 2.82609 0 3.84615V46.1538C0 47.1739 0.354382 48.1522 0.985186 48.8735C1.61599 49.5948 2.47154 50 3.36364 50H33.6364C34.5285 50 35.384 49.5948 36.0148 48.8735C36.6456 48.1522 37 47.1739 37 46.1538V15.3846C37.0002 15.132 36.9568 14.8818 36.8724 14.6484C36.788 14.4149 36.6642 14.2028 36.5081 14.024ZM25.2273 6.5649L31.2587 13.4615H25.2273V6.5649ZM33.6364 46.1538H3.36364V3.84615H21.8636V15.3846C21.8636 15.8946 22.0408 16.3838 22.3562 16.7444C22.6716 17.1051 23.0994 17.3077 23.5455 17.3077H33.6364V46.1538ZM24.7353 27.4856C24.8916 27.6642 25.0155 27.8764 25.1001 28.1098C25.1847 28.3433 25.2282 28.5935 25.2282 28.8462C25.2282 29.0988 25.1847 29.349 25.1001 29.5825C25.0155 29.8159 24.8916 30.0281 24.7353 30.2067C24.5791 30.3854 24.3936 30.5271 24.1894 30.6238C23.9853 30.7205 23.7664 30.7703 23.5455 30.7703C23.3245 30.7703 23.1057 30.7205 22.9015 30.6238C22.6973 30.5271 22.5118 30.3854 22.3556 30.2067L20.1818 27.7187V38.4615C20.1818 38.9716 20.0046 39.4607 19.6892 39.8214C19.3738 40.182 18.946 40.3846 18.5 40.3846C18.054 40.3846 17.6262 40.182 17.3108 39.8214C16.9954 39.4607 16.8182 38.9716 16.8182 38.4615V27.7187L14.6444 30.2067C14.4882 30.3854 14.3027 30.5271 14.0985 30.6238C13.8943 30.7205 13.6755 30.7703 13.4545 30.7703C13.2336 30.7703 13.0147 30.7205 12.8106 30.6238C12.6064 30.5271 12.4209 30.3854 12.2647 30.2067C12.1084 30.0281 11.9844 29.8159 11.8999 29.5825C11.8153 29.349 11.7718 29.0988 11.7718 28.8462C11.7718 28.5935 11.8153 28.3433 11.8999 28.1098C11.9844 27.8764 12.1084 27.6642 12.2647 27.4856L17.3101 21.7163C17.4663 21.5375 17.6518 21.3957 17.856 21.2989C18.0601 21.2021 18.279 21.1523 18.5 21.1523C18.721 21.1523 18.9399 21.2021 19.144 21.2989C19.3482 21.3957 19.5337 21.5375 19.6899 21.7163L24.7353 27.4856Z" fill="#51D0FF"/>
</svg>
