<svg width="21" height="18" viewBox="0 0 21 18" fill="none" xmlns="http://www.w3.org/2000/svg">
<path d="M20.781 8.05543L13.2808 0.229524C13.176 0.120011 13.0424 0.0453976 12.8969 0.0151191C12.7514 -0.0151595 12.6006 0.000257113 12.4635 0.059419C12.3264 0.118581 12.2093 0.218831 12.1268 0.34749C12.0443 0.47615 12.0002 0.62744 12.0002 0.782228V4.72942C9.56825 4.94659 6.88226 6.18895 4.67253 8.14445C2.01186 10.5 0.355262 13.5355 0.00744315 16.6913C-0.0197376 16.9367 0.0279387 17.1847 0.143687 17.4001C0.259435 17.6156 0.437358 17.7874 0.652134 17.8913C0.86691 17.9951 1.1076 18.0256 1.33994 17.9784C1.57228 17.9312 1.78444 17.8088 1.94623 17.6285C2.9775 16.483 6.64695 12.8605 12.0002 12.5416V16.434C12.0002 16.5888 12.0443 16.7401 12.1268 16.8688C12.2093 16.9974 12.3264 17.0977 12.4635 17.1568C12.6006 17.216 12.7514 17.2314 12.8969 17.2011C13.0424 17.1709 13.176 17.0963 13.2808 16.9867L20.781 9.16084C20.9212 9.01413 21 8.81536 21 8.60813C21 8.40091 20.9212 8.20214 20.781 8.05543ZM13.5002 14.5451V11.7385C13.5002 11.5309 13.4212 11.3319 13.2805 11.1851C13.1399 11.0384 12.9491 10.9559 12.7502 10.9559C10.1176 10.9559 7.55353 11.673 5.1291 13.0885C3.89434 13.8126 2.74388 14.6831 1.7006 15.6828C2.24436 13.3506 3.61501 11.133 5.64286 9.3379C7.81978 7.41175 10.4767 6.26036 12.7502 6.26036C12.9491 6.26036 13.1399 6.17791 13.2805 6.03115C13.4212 5.88438 13.5002 5.68533 13.5002 5.47777V2.67218L19.19 8.60813L13.5002 14.5451Z" fill="#51D0FF"/>
</svg>
