<svg width="41" height="51" viewBox="0 0 41 51" fill="none" xmlns="http://www.w3.org/2000/svg">
<path d="M40.4549 14.3045L27.4094 0.573751C27.2362 0.391652 27.0306 0.247256 26.8044 0.14881C26.5782 0.0503641 26.3357 -0.000202011 26.0909 6.06505e-07H3.72727C2.73874 6.06505e-07 1.79069 0.413323 1.09169 1.14904C0.392694 1.88476 0 2.88261 0 3.92308V47.0769C0 48.1174 0.392694 49.1152 1.09169 49.851C1.79069 50.5867 2.73874 51 3.72727 51H37.2727C38.2613 51 39.2093 50.5867 39.9083 49.851C40.6073 49.1152 41 48.1174 41 47.0769V15.6923C41.0002 15.4346 40.9522 15.1795 40.8586 14.9413C40.7651 14.7032 40.6279 14.4868 40.4549 14.3045ZM27.9545 6.6962L34.638 13.7308H27.9545V6.6962ZM37.2727 47.0769H3.72727V3.92308H24.2273V15.6923C24.2273 16.2125 24.4236 16.7115 24.7731 17.0793C25.1226 17.4472 25.5966 17.6538 26.0909 17.6538H37.2727V47.0769ZM27.4094 31.9584C27.5827 32.1405 27.7202 32.3569 27.814 32.595C27.9077 32.8331 27.956 33.0884 27.956 33.3462C27.956 33.6039 27.9077 33.8592 27.814 34.0973C27.7202 34.3354 27.5827 34.5518 27.4094 34.7339L21.8185 40.6186C21.6454 40.8009 21.4399 40.9456 21.2137 41.0443C20.9874 41.143 20.7449 41.1938 20.5 41.1938C20.2551 41.1938 20.0126 41.143 19.7863 41.0443C19.5601 40.9456 19.3546 40.8009 19.1815 40.6186L13.5906 34.7339C13.2409 34.3659 13.0444 33.8667 13.0444 33.3462C13.0444 32.8256 13.2409 32.3264 13.5906 31.9584C13.9403 31.5903 14.4145 31.3835 14.9091 31.3835C15.4036 31.3835 15.8779 31.5903 16.2276 31.9584L18.6364 34.4961V23.5385C18.6364 23.0182 18.8327 22.5193 19.1822 22.1514C19.5317 21.7836 20.0057 21.5769 20.5 21.5769C20.9943 21.5769 21.4683 21.7836 21.8178 22.1514C22.1673 22.5193 22.3636 23.0182 22.3636 23.5385V34.4961L24.7724 31.9584C24.9455 31.776 25.151 31.6313 25.3772 31.5326C25.6035 31.4339 25.846 31.3831 26.0909 31.3831C26.3358 31.3831 26.5783 31.4339 26.8046 31.5326C27.0308 31.6313 27.2364 31.776 27.4094 31.9584Z" fill="#51D0FF"/>
</svg>
