<svg width="21" height="17" viewBox="0 0 21 17" fill="none" xmlns="http://www.w3.org/2000/svg">
<path d="M20.3 15.6399H18.9V7.78097C18.9 7.59273 18.8598 7.40653 18.782 7.23416C18.7041 7.06179 18.5903 6.907 18.4476 6.77958L11.4476 0.363235C11.4442 0.360335 11.441 0.357211 11.438 0.353884C11.1803 0.126178 10.8444 0 10.4961 0C10.1477 0 9.81185 0.126178 9.55412 0.353884L9.5445 0.363235L2.55237 6.77958C2.40975 6.907 2.2959 7.06179 2.21803 7.23416C2.14016 7.40653 2.09997 7.59273 2.1 7.78097V15.6399H0.7C0.514348 15.6399 0.336301 15.7115 0.205025 15.8391C0.0737498 15.9666 0 16.1396 0 16.3199C0 16.5003 0.0737498 16.6733 0.205025 16.8008C0.336301 16.9284 0.514348 17 0.7 17H20.3C20.4857 17 20.6637 16.9284 20.795 16.8008C20.9263 16.6733 21 16.5003 21 16.3199C21 16.1396 20.9263 15.9666 20.795 15.8391C20.6637 15.7115 20.4857 15.6399 20.3 15.6399ZM3.5 7.78097L3.50962 7.77247L10.5 1.35867L17.4912 7.77077L17.5009 7.77927V15.6399H13.3V11.5595C13.3 11.1988 13.1525 10.8529 12.8899 10.5978C12.6274 10.3427 12.2713 10.1994 11.9 10.1994H9.1C8.7287 10.1994 8.3726 10.3427 8.11005 10.5978C7.8475 10.8529 7.7 11.1988 7.7 11.5595V15.6399H3.5V7.78097ZM11.9 15.6399H9.1V11.5595H11.9V15.6399Z" fill="#51D0FF"/>
</svg>
