<svg width="17" height="15" viewBox="0 0 17 15" fill="none" xmlns="http://www.w3.org/2000/svg">
<path d="M15.64 2.72727H2.04C1.85965 2.72727 1.68669 2.65544 1.55917 2.52757C1.43164 2.39971 1.36 2.22628 1.36 2.04545C1.36 1.86463 1.43164 1.6912 1.55917 1.56334C1.68669 1.43547 1.85965 1.36364 2.04 1.36364H13.6C13.7803 1.36364 13.9533 1.2918 14.0808 1.16394C14.2084 1.03607 14.28 0.862648 14.28 0.681818C14.28 0.500989 14.2084 0.327566 14.0808 0.1997C13.9533 0.0718343 13.7803 0 13.6 0H2.04C1.49896 0 0.980076 0.215503 0.597502 0.5991C0.214928 0.982697 0 1.50297 0 2.04545V12.9545C0 13.497 0.214928 14.0173 0.597502 14.4009C0.980076 14.7845 1.49896 15 2.04 15H15.64C16.0007 15 16.3466 14.8563 16.6017 14.6006C16.8567 14.3449 17 13.998 17 13.6364V4.09091C17 3.72925 16.8567 3.3824 16.6017 3.12667C16.3466 2.87094 16.0007 2.72727 15.64 2.72727ZM15.64 13.6364H2.04C1.85965 13.6364 1.68669 13.5645 1.55917 13.4367C1.43164 13.3088 1.36 13.1354 1.36 12.9545V3.97415C1.57834 4.05175 1.80834 4.09125 2.04 4.09091H15.64V13.6364ZM11.56 8.52273C11.56 8.32045 11.6198 8.12272 11.7319 7.95453C11.844 7.78634 12.0033 7.65526 12.1897 7.57785C12.376 7.50044 12.5811 7.48019 12.779 7.51965C12.9769 7.55911 13.1586 7.65652 13.3012 7.79955C13.4439 7.94258 13.541 8.12481 13.5804 8.3232C13.6198 8.52159 13.5996 8.72723 13.5224 8.91411C13.4452 9.10099 13.3144 9.26071 13.1467 9.37309C12.9789 9.48547 12.7817 9.54545 12.58 9.54545C12.3095 9.54545 12.05 9.4377 11.8588 9.2459C11.6675 9.05411 11.56 8.79397 11.56 8.52273Z" fill="#51D0FF"/>
</svg>
