<svg width="80" height="80" viewBox="0 0 80 80" fill="none" xmlns="http://www.w3.org/2000/svg">
<path d="M69.0292 64.3208C69.6513 64.9455 70.0005 65.7913 70.0005 66.6729C70.0005 67.5546 69.6513 68.4003 69.0292 69.025C68.575 69.4708 57.8417 80 40 80C24.4208 80 13.1125 70.6667 6.66667 63.3958V73.3333C6.66667 74.2174 6.31548 75.0652 5.69035 75.6904C5.06523 76.3155 4.21739 76.6667 3.33333 76.6667C2.44928 76.6667 1.60143 76.3155 0.976311 75.6904C0.35119 75.0652 0 74.2174 0 73.3333V53.3333C0 52.4493 0.35119 51.6014 0.976311 50.9763C1.60143 50.3512 2.44928 50 3.33333 50H23.3333C24.2174 50 25.0652 50.3512 25.6904 50.9763C26.3155 51.6014 26.6667 52.4493 26.6667 53.3333C26.6667 54.2174 26.3155 55.0652 25.6904 55.6904C25.0652 56.3155 24.2174 56.6667 23.3333 56.6667H9.76667C14.9 63.0625 25.4167 73.3333 40 73.3333C55 73.3333 64.225 64.3917 64.3167 64.3C64.9445 63.6781 65.7935 63.331 66.6772 63.3349C67.5609 63.3388 68.4069 63.6934 69.0292 64.3208ZM76.6667 3.33333C75.7826 3.33333 74.9348 3.68452 74.3096 4.30964C73.6845 4.93477 73.3333 5.78261 73.3333 6.66667V16.6042C66.8875 9.33333 55.5792 0 40 0C22.1583 0 11.425 10.5292 10.975 10.975C10.3484 11.5994 9.99554 12.4471 9.99398 13.3316C9.99242 14.2162 10.3423 15.0651 10.9667 15.6917C11.591 16.3182 12.4387 16.6711 13.3233 16.6727C14.2078 16.6742 15.0568 16.3244 15.6833 15.7C15.775 15.6083 25 6.66667 40 6.66667C54.5833 6.66667 65.1 16.9375 70.2333 23.3333H56.6667C55.7826 23.3333 54.9348 23.6845 54.3096 24.3096C53.6845 24.9348 53.3333 25.7826 53.3333 26.6667C53.3333 27.5507 53.6845 28.3986 54.3096 29.0237C54.9348 29.6488 55.7826 30 56.6667 30H76.6667C77.5507 30 78.3986 29.6488 79.0237 29.0237C79.6488 28.3986 80 27.5507 80 26.6667V6.66667C80 5.78261 79.6488 4.93477 79.0237 4.30964C78.3986 3.68452 77.5507 3.33333 76.6667 3.33333Z" fill="#51D0FF"/>
</svg>
