<svg width="433" height="433" viewBox="0 0 433 433" fill="none" xmlns="http://www.w3.org/2000/svg">
<g clip-path="url(#clip0_66_440)">
<path d="M346.87 335.393C343.727 332.146 343.673 327.028 346.558 323.55C371.559 293.412 385.325 255.418 385.325 216.093C385.325 176.77 371.56 138.778 346.561 108.641C343.687 105.176 343.784 100.066 346.967 96.8829C350.35 93.5006 355.883 93.6015 358.955 97.2677C386.851 130.555 402.232 172.675 402.232 216.292C402.232 259.812 386.919 301.842 359.139 335.095C355.988 338.867 350.288 338.925 346.87 335.393Z" fill="#51D0FF"/>
<path d="M97.2846 86.2793C100.513 89.4345 105.63 89.5005 109.103 86.6166C139.249 61.5854 177.267 47.8005 216.619 47.8005C255.969 47.8005 293.986 61.5846 324.132 86.6143C327.595 89.4903 332.707 89.3943 335.89 86.2108C339.272 82.8293 339.171 77.2978 335.506 74.226C302.218 46.3288 260.097 30.9473 216.48 30.9473C172.93 30.9473 130.872 46.2813 97.6087 74.097C93.8695 77.2239 93.7985 82.8726 97.2846 86.2793Z" fill="#51D0FF"/>
<path d="M86.3101 335.819C89.4528 332.571 89.5074 327.454 86.6221 323.975C61.6216 293.838 47.8553 255.844 47.8553 216.519C47.8553 177.196 61.6205 139.204 86.619 109.067C89.493 105.602 89.3958 100.492 86.2127 97.3087C82.8304 93.9264 77.2976 94.0273 74.2252 97.6934C46.3288 130.981 30.9478 173.101 30.9478 216.717C30.9478 260.238 46.261 302.268 74.0407 335.521C77.1918 339.293 82.8921 339.351 86.3101 335.819Z" fill="#51D0FF"/>
<path d="M335.795 346.64C332.566 343.485 327.449 343.419 323.976 346.303C293.83 371.334 255.812 385.119 216.461 385.119C177.11 385.119 139.093 371.335 108.948 346.305C105.484 343.429 100.373 343.525 97.1891 346.709C93.8076 350.09 93.9085 355.622 97.5737 358.694C130.861 386.591 172.982 401.972 216.599 401.972C260.149 401.972 302.207 386.638 335.471 358.823C339.21 355.696 339.281 350.047 335.795 346.64Z" fill="#51D0FF"/>
<g clip-path="url(#clip1_66_440)">
<mask id="mask0_66_440" style="mask-type:luminance" maskUnits="userSpaceOnUse" x="92" y="92" width="250" height="250">
<path d="M342 92H92V342H342V92Z" fill="white"/>
</mask>
<g mask="url(#mask0_66_440)">
<path d="M216.985 342.002C286.02 342.002 341.985 286.038 341.985 217.002C341.985 147.966 286.02 92.002 216.985 92.002C147.949 92.002 91.9849 147.966 91.9849 217.002C91.9849 286.038 147.949 342.002 216.985 342.002Z" fill="#7A3BFF"/>
<path d="M162.71 219.701L246.043 147.892C249.675 145.567 253.136 147.892 250.919 151.882L224.323 204.187H271.753C271.753 204.187 279.288 204.187 271.753 210.393L189.749 282.644C183.987 287.52 179.997 284.861 183.987 277.325L209.696 226.35H162.71C162.71 226.35 155.174 226.35 162.71 219.701Z" fill="white"/>
</g>
</g>
<path d="M216.46 433C173.644 432.992 131.792 420.289 96.1944 396.497C60.5973 372.704 32.8541 338.891 16.4726 299.333C0.0911354 259.774 -4.19295 216.247 4.16202 174.253C12.517 132.26 33.1358 93.6872 63.4115 63.4115C93.6872 33.1358 132.26 12.517 174.253 4.16202C216.247 -4.19295 259.774 0.0911354 299.333 16.4726C338.891 32.8541 372.704 60.5973 396.497 96.1944C420.289 131.792 432.992 173.644 433 216.46C433.005 244.898 427.408 273.059 416.528 299.333C405.647 325.607 389.697 349.48 369.589 369.589C349.48 389.697 325.607 405.647 299.333 416.528C273.059 427.408 244.898 433.005 216.46 433ZM216.46 16.8826C177.013 16.9139 138.461 28.639 105.676 50.5757C72.8916 72.5124 47.346 103.676 32.2684 140.128C17.1908 176.58 13.2581 216.683 20.9672 255.369C28.6764 294.056 47.6814 329.588 75.5802 357.476C103.479 385.364 139.019 404.355 177.708 412.048C216.398 419.742 256.5 415.794 292.945 400.701C329.391 385.609 360.545 360.051 382.468 327.258C404.392 294.464 416.102 255.907 416.118 216.46C416.128 190.242 410.97 164.278 400.939 140.055C390.908 115.831 376.201 93.8219 357.658 75.2863C339.115 56.7507 317.1 42.0519 292.872 32.0306C268.645 22.0092 242.679 16.8617 216.46 16.8826Z" fill="#7A3BFF"/>
</g>
<defs>
<clipPath id="clip0_66_440">
<rect width="433" height="433" fill="white"/>
</clipPath>
<clipPath id="clip1_66_440">
<rect width="250" height="250" fill="white" transform="translate(92 92)"/>
</clipPath>
</defs>
</svg>
