<svg width="433" height="433" viewBox="0 0 433 433" fill="none" xmlns="http://www.w3.org/2000/svg">
<path d="M346.87 335.394C343.727 332.146 343.673 327.028 346.558 323.55C371.558 293.413 385.325 255.419 385.325 216.094C385.325 176.771 371.559 138.778 346.561 108.642C343.687 105.177 343.784 100.067 346.967 96.8836V96.8836C350.35 93.5013 355.882 93.6022 358.955 97.2683C386.851 130.556 402.232 172.676 402.232 216.292C402.232 259.813 386.919 301.843 359.139 335.096C355.988 338.868 350.288 338.926 346.87 335.394V335.394Z" fill="#51D0FF"/>
<path d="M97.2847 86.2798C100.513 89.435 105.63 89.501 109.103 86.6171C139.249 61.586 177.267 47.801 216.619 47.801C255.969 47.801 293.986 61.5851 324.132 86.6149C327.596 89.4908 332.707 89.3948 335.89 86.2113V86.2113C339.272 82.8298 339.171 77.2983 335.506 74.2265C302.218 46.3293 260.098 30.9478 216.48 30.9478C172.93 30.9478 130.872 46.2818 97.6088 74.0975C93.8696 77.2244 93.7985 82.8731 97.2847 86.2798V86.2798Z" fill="#51D0FF"/>
<path d="M86.3101 335.819C89.4528 332.572 89.5074 327.454 86.6221 323.976C61.6216 293.839 47.8553 255.845 47.8553 216.52C47.8553 177.197 61.6205 139.204 86.619 109.067C89.493 105.603 89.3958 100.492 86.2128 97.3092V97.3092C82.8305 93.9269 77.2976 94.0279 74.2253 97.694C46.3288 130.981 30.9478 173.101 30.9478 216.718C30.9478 260.238 46.261 302.269 74.0408 335.521C77.1918 339.293 82.8921 339.351 86.3101 335.819V335.819Z" fill="#51D0FF"/>
<path d="M335.795 346.641C332.566 343.486 327.449 343.42 323.976 346.304C293.83 371.335 255.812 385.12 216.46 385.12C177.11 385.12 139.093 371.336 108.947 346.306C105.484 343.43 100.372 343.526 97.1889 346.709V346.709C93.8074 350.091 93.9083 355.622 97.5735 358.694C130.861 386.591 172.982 401.973 216.599 401.973C260.149 401.973 302.207 386.639 335.47 358.823C339.21 355.696 339.281 350.048 335.795 346.641V346.641Z" fill="#51D0FF"/>
<path d="M291.56 176.83C289.182 152.022 267.782 143.699 240.714 141.163V107.002H219.789V140.529C214.281 140.529 208.653 140.529 203.065 140.529V107.002H182.299V141.401H139.855V163.792C139.855 163.792 155.311 163.514 155.073 163.792C157.86 163.485 160.657 164.272 162.875 165.988C165.093 167.703 166.558 170.212 166.962 172.986V267.147C166.903 268.126 166.648 269.082 166.212 269.961C165.776 270.839 165.169 271.62 164.426 272.26C163.697 272.911 162.843 273.409 161.917 273.722C160.991 274.035 160.011 274.158 159.036 274.083C159.314 274.321 143.818 274.083 143.818 274.083L139.855 299.089H181.903V334.043H202.828V299.605H219.552V333.885H240.516V299.327C275.866 297.187 300.516 288.469 303.607 255.377C306.104 228.746 293.581 216.857 273.568 212.061C285.734 206.077 293.264 194.981 291.56 176.83ZM262.233 251.256C262.233 277.253 217.689 274.281 203.501 274.281V228.151C217.689 228.191 262.233 224.109 262.233 251.256ZM252.524 186.262C252.524 210.04 215.351 207.147 203.541 207.147V165.218C215.351 165.218 252.524 161.493 252.524 186.262Z" fill="white"/>
<path d="M216.46 433C173.644 432.992 131.792 420.289 96.1944 396.497C60.5973 372.704 32.8541 338.891 16.4726 299.333C0.0911354 259.774 -4.19295 216.247 4.16202 174.253C12.517 132.26 33.1358 93.6872 63.4115 63.4115C93.6872 33.1358 132.26 12.517 174.253 4.16202C216.247 -4.19295 259.774 0.0911354 299.333 16.4726C338.891 32.8541 372.704 60.5973 396.497 96.1944C420.289 131.792 432.992 173.644 433 216.46C433.005 244.898 427.408 273.059 416.528 299.333C405.647 325.607 389.697 349.48 369.589 369.589C349.48 389.697 325.607 405.647 299.333 416.528C273.059 427.408 244.898 433.005 216.46 433ZM216.46 16.8826C177.013 16.9139 138.461 28.639 105.676 50.5757C72.8916 72.5124 47.346 103.676 32.2684 140.128C17.1908 176.58 13.2581 216.683 20.9672 255.369C28.6764 294.056 47.6814 329.588 75.5802 357.476C103.479 385.364 139.019 404.355 177.708 412.048C216.398 419.742 256.5 415.794 292.945 400.701C329.391 385.609 360.545 360.051 382.468 327.258C404.392 294.464 416.102 255.907 416.118 216.46C416.128 190.242 410.97 164.278 400.939 140.055C390.908 115.831 376.201 93.8219 357.658 75.2863C339.115 56.7507 317.1 42.0519 292.872 32.0306C268.645 22.0092 242.679 16.8617 216.46 16.8826Z" fill="#7A3BFF"/>
</svg>
