<svg width="25" height="24" viewBox="0 0 25 24" fill="none" xmlns="http://www.w3.org/2000/svg">
<path d="M23 4.36364H3C2.73478 4.36364 2.48043 4.2487 2.29289 4.04412C2.10536 3.83953 2 3.56205 2 3.27273C2 2.9834 2.10536 2.70592 2.29289 2.50134C2.48043 2.29675 2.73478 2.18182 3 2.18182H20C20.2652 2.18182 20.5196 2.06688 20.7071 1.8623C20.8946 1.65771 21 1.38024 21 1.09091C21 0.801582 20.8946 0.524105 20.7071 0.31952C20.5196 0.114935 20.2652 0 20 0H3C2.20435 0 1.44129 0.344804 0.87868 0.95856C0.316071 1.57232 0 2.40475 0 3.27273V20.7273C0 21.5953 0.316071 22.4277 0.87868 23.0414C1.44129 23.6552 2.20435 24 3 24H23C23.5304 24 24.0391 23.7701 24.4142 23.361C24.7893 22.9518 25 22.3968 25 21.8182V6.54545C25 5.9668 24.7893 5.41185 24.4142 5.00268C24.0391 4.59351 23.5304 4.36364 23 4.36364ZM23 21.8182H3C2.73478 21.8182 2.48043 21.7032 2.29289 21.4987C2.10536 21.2941 2 21.0166 2 20.7273V6.35864C2.32109 6.48281 2.65933 6.546 3 6.54545H23V21.8182ZM17 13.6364C17 13.3127 17.088 12.9963 17.2528 12.7272C17.4176 12.4582 17.6519 12.2484 17.926 12.1246C18.2001 12.0007 18.5017 11.9683 18.7926 12.0314C19.0836 12.0946 19.3509 12.2504 19.5607 12.4793C19.7704 12.7081 19.9133 12.9997 19.9712 13.3171C20.0291 13.6346 19.9993 13.9636 19.8858 14.2626C19.7723 14.5616 19.58 14.8171 19.3334 14.997C19.0867 15.1768 18.7967 15.2727 18.5 15.2727C18.1022 15.2727 17.7206 15.1003 17.4393 14.7934C17.158 14.4866 17 14.0704 17 13.6364Z" fill="#190042"/>
</svg>
