<svg width="13" height="12" viewBox="0 0 13 12" fill="none" xmlns="http://www.w3.org/2000/svg">
<path d="M13 11.4545C13 11.5992 12.9473 11.7379 12.8536 11.8402C12.7598 11.9425 12.6326 12 12.5 12H0.5C0.367392 12 0.240215 11.9425 0.146447 11.8402C0.0526784 11.7379 0 11.5992 0 11.4545V0.545455C0 0.400791 0.0526784 0.262053 0.146447 0.15976C0.240215 0.0574675 0.367392 0 0.5 0C0.632608 0 0.759785 0.0574675 0.853553 0.15976C0.947321 0.262053 1 0.400791 1 0.545455V7.95614L4.14625 4.52318C4.19269 4.47247 4.24783 4.43224 4.30853 4.40479C4.36923 4.37734 4.43429 4.36321 4.5 4.36321C4.56571 4.36321 4.63077 4.37734 4.69147 4.40479C4.75217 4.43224 4.80731 4.47247 4.85375 4.52318L6.5 6.31977L9.79313 2.72727H8.5C8.36739 2.72727 8.24021 2.66981 8.14645 2.56751C8.05268 2.46522 8 2.32648 8 2.18182C8 2.03715 8.05268 1.89842 8.14645 1.79612C8.24021 1.69383 8.36739 1.63636 8.5 1.63636H11C11.1326 1.63636 11.2598 1.69383 11.3536 1.79612C11.4473 1.89842 11.5 2.03715 11.5 2.18182V4.90909C11.5 5.05375 11.4473 5.19249 11.3536 5.29479C11.2598 5.39708 11.1326 5.45455 11 5.45455C10.8674 5.45455 10.7402 5.39708 10.6464 5.29479C10.5527 5.19249 10.5 5.05375 10.5 4.90909V3.49841L6.85375 7.47682C6.80731 7.52753 6.75217 7.56777 6.69147 7.59521C6.63077 7.62266 6.56571 7.63679 6.5 7.63679C6.43429 7.63679 6.36923 7.62266 6.30853 7.59521C6.24783 7.56777 6.19269 7.52753 6.14625 7.47682L4.5 5.68023L1 9.49841V10.9091H12.5C12.6326 10.9091 12.7598 10.9666 12.8536 11.0689C12.9473 11.1711 13 11.3099 13 11.4545Z" fill="#51D0FF"/>
</svg>
