<svg width="25" height="26" viewBox="0 0 25 26" fill="none" xmlns="http://www.w3.org/2000/svg">
<path d="M14 6.69111V12.3483L18.515 15.1685C18.7424 15.3107 18.9063 15.5411 18.9705 15.8091C19.0347 16.0771 18.9941 16.3606 18.8575 16.5974C18.7209 16.8342 18.4996 17.0048 18.2422 17.0716C17.9848 17.1385 17.7124 17.0962 17.485 16.954L12.485 13.8306C12.337 13.7381 12.2146 13.6072 12.1296 13.4507C12.0446 13.2943 11.9999 13.1176 12 12.9379V6.69111C12 6.41499 12.1054 6.15018 12.2929 5.95493C12.4804 5.75968 12.7348 5.64999 13 5.64999C13.2652 5.64999 13.5196 5.75968 13.7071 5.95493C13.8946 6.15018 14 6.41499 14 6.69111ZM13 0.444374C11.4225 0.440283 9.85987 0.761961 8.40257 1.39079C6.94527 2.01962 5.62222 2.94311 4.51 4.10783C3.60125 5.06566 2.79375 5.98706 2 6.9514V4.60887C2 4.33275 1.89464 4.06793 1.70711 3.87268C1.51957 3.67743 1.26522 3.56774 1 3.56774C0.734784 3.56774 0.48043 3.67743 0.292893 3.87268C0.105357 4.06793 0 4.33275 0 4.60887V9.81449C0 10.0906 0.105357 10.3554 0.292893 10.5507C0.48043 10.7459 0.734784 10.8556 1 10.8556H6C6.26522 10.8556 6.51957 10.7459 6.70711 10.5507C6.89464 10.3554 7 10.0906 7 9.81449C7 9.53836 6.89464 9.27355 6.70711 9.0783C6.51957 8.88305 6.26522 8.77336 6 8.77336H3.125C4.01875 7.67758 4.90875 6.64557 5.92375 5.57581C7.31357 4.12885 9.08213 3.14038 11.0085 2.73391C12.9348 2.32744 14.9335 2.521 16.7547 3.2904C18.576 4.0598 20.1391 5.37092 21.2487 7.05994C22.3584 8.74896 22.9653 10.741 22.9938 12.7871C23.0222 14.8332 22.4708 16.8427 21.4086 18.5644C20.3463 20.2861 18.8203 21.6438 17.0212 22.4677C15.2221 23.2916 13.2296 23.5453 11.2928 23.197C9.35598 22.8487 7.56069 21.9139 6.13125 20.5094C6.03571 20.4154 5.92333 20.3419 5.80052 20.2932C5.6777 20.2444 5.54686 20.2213 5.41547 20.2251C5.28407 20.229 5.15469 20.2598 5.03472 20.3157C4.91475 20.3716 4.80653 20.4516 4.71625 20.5511C4.62597 20.6505 4.55538 20.7675 4.50853 20.8954C4.46168 21.0233 4.43948 21.1595 4.44319 21.2963C4.44691 21.4331 4.47647 21.5678 4.53018 21.6927C4.58389 21.8176 4.66071 21.9303 4.75625 22.0243C6.18056 23.4236 7.91219 24.4388 9.8 24.9812C11.6878 25.5236 13.6744 25.5767 15.5865 25.1359C17.4986 24.6951 19.278 23.7738 20.7694 22.4523C22.2608 21.1309 23.4189 19.4496 24.1427 17.555C24.8664 15.6604 25.1338 13.6102 24.9215 11.5833C24.7091 9.55644 24.0236 7.61445 22.9246 5.92684C21.8256 4.23924 20.3466 2.85731 18.6166 1.90166C16.8867 0.94602 14.9584 0.445702 13 0.444374Z" fill="#D9D9D9"/>
</svg>
