<svg width="152" height="150" viewBox="0 0 152 150" fill="none" xmlns="http://www.w3.org/2000/svg">
<path d="M55.2727 0H13.8182C10.1534 0 6.63866 1.43668 4.04725 3.994C1.45584 6.55131 0 10.0198 0 13.6364V54.5455C0 58.162 1.45584 61.6305 4.04725 64.1878C6.63866 66.7451 10.1534 68.1818 13.8182 68.1818H55.2727C58.9375 68.1818 62.4522 66.7451 65.0437 64.1878C67.6351 61.6305 69.0909 58.162 69.0909 54.5455V13.6364C69.0909 10.0198 67.6351 6.55131 65.0437 3.994C62.4522 1.43668 58.9375 0 55.2727 0ZM55.2727 54.5455H13.8182V13.6364H55.2727V54.5455ZM55.2727 81.8182H13.8182C10.1534 81.8182 6.63866 83.2549 4.04725 85.8122C1.45584 88.3695 0 91.838 0 95.4545V136.364C0 139.98 1.45584 143.449 4.04725 146.006C6.63866 148.563 10.1534 150 13.8182 150H55.2727C58.9375 150 62.4522 148.563 65.0437 146.006C67.6351 143.449 69.0909 139.98 69.0909 136.364V95.4545C69.0909 91.838 67.6351 88.3695 65.0437 85.8122C62.4522 83.2549 58.9375 81.8182 55.2727 81.8182ZM55.2727 136.364H13.8182V95.4545H55.2727V136.364ZM138.182 0H96.7273C93.0625 0 89.5478 1.43668 86.9563 3.994C84.3649 6.55131 82.9091 10.0198 82.9091 13.6364V54.5455C82.9091 58.162 84.3649 61.6305 86.9563 64.1878C89.5478 66.7451 93.0625 68.1818 96.7273 68.1818H138.182C141.847 68.1818 145.361 66.7451 147.953 64.1878C150.544 61.6305 152 58.162 152 54.5455V13.6364C152 10.0198 150.544 6.55131 147.953 3.994C145.361 1.43668 141.847 0 138.182 0ZM138.182 54.5455H96.7273V13.6364H138.182V54.5455ZM82.9091 115.909V88.6364C82.9091 86.8281 83.637 85.0938 84.9327 83.8152C86.2284 82.5365 87.9858 81.8182 89.8182 81.8182C91.6506 81.8182 93.4079 82.5365 94.7037 83.8152C95.9994 85.0938 96.7273 86.8281 96.7273 88.6364V115.909C96.7273 117.717 95.9994 119.452 94.7037 120.73C93.4079 122.009 91.6506 122.727 89.8182 122.727C87.9858 122.727 86.2284 122.009 84.9327 120.73C83.637 119.452 82.9091 117.717 82.9091 115.909ZM152 102.273C152 104.081 151.272 105.815 149.976 107.094C148.681 108.373 146.923 109.091 145.091 109.091H124.364V143.182C124.364 144.99 123.636 146.724 122.34 148.003C121.044 149.282 119.287 150 117.455 150H89.8182C87.9858 150 86.2284 149.282 84.9327 148.003C83.637 146.724 82.9091 144.99 82.9091 143.182C82.9091 141.374 83.637 139.639 84.9327 138.361C86.2284 137.082 87.9858 136.364 89.8182 136.364H110.545V88.6364C110.545 86.8281 111.273 85.0938 112.569 83.8152C113.865 82.5365 115.622 81.8182 117.455 81.8182C119.287 81.8182 121.044 82.5365 122.34 83.8152C123.636 85.0938 124.364 86.8281 124.364 88.6364V95.4545H145.091C146.923 95.4545 148.681 96.1729 149.976 97.4515C151.272 98.7302 152 100.464 152 102.273ZM152 129.545V143.182C152 144.99 151.272 146.724 149.976 148.003C148.681 149.282 146.923 150 145.091 150C143.258 150 141.501 149.282 140.205 148.003C138.91 146.724 138.182 144.99 138.182 143.182V129.545C138.182 127.737 138.91 126.003 140.205 124.724C141.501 123.446 143.258 122.727 145.091 122.727C146.923 122.727 148.681 123.446 149.976 124.724C151.272 126.003 152 127.737 152 129.545Z" fill="#51D0FF"/>
</svg>
