<svg width="30" height="24" viewBox="0 0 30 24" fill="none" xmlns="http://www.w3.org/2000/svg">
<path d="M22 6.73378V6.00889C22 2.74497 17.2712 0.282715 11 0.282715C4.72875 0.282715 0 2.74497 0 6.00889V11.2145C0 13.9331 3.28125 16.0935 8 16.7403V17.4613C8 20.7252 12.7288 23.1874 19 23.1874C25.2712 23.1874 30 20.7252 30 17.4613V12.2556C30 9.56173 26.8225 7.39879 22 6.73378ZM28 12.2556C28 13.9761 24.1512 15.8996 19 15.8996C18.5338 15.8996 18.0712 15.8826 17.615 15.8514C20.3112 14.8285 22 13.1666 22 11.2145V8.83815C25.7337 9.41727 28 10.9894 28 12.2556ZM8 14.6307V11.5347C8.99472 11.6696 9.99687 11.7365 11 11.7351C12.0031 11.7365 13.0053 11.6696 14 11.5347V14.6307C13.0068 14.7835 12.004 14.8596 11 14.8584C9.99598 14.8596 8.99324 14.7835 8 14.6307ZM20 9.38343V11.2145C20 12.3064 18.4487 13.479 16 14.1908V11.1494C17.6138 10.7421 18.98 10.1356 20 9.38343ZM11 2.36496C16.1512 2.36496 20 4.28844 20 6.00889C20 7.72935 16.1512 9.65283 11 9.65283C5.84875 9.65283 2 7.72935 2 6.00889C2 4.28844 5.84875 2.36496 11 2.36496ZM2 11.2145V9.38343C3.02 10.1356 4.38625 10.7421 6 11.1494V14.1908C3.55125 13.479 2 12.3064 2 11.2145ZM10 17.4613V16.9186C10.3287 16.9316 10.6613 16.9407 11 16.9407C11.485 16.9407 11.9587 16.9238 12.4237 16.8951C12.9403 17.0877 13.4665 17.251 14 17.3845V20.4376C11.5513 19.7257 10 18.5531 10 17.4613ZM16 20.8774V17.7736C16.9944 17.9128 17.9967 17.9823 19 17.9818C20.0031 17.9833 21.0053 17.9163 22 17.7814V20.8774C20.0106 21.1811 17.9894 21.1811 16 20.8774ZM24 20.4376V17.3962C25.6138 16.9888 26.98 16.3824 28 15.6302V17.4613C28 18.5531 26.4487 19.7257 24 20.4376Z" fill="#D9D9D9"/>
</svg>
