<svg width="30" height="24" viewBox="0 0 30 24" fill="none" xmlns="http://www.w3.org/2000/svg">
<path d="M2 9.99938H5V17.9994H3C2.73478 17.9994 2.48043 18.1047 2.29289 18.2923C2.10536 18.4798 2 18.7342 2 18.9994C2 19.2646 2.10536 19.5189 2.29289 19.7065C2.48043 19.894 2.73478 19.9994 3 19.9994H27C27.2652 19.9994 27.5196 19.894 27.7071 19.7065C27.8946 19.5189 28 19.2646 28 18.9994C28 18.7342 27.8946 18.4798 27.7071 18.2923C27.5196 18.1047 27.2652 17.9994 27 17.9994H25V9.99938H28C28.2176 9.99916 28.4292 9.92798 28.6026 9.79664C28.7761 9.66531 28.902 9.48097 28.9612 9.27161C29.0205 9.06225 29.0098 8.83928 28.9308 8.63653C28.8519 8.43378 28.709 8.26231 28.5238 8.14813L15.5238 0.148128C15.3662 0.0512756 15.1849 0 15 0C14.8151 0 14.6338 0.0512756 14.4762 0.148128L1.47625 8.14813C1.29103 8.26231 1.14811 8.43378 1.06916 8.63653C0.990213 8.83928 0.979546 9.06225 1.03878 9.27161C1.09801 9.48097 1.22391 9.66531 1.39738 9.79664C1.57085 9.92798 1.78242 9.99916 2 9.99938ZM7 9.99938H11V17.9994H7V9.99938ZM17 9.99938V17.9994H13V9.99938H17ZM23 17.9994H19V9.99938H23V17.9994ZM15 2.17313L24.4675 7.99938H5.5325L15 2.17313ZM30 22.9994C30 23.2646 29.8946 23.5189 29.7071 23.7065C29.5196 23.894 29.2652 23.9994 29 23.9994H1C0.734784 23.9994 0.48043 23.894 0.292893 23.7065C0.105357 23.5189 0 23.2646 0 22.9994C0 22.7342 0.105357 22.4798 0.292893 22.2923C0.48043 22.1047 0.734784 21.9994 1 21.9994H29C29.2652 21.9994 29.5196 22.1047 29.7071 22.2923C29.8946 22.4798 30 22.7342 30 22.9994Z" fill="#D9D9D9"/>
</svg>
