<svg width="50" height="50" viewBox="0 0 50 50" fill="none" xmlns="http://www.w3.org/2000/svg">
<path d="M29.8344 27.3081C29.6686 27.1421 29.4716 27.0104 29.2548 26.9205C29.0381 26.8307 28.8057 26.7844 28.5711 26.7844C28.3364 26.7844 28.104 26.8307 27.8873 26.9205C27.6705 27.0104 27.4736 27.1421 27.3077 27.3081L23.2142 31.4039L18.5961 26.7858L22.6919 22.6923C23.0269 22.3572 23.2152 21.9028 23.2152 21.4289C23.2152 20.9551 23.0269 20.5007 22.6919 20.1656C22.3568 19.8306 21.9024 19.6423 21.4285 19.6423C20.9547 19.6423 20.5003 19.8306 20.1652 20.1656L16.0717 24.2614L11.9781 20.1656C11.643 19.8306 11.1886 19.6423 10.7148 19.6423C10.2409 19.6423 9.78649 19.8306 9.45143 20.1656C9.11638 20.5007 8.92814 20.9551 8.92814 21.4289C8.92814 21.9028 9.11638 22.3572 9.45143 22.6923L10.8688 24.1074L5.66367 29.3103C5.00025 29.9735 4.47399 30.761 4.11494 31.6277C3.7559 32.4943 3.5711 33.4233 3.5711 34.3614C3.5711 35.2995 3.7559 36.2284 4.11494 37.0951C4.47399 37.9617 5.00025 38.7492 5.66367 39.4125L6.8645 40.6111L0.523289 46.95C0.357386 47.1159 0.225784 47.3129 0.135998 47.5297C0.0462122 47.7464 0 47.9788 0 48.2134C0 48.448 0.0462122 48.6803 0.135998 48.8971C0.225784 49.1138 0.357386 49.3108 0.523289 49.4767C0.858346 49.8118 1.31278 50 1.78662 50C2.02124 50 2.25357 49.9538 2.47033 49.864C2.68709 49.7742 2.88405 49.6426 3.04995 49.4767L9.38894 43.1355L10.5875 44.3363C11.2508 44.9997 12.0383 45.526 12.9049 45.8851C13.7716 46.2441 14.7005 46.4289 15.6386 46.4289C16.5767 46.4289 17.5057 46.2441 18.3723 45.8851C19.239 45.526 20.0265 44.9997 20.6897 44.3363L25.8926 39.1312L27.3077 40.5486C27.4736 40.7145 27.6706 40.8461 27.8873 40.9359C28.1041 41.0256 28.3364 41.0719 28.5711 41.0719C28.8057 41.0719 29.038 41.0256 29.2548 40.9359C29.4715 40.8461 29.6685 40.7145 29.8344 40.5486C30.0003 40.3827 30.1319 40.1857 30.2217 39.9689C30.3115 39.7522 30.3577 39.5199 30.3577 39.2852C30.3577 39.0506 30.3115 38.8183 30.2217 38.6015C30.1319 38.3848 30.0003 38.1878 29.8344 38.0219L25.7386 33.9283L29.8344 29.8348C30.0004 29.669 30.1321 29.472 30.222 29.2553C30.3118 29.0385 30.3581 28.8061 30.3581 28.5715C30.3581 28.3368 30.3118 28.1044 30.222 27.8877C30.1321 27.6709 30.0004 27.474 29.8344 27.3081ZM18.1631 41.8164C17.4934 42.4856 16.5854 42.8615 15.6386 42.8615C14.6919 42.8615 13.7839 42.4856 13.1142 41.8164L8.19033 36.8858C7.5211 36.2161 7.14516 35.3081 7.14516 34.3614C7.14516 33.4146 7.5211 32.5066 8.19033 31.8369L13.3932 26.6318L23.3682 36.6068L18.1631 41.8164ZM49.4763 0.523701C49.3105 0.35768 49.1135 0.225973 48.8968 0.136113C48.68 0.0462523 48.4476 0 48.213 0C47.9783 0 47.746 0.0462523 47.5292 0.136113C47.3124 0.225973 47.1155 0.35768 46.9496 0.523701L40.6107 6.86491L39.4121 5.66408C38.0711 4.32697 36.2546 3.57612 34.361 3.57612C32.4673 3.57612 30.6508 4.32697 29.3099 5.66408L24.107 10.8692L22.6919 9.45185C22.3568 9.11679 21.9024 8.92856 21.4285 8.92856C20.9547 8.92856 20.5003 9.11679 20.1652 9.45185C19.8301 9.7869 19.6419 10.2413 19.6419 10.7152C19.6419 11.189 19.8301 11.6435 20.1652 11.9785L38.0215 29.8348C38.1874 30.0007 38.3843 30.1323 38.6011 30.2221C38.8179 30.3119 39.0502 30.3581 39.2848 30.3581C39.5194 30.3581 39.7518 30.3119 39.9685 30.2221C40.1853 30.1323 40.3823 30.0007 40.5482 29.8348C40.7141 29.6689 40.8457 29.4719 40.9354 29.2552C41.0252 29.0384 41.0714 28.8061 41.0714 28.5715C41.0714 28.3368 41.0252 28.1045 40.9354 27.8878C40.8457 27.671 40.7141 27.474 40.5482 27.3081L39.1308 25.893L44.3359 20.6901C44.9993 20.0269 45.5256 19.2394 45.8846 18.3727C46.2437 17.5061 46.4285 16.5772 46.4285 15.639C46.4285 14.7009 46.2437 13.772 45.8846 12.9053C45.5256 12.0387 44.9993 11.2512 44.3359 10.588L43.1351 9.38935L49.4763 3.05037C49.6423 2.88453 49.774 2.68759 49.8639 2.47082C49.9538 2.25405 50 2.02169 50 1.78703C50 1.55237 49.9538 1.32002 49.8639 1.10324C49.774 0.886472 49.6423 0.689538 49.4763 0.523701ZM41.8093 18.1568L36.6064 23.3686L26.6314 13.3936L31.8365 8.19074C32.5062 7.52151 33.4142 7.14558 34.361 7.14558C35.3077 7.14558 36.2157 7.52151 36.8854 8.19074L41.8093 13.1012C42.1426 13.4331 42.4072 13.8275 42.5877 14.2619C42.7682 14.6962 42.8611 15.162 42.8611 15.6324C42.8611 16.1027 42.7682 16.5685 42.5877 17.0028C42.4072 17.4372 42.1426 17.8316 41.8093 18.1635V18.1568Z" fill="#51D0FF"/>
</svg>
