<svg width="26" height="33" viewBox="0 0 26 33" fill="none" xmlns="http://www.w3.org/2000/svg">
<path d="M25.6543 9.25587L17.3816 0.37125C17.2718 0.253422 17.1414 0.159989 16.9979 0.0962888C16.8544 0.0325885 16.7007 -0.000130713 16.5455 3.92444e-07H2.36364C1.73676 3.92444e-07 1.13556 0.267445 0.692293 0.743498C0.249025 1.21955 0 1.86522 0 2.53846V30.4615C0 31.1348 0.249025 31.7804 0.692293 32.2565C1.13556 32.7326 1.73676 33 2.36364 33H23.6364C24.2632 33 24.8644 32.7326 25.3077 32.2565C25.751 31.7804 26 31.1348 26 30.4615V10.1538C26.0001 9.98712 25.9697 9.822 25.9103 9.66792C25.851 9.51384 25.764 9.37382 25.6543 9.25587ZM17.7273 4.33284L21.9656 8.88462H17.7273V4.33284ZM23.6364 30.4615H2.36364V2.53846H15.3636V10.1538C15.3636 10.4905 15.4881 10.8133 15.7098 11.0513C15.9314 11.2894 16.232 11.4231 16.5455 11.4231H23.6364V30.4615Z" fill="#51D0FF"/>
</svg>
