<svg width="14" height="18" viewBox="0 0 14 18" fill="none" xmlns="http://www.w3.org/2000/svg">
<path d="M11.0833 3H0.583333C0.428624 3 0.280251 3.07902 0.170854 3.21967C0.0614583 3.36032 0 3.55109 0 3.75V17.25C0 17.4489 0.0614583 17.6397 0.170854 17.7803C0.280251 17.921 0.428624 18 0.583333 18H11.0833C11.238 18 11.3864 17.921 11.4958 17.7803C11.6052 17.6397 11.6667 17.4489 11.6667 17.25V3.75C11.6667 3.55109 11.6052 3.36032 11.4958 3.21967C11.3864 3.07902 11.238 3 11.0833 3ZM10.5 16.5H1.16667V4.5H10.5V16.5ZM14 0.75V14.25C14 14.4489 13.9385 14.6397 13.8291 14.7803C13.7197 14.921 13.5714 15 13.4167 15C13.262 15 13.1136 14.921 13.0042 14.7803C12.8948 14.6397 12.8333 14.4489 12.8333 14.25V1.5H2.91667C2.76196 1.5 2.61358 1.42098 2.50419 1.28033C2.39479 1.13968 2.33333 0.948912 2.33333 0.75C2.33333 0.551088 2.39479 0.360322 2.50419 0.21967C2.61358 0.0790178 2.76196 0 2.91667 0H13.4167C13.5714 0 13.7197 0.0790178 13.8291 0.21967C13.9385 0.360322 14 0.551088 14 0.75Z" fill="#00BAFF"/>
</svg>
