<svg width="18" height="14" viewBox="0 0 18 14" fill="none" xmlns="http://www.w3.org/2000/svg">
<path d="M16.56 3.12879H2.16C1.96904 3.12879 1.78591 3.06971 1.65088 2.96455C1.51586 2.85938 1.44 2.71675 1.44 2.56803C1.44 2.4193 1.51586 2.27667 1.65088 2.17151C1.78591 2.06635 1.96904 2.00727 2.16 2.00727H14.4C14.591 2.00727 14.7741 1.94819 14.9091 1.84302C15.0441 1.73786 15.12 1.59523 15.12 1.4465C15.12 1.29778 15.0441 1.15515 14.9091 1.04999C14.7741 0.944822 14.591 0.885742 14.4 0.885742L2.16 0.885742C1.58713 0.885742 1.03773 1.06298 0.632649 1.37847C0.227571 1.69396 0 2.12186 0 2.56803L0 11.5402C0 11.9864 0.227571 12.4143 0.632649 12.7298C1.03773 13.0453 1.58713 13.2225 2.16 13.2225H16.56C16.9419 13.2225 17.3082 13.1043 17.5782 12.894C17.8483 12.6837 18 12.3984 18 12.101V4.25031C18 3.95287 17.8483 3.6676 17.5782 3.45728C17.3082 3.24695 16.9419 3.12879 16.56 3.12879ZM16.56 12.101H2.16C1.96904 12.101 1.78591 12.0419 1.65088 11.9367C1.51586 11.8316 1.44 11.6889 1.44 11.5402V4.15428C1.67119 4.21811 1.91472 4.25059 2.16 4.25031H16.56V12.101ZM12.24 7.89526C12.24 7.7289 12.3033 7.56628 12.422 7.42795C12.5407 7.28963 12.7094 7.18181 12.9067 7.11815C13.104 7.05449 13.3212 7.03783 13.5307 7.07028C13.7402 7.10274 13.9326 7.18285 14.0837 7.30049C14.2347 7.41812 14.3376 7.568 14.3792 7.73117C14.4209 7.89433 14.3995 8.06346 14.3178 8.21715C14.236 8.37085 14.0976 8.50222 13.92 8.59465C13.7424 8.68707 13.5336 8.73641 13.32 8.73641C13.0336 8.73641 12.7589 8.64779 12.5563 8.49004C12.3538 8.3323 12.24 8.11835 12.24 7.89526Z" fill="#190042"/>
</svg>
