<svg width="64" height="62" viewBox="0 0 64 62" fill="none" xmlns="http://www.w3.org/2000/svg">
<g clip-path="url(#clip0_1_775)">
<path d="M54.1797 11.265C50.0302 9.41893 45.651 8.10207 41.1517 7.34742C41.111 7.34077 41.0691 7.34651 41.0318 7.36386C40.9946 7.38121 40.9638 7.40931 40.9437 7.44429C40.3797 8.41304 39.7557 9.68017 39.3197 10.6722C34.4701 9.95979 29.5373 9.95979 24.6877 10.6722C24.2034 9.56618 23.6531 8.48841 23.0397 7.44429C23.0196 7.40931 22.9888 7.38121 22.9516 7.36386C22.9143 7.34651 22.8725 7.34077 22.8317 7.34742C18.3317 8.09917 13.9517 9.41667 9.8037 11.265C9.76803 11.2779 9.73825 11.3026 9.7197 11.3348C1.4237 23.3434 -0.852301 35.0575 0.263699 46.6244C0.271699 46.6813 0.299699 46.729 0.347699 46.7678C5.17957 50.2329 10.5828 52.8795 16.3277 54.5953C16.3683 54.6077 16.4119 54.6072 16.4521 54.594C16.4924 54.5808 16.5273 54.5554 16.5517 54.5217C17.7864 52.8942 18.877 51.1775 19.8237 49.3718C19.8434 49.3346 19.8501 49.2922 19.8429 49.251C19.8357 49.2098 19.8149 49.172 19.7837 49.1432L19.7117 49.1005C17.9891 48.4571 16.3202 47.6863 14.7197 46.7949C14.675 46.7704 14.6418 46.7302 14.6269 46.6825C14.612 46.6349 14.6166 46.5836 14.6397 46.5392L14.6997 46.4655C15.0384 46.2201 15.369 45.9683 15.6917 45.7099C15.72 45.6879 15.7539 45.6737 15.7898 45.669C15.8258 45.6642 15.8624 45.669 15.8957 45.6828C26.3717 50.3173 37.7117 50.3173 48.0597 45.6828C48.0941 45.6674 48.1322 45.6618 48.1698 45.6666C48.2073 45.6714 48.2426 45.6864 48.2717 45.7099C48.5944 45.9683 48.925 46.2201 49.2637 46.4655C49.2919 46.4842 49.3146 46.5095 49.3298 46.5391C49.345 46.5687 49.3521 46.6015 49.3505 46.6346C49.3489 46.6676 49.3387 46.6996 49.3207 46.7277C49.3027 46.7558 49.2775 46.7789 49.2477 46.7949C47.6541 47.7004 45.9825 48.4706 44.2517 49.0967C44.2241 49.1063 44.1991 49.1218 44.1783 49.1419C44.1576 49.1619 44.1417 49.1862 44.1317 49.2129C44.122 49.2387 44.118 49.2662 44.1201 49.2936C44.1221 49.321 44.1302 49.3476 44.1437 49.3718C45.1037 51.1737 46.2037 52.8942 47.4117 54.5217C47.4361 54.5554 47.471 54.5808 47.5113 54.594C47.5515 54.6072 47.5951 54.6077 47.6357 54.5953C53.392 52.889 58.8046 50.2417 63.6397 46.7678C63.6637 46.7514 63.6837 46.73 63.6982 46.7052C63.7128 46.6804 63.7215 46.6528 63.7237 46.6244C65.0597 33.2518 61.4877 21.6345 54.2597 11.3387C54.2534 11.3211 54.2429 11.3052 54.229 11.2924C54.215 11.2796 54.1981 11.2702 54.1797 11.265ZM21.3877 39.5797C18.2317 39.5797 15.6357 36.7742 15.6357 33.3332C15.6357 29.8922 18.1837 27.0828 21.3877 27.0828C24.6157 27.0828 27.1877 29.9115 27.1397 33.3332C27.1397 36.7742 24.5917 39.5797 21.3877 39.5797ZM42.6517 39.5797C39.4997 39.5797 36.8997 36.7742 36.8997 33.3332C36.8997 29.8922 39.4477 27.0828 42.6517 27.0828C45.8797 27.0828 48.4557 29.9115 48.4037 33.3332C48.4037 36.7742 45.8797 39.5797 42.6517 39.5797Z" fill="#51D0FF"/>
</g>
<defs>
<clipPath id="clip0_1_775">
<rect width="64" height="62" fill="white"/>
</clipPath>
</defs>
</svg>
