<svg width="22" height="28" viewBox="0 0 22 28" fill="none" xmlns="http://www.w3.org/2000/svg">
<path d="M21.7075 7.89415L14.7075 0.606287C14.6146 0.509635 14.5042 0.432994 14.3829 0.380741C14.2615 0.328489 14.1314 0.301651 14 0.301758H2C1.46957 0.301758 0.960859 0.521137 0.585786 0.911634C0.210714 1.30213 0 1.83176 0 2.384V25.2887C0 25.841 0.210714 26.3706 0.585786 26.7611C0.960859 27.1516 1.46957 27.371 2 27.371H20C20.5304 27.371 21.0391 27.1516 21.4142 26.7611C21.7893 26.3706 22 25.841 22 25.2887V8.63074C22.0001 8.49398 21.9743 8.35854 21.9241 8.23215C21.8739 8.10576 21.8003 7.99091 21.7075 7.89415ZM15 3.85589L18.5863 7.58962H15V3.85589ZM20 25.2887H2V2.384H13V8.63074C13 8.90687 13.1054 9.17168 13.2929 9.36693C13.4804 9.56218 13.7348 9.67187 14 9.67187H20V25.2887ZM14.7075 15.182C14.8004 15.2787 14.8741 15.3936 14.9244 15.52C14.9747 15.6464 15.0006 15.7818 15.0006 15.9186C15.0006 16.0554 14.9747 16.1909 14.9244 16.3173C14.8741 16.4436 14.8004 16.5585 14.7075 16.6552C14.6146 16.7519 14.5043 16.8287 14.3829 16.881C14.2615 16.9334 14.1314 16.9603 14 16.9603C13.8686 16.9603 13.7385 16.9334 13.6171 16.881C13.4957 16.8287 13.3854 16.7519 13.2925 16.6552L12 15.3082V21.1242C12 21.4003 11.8946 21.6652 11.7071 21.8604C11.5196 22.0557 11.2652 22.1653 11 22.1653C10.7348 22.1653 10.4804 22.0557 10.2929 21.8604C10.1054 21.6652 10 21.4003 10 21.1242V15.3082L8.7075 16.6552C8.61459 16.7519 8.50429 16.8287 8.3829 16.881C8.2615 16.9334 8.1314 16.9603 8 16.9603C7.86861 16.9603 7.7385 16.9334 7.6171 16.881C7.49571 16.8287 7.38541 16.7519 7.2925 16.6552C7.19959 16.5585 7.12589 16.4436 7.07561 16.3173C7.02532 16.1909 6.99944 16.0554 6.99944 15.9186C6.99944 15.7818 7.02532 15.6464 7.07561 15.52C7.12589 15.3936 7.19959 15.2787 7.2925 15.182L10.2925 12.0586C10.3854 11.9618 10.4957 11.8851 10.6171 11.8327C10.7385 11.7803 10.8686 11.7533 11 11.7533C11.1314 11.7533 11.2615 11.7803 11.3829 11.8327C11.5043 11.8851 11.6146 11.9618 11.7075 12.0586L14.7075 15.182Z" fill="#D9D9D9"/>
</svg>
