<svg width="10" height="10" viewBox="0 0 10 10" fill="none" xmlns="http://www.w3.org/2000/svg">
<path d="M9.85348 6.12792L5.35373 9.8778C5.3073 9.91654 5.25215 9.94727 5.19146 9.96824C5.13076 9.98921 5.0657 10 5 10C4.9343 10 4.86924 9.98921 4.80854 9.96824C4.74784 9.94727 4.6927 9.91654 4.64627 9.8778L0.14652 6.12792C0.0527047 6.04974 0 5.94371 0 5.83314C0 5.72258 0.0527047 5.61654 0.14652 5.53836C0.240335 5.46018 0.367576 5.41626 0.50025 5.41626C0.632925 5.41626 0.760165 5.46018 0.85398 5.53836L4.50003 8.57732V0.416653C4.50003 0.30615 4.5527 0.200173 4.64647 0.122035C4.74023 0.0438973 4.8674 0 5 0C5.1326 0 5.25977 0.0438973 5.35353 0.122035C5.4473 0.200173 5.49997 0.30615 5.49997 0.416653V8.57732L9.14602 5.53836C9.23983 5.46018 9.36707 5.41626 9.49975 5.41626C9.63242 5.41626 9.75966 5.46018 9.85348 5.53836C9.9473 5.61654 10 5.72258 10 5.83314C10 5.94371 9.9473 6.04974 9.85348 6.12792Z" fill="#190042"/>
</svg>
