<svg width="22" height="28" viewBox="0 0 22 28" fill="none" xmlns="http://www.w3.org/2000/svg">
<path d="M21.7075 7.59239L14.7075 0.304529C14.6146 0.207877 14.5042 0.131236 14.3829 0.0789837C14.2615 0.0267317 14.1314 -0.000107221 14 3.21914e-07H2C1.46957 3.21914e-07 0.960859 0.219379 0.585786 0.609876C0.210714 1.00037 0 1.53 0 2.08225V24.987C0 25.5392 0.210714 26.0688 0.585786 26.4593C0.960859 26.8498 1.46957 27.0692 2 27.0692H20C20.5304 27.0692 21.0391 26.8498 21.4142 26.4593C21.7893 26.0688 22 25.5392 22 24.987V8.32899C22.0001 8.19222 21.9743 8.05678 21.9241 7.93039C21.8739 7.80401 21.8003 7.68915 21.7075 7.59239ZM15 3.55414L18.5863 7.28786H15V3.55414ZM20 24.987H2V2.08225H13V8.32899C13 8.60511 13.1054 8.86992 13.2929 9.06517C13.4804 9.26042 13.7348 9.37011 14 9.37011H20V24.987ZM14.7075 16.9625C14.8005 17.0592 14.8742 17.174 14.9246 17.3004C14.9749 17.4268 15.0008 17.5623 15.0008 17.6991C15.0008 17.8359 14.9749 17.9714 14.9246 18.0978C14.8742 18.2242 14.8005 18.339 14.7075 18.4357L11.7075 21.5591C11.6146 21.6559 11.5043 21.7327 11.3829 21.785C11.2615 21.8374 11.1314 21.8644 11 21.8644C10.8686 21.8644 10.7385 21.8374 10.6171 21.785C10.4957 21.7327 10.3854 21.6559 10.2925 21.5591L7.2925 18.4357C7.10486 18.2403 6.99944 17.9754 6.99944 17.6991C6.99944 17.4228 7.10486 17.1579 7.2925 16.9625C7.48014 16.7671 7.73464 16.6574 8 16.6574C8.26536 16.6574 8.51986 16.7671 8.7075 16.9625L10 18.3095V12.4935C10 12.2174 10.1054 11.9525 10.2929 11.7573C10.4804 11.562 10.7348 11.4524 11 11.4524C11.2652 11.4524 11.5196 11.562 11.7071 11.7573C11.8946 11.9525 12 12.2174 12 12.4935V18.3095L13.2925 16.9625C13.3854 16.8657 13.4957 16.7889 13.6171 16.7365C13.7385 16.6841 13.8686 16.6572 14 16.6572C14.1314 16.6572 14.2615 16.6841 14.3829 16.7365C14.5043 16.7889 14.6146 16.8657 14.7075 16.9625Z" fill="#E3E3E3"/>
</svg>
