<svg width="47" height="44" viewBox="0 0 47 44" fill="none" xmlns="http://www.w3.org/2000/svg">
<path d="M46.5834 17.7694C46.8633 19.2242 47.0026 20.6983 47 22.1749C47 28.7695 44.3928 34.3454 39.8559 38.1196H39.8619C35.8943 41.4332 30.4403 43.3514 23.9735 43.3514C17.6153 43.3514 11.5176 41.0678 7.02166 37.0029C2.52577 32.9381 0 27.4249 0 21.6764C0 15.9278 2.52577 10.4146 7.02166 6.34977C11.5176 2.28491 17.6153 0.00129509 23.9735 0.00129509C29.9241 -0.05862 35.6702 1.96239 40.0117 5.64223L33.1673 11.8305C30.6926 9.69886 27.391 8.53128 23.9735 8.5792C17.7194 8.5792 12.4063 12.394 10.5124 17.531C9.50996 20.2231 9.50996 23.1378 10.5124 25.8298H10.5214C12.4242 30.9587 17.7284 34.7735 23.9824 34.7735C27.2129 34.7735 29.9878 34.0257 32.1394 32.7035H32.1304C33.38 31.9555 34.4489 30.9861 35.2724 29.854C36.096 28.722 36.6572 27.4507 36.9221 26.117H23.9735V17.7721L46.5834 17.7694Z" fill="black"/>
</svg>
