<svg width="30" height="27" viewBox="0 0 30 27" fill="none" xmlns="http://www.w3.org/2000/svg">
<path d="M29 24.0608H27V12.0293C27 11.7411 26.9426 11.4561 26.8314 11.1922C26.7201 10.9283 26.5575 10.6913 26.3538 10.4963L16.3538 0.673277C16.3489 0.668836 16.3443 0.664053 16.34 0.658961C15.9718 0.310358 15.492 0.117188 14.9944 0.117188C14.4967 0.117188 14.0169 0.310358 13.6488 0.658961L13.635 0.673277L3.64625 10.4963C3.4425 10.6913 3.27985 10.9283 3.16861 11.1922C3.05737 11.4561 2.99996 11.7411 3 12.0293V24.0608H1C0.734784 24.0608 0.48043 24.1705 0.292893 24.3657C0.105357 24.561 0 24.8258 0 25.1019C0 25.3781 0.105357 25.6429 0.292893 25.8381C0.48043 26.0334 0.734784 26.1431 1 26.1431H29C29.2652 26.1431 29.5196 26.0334 29.7071 25.8381C29.8946 25.6429 30 25.3781 30 25.1019C30 24.8258 29.8946 24.561 29.7071 24.3657C29.5196 24.1705 29.2652 24.0608 29 24.0608ZM5 12.0293L5.01375 12.0163L15 2.19722L24.9875 12.0137L25.0012 12.0267V24.0608H19V17.8141C19 17.2618 18.7893 16.7322 18.4142 16.3417C18.0391 15.9512 17.5304 15.7318 17 15.7318H13C12.4696 15.7318 11.9609 15.9512 11.5858 16.3417C11.2107 16.7322 11 17.2618 11 17.8141V24.0608H5V12.0293ZM17 24.0608H13V17.8141H17V24.0608Z" fill="#D9D9D9"/>
</svg>
