<svg width="26" height="38" viewBox="0 0 26 38" fill="none" xmlns="http://www.w3.org/2000/svg">
<path d="M25.9695 17.4431C25.9247 17.24 25.8339 17.0519 25.7051 16.8955C25.5763 16.7391 25.4134 16.6193 25.231 16.5466L16.7226 13.1239L18.8877 1.50941C18.9367 1.23955 18.9026 0.959916 18.7904 0.712697C18.6783 0.465479 18.4942 0.264092 18.2659 0.138927C18.0376 0.013762 17.7776 -0.0283901 17.5251 0.0188316C17.2725 0.0660533 17.0411 0.200086 16.8658 0.400705L0.324506 19.4071C0.19016 19.5589 0.0929713 19.744 0.041625 19.9459C-0.00972141 20.1479 -0.013627 20.3603 0.0302573 20.5642C0.0741417 20.7681 0.164449 20.9573 0.293111 21.1146C0.421773 21.272 0.584784 21.3927 0.767578 21.4661L9.27898 24.8888L7.11974 36.4906C7.07072 36.7604 7.10486 37.0401 7.21703 37.2873C7.3292 37.5345 7.5133 37.7359 7.74156 37.8611C7.96982 37.9862 8.22984 38.0284 8.4824 37.9812C8.73495 37.9339 8.96633 37.7999 9.14163 37.5993L25.683 18.5929C25.8149 18.4411 25.91 18.2568 25.9599 18.0563C26.0099 17.8558 26.0132 17.6452 25.9695 17.4431ZM10.2523 32.6212L11.7986 24.3249C11.8539 24.0307 11.8101 23.725 11.6748 23.4622C11.5396 23.1994 11.3218 22.9966 11.0601 22.89L3.25616 19.746L15.7537 5.3867L14.2089 13.683C14.1535 13.9772 14.1974 14.283 14.3326 14.5457C14.4679 14.8085 14.6857 15.0113 14.9473 15.118L22.7454 18.254L10.2523 32.6212Z" fill="#51D0FF"/>
</svg>
