<svg width="50" height="50" viewBox="0 0 50 50" fill="none" xmlns="http://www.w3.org/2000/svg">
<path d="M27.488 40.1844C27.8783 40.5749 28.0976 41.1043 28.0976 41.6564C28.0976 42.2084 27.8783 42.7379 27.488 43.1283L24.9003 45.7313C22.1636 48.4657 18.4526 50.0012 14.5835 50C10.7145 49.9988 7.00446 48.4609 4.26951 45.7248C1.53457 42.9886 -0.00121986 39.2782 7.27e-07 35.4099C0.00122131 31.5416 1.53935 27.8322 4.27602 25.0978L10.5555 18.8195C13.1841 16.1892 16.7187 14.6628 20.436 14.5524C24.1533 14.4421 27.7722 15.7563 30.5523 18.226C30.7574 18.4079 30.9247 18.6283 31.0446 18.8748C31.1645 19.1213 31.2347 19.389 31.2511 19.6626C31.2676 19.9362 31.23 20.2104 31.1404 20.4695C31.0509 20.7285 30.9112 20.9675 30.7293 21.1725C30.5474 21.3776 30.3269 21.5449 30.0804 21.6648C29.8338 21.7847 29.5661 21.8549 29.2924 21.8713C29.0188 21.8877 28.7446 21.8501 28.4854 21.7606C28.2263 21.6711 27.9874 21.5314 27.7822 21.3495C25.7967 19.5866 23.2125 18.6486 20.5581 18.7275C17.9038 18.8064 15.3799 19.8961 13.5025 21.7738L7.22308 28.0443C5.26975 29.9973 4.17238 32.6461 4.17238 35.408C4.17238 38.1699 5.26975 40.8188 7.22308 42.7717C9.17642 44.7247 11.8257 45.8219 14.5881 45.8219C17.3506 45.8219 19.9999 44.7247 21.9532 42.7717L24.541 40.1844C24.7344 39.9908 24.9641 39.8372 25.217 39.7324C25.4698 39.6276 25.7408 39.5737 26.0145 39.5737C26.2882 39.5737 26.5592 39.6276 26.8121 39.7324C27.0649 39.8372 27.2946 39.9908 27.488 40.1844ZM45.7328 4.26386C42.9957 1.53343 39.2871 0 35.4206 0C31.5542 0 27.8456 1.53343 25.1085 4.26386L22.5207 6.85378C22.1303 7.24452 21.9111 7.77433 21.9113 8.32667C21.9115 8.879 22.1312 9.40862 22.522 9.79901C22.9128 10.1894 23.4428 10.4086 23.9952 10.4083C24.5476 10.4081 25.0773 10.1884 25.4678 9.79771L28.0556 7.21039C30.0089 5.25741 32.6582 4.16024 35.4206 4.16024C38.1831 4.16024 40.8324 5.25741 42.7857 7.21039C44.739 9.16337 45.8364 11.8122 45.8364 14.5741C45.8364 17.336 44.739 19.9848 42.7857 21.9378L36.5063 28.2213C34.6279 30.0979 32.1034 31.1862 29.4491 31.2637C26.7948 31.3411 24.2112 30.4017 22.2266 28.6378C22.0214 28.4559 21.7825 28.3163 21.5234 28.2267C21.2642 28.1372 20.99 28.0996 20.7164 28.116C20.1637 28.1492 19.6468 28.4006 19.2795 28.8148C19.0976 29.0199 18.9579 29.2588 18.8684 29.5178C18.7788 29.7769 18.7412 30.0511 18.7576 30.3247C18.7908 30.8773 19.0422 31.394 19.4565 31.7613C22.2359 34.2317 25.8545 35.5468 29.5718 35.4374C33.2891 35.3281 36.824 33.8026 39.4533 31.173L45.7328 24.8948C48.4653 22.158 50 18.4489 50 14.5819C50 10.7149 48.4653 7.00585 45.7328 4.26907V4.26386Z" fill="#51D0FF"/>
</svg>
