<svg width="28" height="19" viewBox="0 0 28 19" fill="none" xmlns="http://www.w3.org/2000/svg">
<path d="M23.8825 4.0838C22.5862 2.78462 21.0456 1.75489 19.3495 1.05399C17.6534 0.353096 15.8352 -0.00510152 14 5.48888e-05H13.95C6.25875 0.0263049 0 6.37506 0 14.1413V17.0001C0 17.5305 0.210714 18.0392 0.585786 18.4143C0.960859 18.7893 1.46957 19.0001 2 19.0001H26C26.5304 19.0001 27.0391 18.7893 27.4142 18.4143C27.7893 18.0392 28 17.5305 28 17.0001V14.0001C28.0051 12.1568 27.6438 10.3309 26.9369 8.62851C26.23 6.92615 25.1918 5.3813 23.8825 4.0838ZM26 17.0001H12.9637L19.8088 7.58755C19.9649 7.37306 20.0294 7.10532 19.9882 6.84324C19.9469 6.58116 19.8032 6.3462 19.5888 6.19005C19.3743 6.03391 19.1065 5.96937 18.8444 6.01062C18.5824 6.05188 18.3474 6.19556 18.1912 6.41005L10.49 17.0001H2V14.1413C2 13.7563 2.01875 13.3763 2.05375 13.0001H5C5.26522 13.0001 5.51957 12.8947 5.70711 12.7072C5.89464 12.5196 6 12.2653 6 12.0001C6 11.7348 5.89464 11.4805 5.70711 11.2929C5.51957 11.1054 5.26522 11.0001 5 11.0001H2.40875C3.69875 6.14256 7.90875 2.47005 13 2.04255V5.00005C13 5.26527 13.1054 5.51963 13.2929 5.70716C13.4804 5.8947 13.7348 6.00005 14 6.00005C14.2652 6.00005 14.5196 5.8947 14.7071 5.70716C14.8946 5.51963 15 5.26527 15 5.00005V2.04131C17.4808 2.25008 19.8356 3.22418 21.7389 4.829C23.6422 6.43383 25.0001 8.59017 25.625 11.0001H23C22.7348 11.0001 22.4804 11.1054 22.2929 11.2929C22.1054 11.4805 22 11.7348 22 12.0001C22 12.2653 22.1054 12.5196 22.2929 12.7072C22.4804 12.8947 22.7348 13.0001 23 13.0001H25.9587C25.985 13.3313 26 13.6638 26 14.0001V17.0001Z" fill="#D9D9D9"/>
</svg>
