<svg width="20" height="20" viewBox="0 0 20 20" fill="none" xmlns="http://www.w3.org/2000/svg">
<path d="M20 12.5002V18.3334C20 18.7754 19.8244 19.1993 19.5118 19.5119C19.1993 19.8244 18.7754 20 18.3333 20H1.66667C1.22464 20 0.800716 19.8244 0.488155 19.5119C0.175595 19.1993 0 18.7754 0 18.3334V12.5002C0 12.2792 0.0877975 12.0673 0.244078 11.911C0.400358 11.7547 0.61232 11.6669 0.833333 11.6669C1.05435 11.6669 1.26631 11.7547 1.42259 11.911C1.57887 12.0673 1.66667 12.2792 1.66667 12.5002V18.3334H18.3333V12.5002C18.3333 12.2792 18.4211 12.0673 18.5774 11.911C18.7337 11.7547 18.9457 11.6669 19.1667 11.6669C19.3877 11.6669 19.5996 11.7547 19.7559 11.911C19.9122 12.0673 20 12.2792 20 12.5002ZM6.42292 5.59006L9.16667 2.84535V12.5002C9.16667 12.7213 9.25446 12.9332 9.41074 13.0895C9.56702 13.2458 9.77899 13.3336 10 13.3336C10.221 13.3336 10.433 13.2458 10.5893 13.0895C10.7455 12.9332 10.8333 12.7213 10.8333 12.5002V2.84535L13.5771 5.59006C13.7334 5.74642 13.9455 5.83426 14.1667 5.83426C14.3878 5.83426 14.5999 5.74642 14.7563 5.59006C14.9126 5.43369 15.0005 5.22162 15.0005 5.00049C15.0005 4.77936 14.9126 4.56729 14.7563 4.41093L10.5896 0.244397C10.5122 0.16692 10.4203 0.105456 10.3191 0.0635204C10.218 0.0215848 10.1095 0 10 0C9.89049 0 9.78205 0.0215848 9.68088 0.0635204C9.57972 0.105456 9.48781 0.16692 9.41042 0.244397L5.24375 4.41093C5.08738 4.56729 4.99954 4.77936 4.99954 5.00049C4.99954 5.22162 5.08738 5.43369 5.24375 5.59006C5.40012 5.74642 5.6122 5.83426 5.83333 5.83426C6.05447 5.83426 6.26655 5.74642 6.42292 5.59006Z" fill="#D9D9D9"/>
</svg>
