<svg width="232" height="197" viewBox="0 0 232 197" fill="none" xmlns="http://www.w3.org/2000/svg">
<path fill-rule="evenodd" clip-rule="evenodd" d="M195.211 197H36.8032C16.509 197 0 177.799 0 154.222V42.778C0 19.1684 16.5236 0 36.8032 0H195.211C215.491 0 232 19.1684 232 42.778V154.222C232 177.799 215.476 197 195.211 197ZM32.1446 15.9654C21.9538 15.9654 13.6265 26.1027 13.6265 38.6009V159.423C13.6265 171.921 21.9538 182.058 32.1446 182.058H199.812C210.032 182.058 218.344 171.921 218.344 159.423V38.6009C218.344 26.1027 210.032 15.9654 199.812 15.9654H32.1446Z" fill="#434343"/>
<path d="M79.2218 81.07C91.0491 81.07 100.637 70.2705 100.637 56.9486C100.637 43.6267 91.0491 32.8271 79.2218 32.8271C67.3945 32.8271 57.8066 43.6267 57.8066 56.9486C57.8066 70.2705 67.3945 81.07 79.2218 81.07Z" fill="#434343"/>
<path fill-rule="evenodd" clip-rule="evenodd" d="M163.128 49.9492L203.309 164.712H29.0029L79.6074 98.5388L124.985 114.124L163.128 49.9492Z" fill="#434343"/>
</svg>
