<svg width="50" height="50" viewBox="0 0 50 50" fill="none" xmlns="http://www.w3.org/2000/svg">
<path d="M36.197 39.9982H21.2779C21.0077 41.7898 20.3778 43.4893 19.4358 44.9684C18.4938 46.4476 17.2642 47.6679 15.8399 48.5372C14.4156 49.4065 12.8336 49.9022 11.2134 49.9869C9.59311 50.0717 7.97682 49.7432 6.48639 49.0262C4.99597 48.3093 3.67032 47.2226 2.60942 45.8482C1.54852 44.4737 0.780058 42.8474 0.361988 41.0918C-0.0560812 39.3362 -0.112845 37.4972 0.195979 35.7135C0.504803 33.9297 1.17115 32.2478 2.14477 30.7946C2.28562 30.5844 2.46203 30.4074 2.66394 30.2737C2.86585 30.1399 3.08931 30.052 3.32155 30.0149C3.55379 29.9779 3.79027 29.9925 4.01748 30.0578C4.24469 30.1232 4.45819 30.238 4.64579 30.3958C4.83338 30.5536 4.9914 30.7512 5.11082 30.9773C5.23024 31.2035 5.30871 31.4538 5.34177 31.714C5.37483 31.9741 5.36182 32.239 5.30349 32.4936C5.24516 32.7481 5.14265 32.9872 5.0018 33.1974C4.07001 34.5797 3.56824 36.2659 3.57329 37.998C3.57329 40.12 4.32581 42.1551 5.6653 43.6556C7.00479 45.156 8.82153 45.999 10.7159 45.999C12.6102 45.999 14.4269 45.156 15.7664 43.6556C17.1059 42.1551 17.8584 40.12 17.8584 37.998C17.8584 37.4675 18.0466 36.9587 18.3814 36.5836C18.7163 36.2085 19.1705 35.9977 19.6441 35.9977H36.197C36.5901 35.2351 37.1968 34.639 37.9231 34.302C38.6495 33.965 39.4548 33.9059 40.2141 34.1338C40.9735 34.3617 41.6445 34.864 42.1231 35.5626C42.6017 36.2613 42.8611 37.1173 42.8611 37.998C42.8611 38.8786 42.6017 39.7347 42.1231 40.4333C41.6445 41.132 40.9735 41.6343 40.2141 41.8622C39.4548 42.0901 38.6495 42.031 37.9231 41.694C37.1968 41.357 36.5901 40.7609 36.197 39.9982ZM10.7159 41.9985C11.3344 41.9987 11.9424 41.819 12.4803 41.4769C13.0182 41.1348 13.4676 40.6421 13.7844 40.047C14.1012 39.4519 14.2746 38.7749 14.2876 38.0821C14.3006 37.3894 14.1528 36.7048 13.8586 36.0953L21.8426 21.5584C22.0904 21.1068 22.168 20.5634 22.0584 20.0477C21.9487 19.532 21.6608 19.0861 21.2578 18.8081C20.3034 18.1499 19.5007 17.2494 18.9145 16.1793C18.3283 15.1092 17.9752 13.8996 17.8836 12.6483C17.792 11.3971 17.9646 10.1392 18.3874 8.97648C18.8102 7.81376 19.4713 6.7788 20.3173 5.9553C21.1633 5.1318 22.1704 4.54287 23.2572 4.23612C24.344 3.92938 25.48 3.91344 26.5733 4.18959C27.6667 4.46573 28.6866 5.02622 29.5508 5.82572C30.4149 6.62522 31.099 7.6413 31.5476 8.7918C31.737 9.2782 32.0912 9.66038 32.5322 9.85427C32.9732 10.0482 33.4649 10.0379 33.8991 9.82568C34.3333 9.61348 34.6745 9.21675 34.8476 8.72276C35.0206 8.22877 35.0115 7.678 34.822 7.19159C34.1788 5.54445 33.2134 4.08024 31.9973 2.90711C30.7811 1.73398 29.3451 0.881917 27.7955 0.41386C26.2459 -0.0541965 24.6223 -0.126286 23.0444 0.202917C21.4666 0.532119 19.975 1.2542 18.6797 2.31583C17.3845 3.37745 16.3187 4.75148 15.5611 6.33643C14.8035 7.92137 14.3735 9.67673 14.3028 11.4728C14.2321 13.2689 14.5225 15.0599 15.1526 16.7134C15.7827 18.3668 16.7364 19.8406 17.9432 21.0258L10.8141 33.9975C10.7806 33.9975 10.7493 33.9975 10.7159 33.9975C9.76869 33.9975 8.86032 34.419 8.19058 35.1692C7.52083 35.9194 7.14457 36.937 7.14457 37.998C7.14457 39.059 7.52083 40.0765 8.19058 40.8268C8.86032 41.577 9.76869 41.9985 10.7159 41.9985ZM39.2861 25.9965C37.9094 25.9966 36.5455 26.2928 35.2684 26.8691L28.1437 13.8949C28.5151 13.1243 28.6504 12.2385 28.529 11.3733C28.4076 10.5082 28.0361 9.71164 27.4715 9.10583C26.907 8.50003 26.1806 8.11847 25.4038 8.01971C24.627 7.92096 23.8427 8.11046 23.1713 8.55914C22.5 9.00782 21.9785 9.69088 21.6871 10.5035C21.3957 11.3161 21.3504 12.2134 21.5581 13.0577C21.7659 13.902 22.2152 14.6465 22.8371 15.1772C23.459 15.7078 24.2192 15.9952 25.001 15.9952H25.0992L33.0855 30.5345C33.3341 30.9855 33.7323 31.3075 34.1926 31.4299C34.6529 31.5522 35.1378 31.4649 35.5408 31.1871C36.4809 30.5379 37.5426 30.1418 38.6424 30.0298C39.7423 29.9178 40.8504 30.0931 41.8795 30.5418C42.9087 30.9905 43.831 31.7005 44.5739 32.6159C45.3168 33.5313 45.8601 34.6272 46.1611 35.8175C46.4621 37.0078 46.5126 38.26 46.3086 39.4759C46.1046 40.6917 45.6517 41.838 44.9854 42.8247C44.3192 43.8113 43.4578 44.6115 42.4689 45.1623C41.48 45.7131 40.3905 45.9995 39.2861 45.999C38.8126 45.999 38.3584 46.2097 38.0235 46.5849C37.6886 46.96 37.5005 47.4688 37.5005 47.9993C37.5005 48.5298 37.6886 49.0385 38.0235 49.4137C38.3584 49.7888 38.8126 49.9995 39.2861 49.9995C42.1276 49.9995 44.8527 48.7351 46.862 46.4844C48.8712 44.2336 50 41.181 50 37.998C50 34.815 48.8712 31.7624 46.862 29.5116C44.8527 27.2609 42.1276 25.9965 39.2861 25.9965Z" fill="#51D0FF"/>
</svg>
