<svg width="24" height="21" viewBox="0 0 24 21" fill="none" xmlns="http://www.w3.org/2000/svg">
<path d="M1 5.00784H5.125C5.3453 5.86826 5.8457 6.63088 6.54731 7.17548C7.24892 7.72008 8.11183 8.01569 9 8.01569C9.88817 8.01569 10.7511 7.72008 11.4527 7.17548C12.1543 6.63088 12.6547 5.86826 12.875 5.00784H23C23.2652 5.00784 23.5196 4.90249 23.7071 4.71495C23.8946 4.52741 24 4.27306 24 4.00784C24 3.74263 23.8946 3.48827 23.7071 3.30074C23.5196 3.1132 23.2652 3.00784 23 3.00784H12.875C12.6547 2.14743 12.1543 1.38481 11.4527 0.840204C10.7511 0.295602 9.88817 0 9 0C8.11183 0 7.24892 0.295602 6.54731 0.840204C5.8457 1.38481 5.3453 2.14743 5.125 3.00784H1C0.734784 3.00784 0.48043 3.1132 0.292893 3.30074C0.105357 3.48827 0 3.74263 0 4.00784C0 4.27306 0.105357 4.52741 0.292893 4.71495C0.48043 4.90249 0.734784 5.00784 1 5.00784ZM9 2.00784C9.39556 2.00784 9.78224 2.12514 10.1111 2.3449C10.44 2.56467 10.6964 2.87702 10.8478 3.24248C10.9991 3.60793 11.0387 4.01006 10.9616 4.39802C10.8844 4.78599 10.6939 5.14235 10.4142 5.42206C10.1345 5.70176 9.77814 5.89224 9.39018 5.96941C9.00222 6.04658 8.60009 6.00698 8.23463 5.8556C7.86918 5.70423 7.55682 5.44788 7.33706 5.11898C7.1173 4.79009 7 4.40341 7 4.00784C7 3.47741 7.21071 2.9687 7.58579 2.59363C7.96086 2.21856 8.46957 2.00784 9 2.00784ZM23 15.0078H20.875C20.6547 14.1474 20.1543 13.3848 19.4527 12.8402C18.7511 12.2956 17.8882 12 17 12C16.1118 12 15.2489 12.2956 14.5473 12.8402C13.8457 13.3848 13.3453 14.1474 13.125 15.0078H1C0.734784 15.0078 0.48043 15.1132 0.292893 15.3007C0.105357 15.4883 0 15.7426 0 16.0078C0 16.2731 0.105357 16.5274 0.292893 16.715C0.48043 16.9025 0.734784 17.0078 1 17.0078H13.125C13.3453 17.8683 13.8457 18.6309 14.5473 19.1755C15.2489 19.7201 16.1118 20.0157 17 20.0157C17.8882 20.0157 18.7511 19.7201 19.4527 19.1755C20.1543 18.6309 20.6547 17.8683 20.875 17.0078H23C23.2652 17.0078 23.5196 16.9025 23.7071 16.715C23.8946 16.5274 24 16.2731 24 16.0078C24 15.7426 23.8946 15.4883 23.7071 15.3007C23.5196 15.1132 23.2652 15.0078 23 15.0078ZM17 18.0078C16.6044 18.0078 16.2178 17.8905 15.8889 17.6708C15.56 17.451 15.3036 17.1387 15.1522 16.7732C15.0009 16.4078 14.9613 16.0056 15.0384 15.6177C15.1156 15.2297 15.3061 14.8733 15.5858 14.5936C15.8655 14.3139 16.2219 14.1234 16.6098 14.0463C16.9978 13.9691 17.3999 14.0087 17.7654 14.1601C18.1308 14.3115 18.4432 14.5678 18.6629 14.8967C18.8827 15.2256 19 15.6123 19 16.0078C19 16.5383 18.7893 17.047 18.4142 17.4221C18.0391 17.7971 17.5304 18.0078 17 18.0078Z" fill="black"/>
</svg>
