<svg width="24" height="26" viewBox="0 0 24 26" fill="none" xmlns="http://www.w3.org/2000/svg">
<path d="M24 12.9388C24 13.2149 23.8946 13.4797 23.7071 13.675C23.5196 13.8702 23.2652 13.9799 23 13.9799H13V24.3912C13 24.6673 12.8946 24.9321 12.7071 25.1273C12.5196 25.3226 12.2652 25.4323 12 25.4323C11.7348 25.4323 11.4804 25.3226 11.2929 25.1273C11.1054 24.9321 11 24.6673 11 24.3912V13.9799H1C0.734784 13.9799 0.48043 13.8702 0.292893 13.675C0.105357 13.4797 0 13.2149 0 12.9388C0 12.6627 0.105357 12.3979 0.292893 12.2026C0.48043 12.0074 0.734784 11.8977 1 11.8977H11V1.48644C11 1.21031 11.1054 0.945499 11.2929 0.750251C11.4804 0.555002 11.7348 0.445312 12 0.445312C12.2652 0.445312 12.5196 0.555002 12.7071 0.750251C12.8946 0.945499 13 1.21031 13 1.48644V11.8977H23C23.2652 11.8977 23.5196 12.0074 23.7071 12.2026C23.8946 12.3979 24 12.6627 24 12.9388Z" fill="#D9D9D9"/>
</svg>
