<svg width="31" height="41" viewBox="0 0 31 41" fill="none" xmlns="http://www.w3.org/2000/svg">
<path d="M30.5878 11.4997L20.7242 0.461251C20.5932 0.314858 20.4378 0.198774 20.2667 0.119632C20.0957 0.0404888 19.9124 -0.000162401 19.7273 4.87582e-07H2.81818C2.07075 4.87582e-07 1.35394 0.33228 0.825426 0.923741C0.296915 1.5152 0 2.31739 0 3.15385V37.8462C0 38.6826 0.296915 39.4848 0.825426 40.0763C1.35394 40.6677 2.07075 41 2.81818 41H28.1818C28.9292 41 29.6461 40.6677 30.1746 40.0763C30.7031 39.4848 31 38.6826 31 37.8462V12.6154C31.0001 12.4082 30.9638 12.2031 30.8931 12.0117C30.8224 11.8202 30.7187 11.6463 30.5878 11.4997ZM21.1364 5.38322L26.1897 11.0385H21.1364V5.38322ZM28.1818 37.8462H2.81818V3.15385H18.3182V12.6154C18.3182 13.0336 18.4666 13.4347 18.7309 13.7304C18.9951 14.0262 19.3536 14.1923 19.7273 14.1923H28.1818V37.8462ZM20.7242 22.5382C20.8551 22.6847 20.959 22.8586 21.0298 23.05C21.1007 23.2415 21.1371 23.4466 21.1371 23.6538C21.1371 23.861 21.1007 24.0662 21.0298 24.2576C20.959 24.4491 20.8551 24.623 20.7242 24.7695C20.5933 24.916 20.4379 25.0323 20.2668 25.1115C20.0958 25.1908 19.9124 25.2316 19.7273 25.2316C19.5421 25.2316 19.3588 25.1908 19.1877 25.1115C19.0167 25.0323 18.8613 24.916 18.7303 24.7695L16.9091 22.7294V31.5385C16.9091 31.9567 16.7606 32.3578 16.4964 32.6535C16.2321 32.9492 15.8737 33.1154 15.5 33.1154C15.1263 33.1154 14.7679 32.9492 14.5036 32.6535C14.2394 32.3578 14.0909 31.9567 14.0909 31.5385V22.7294L12.2697 24.7695C12.1387 24.916 11.9833 25.0323 11.8123 25.1115C11.6412 25.1908 11.4579 25.2316 11.2727 25.2316C11.0876 25.2316 10.9042 25.1908 10.7332 25.1115C10.5621 25.0323 10.4067 24.916 10.2758 24.7695C10.1449 24.623 10.041 24.4491 9.97017 24.2576C9.89932 24.0662 9.86285 23.861 9.86285 23.6538C9.86285 23.4466 9.89932 23.2415 9.97017 23.05C10.041 22.8586 10.1449 22.6847 10.2758 22.5382L14.5031 17.8074C14.6339 17.6608 14.7893 17.5445 14.9604 17.4651C15.1315 17.3858 15.3148 17.3449 15.5 17.3449C15.6852 17.3449 15.8685 17.3858 16.0396 17.4651C16.2107 17.5445 16.3661 17.6608 16.4969 17.8074L20.7242 22.5382Z" fill="#7A3BFF"/>
</svg>
