<svg width="41" height="41" viewBox="0 0 41 41" fill="none" xmlns="http://www.w3.org/2000/svg">
<path d="M22.9672 10.25V19.5327L30.3741 24.1601C30.7472 24.3935 31.016 24.7716 31.1213 25.2113C31.2267 25.651 31.16 26.1163 30.936 26.5048C30.7119 26.8933 30.3488 27.1732 29.9265 27.283C29.5043 27.3927 29.0575 27.3233 28.6844 27.0899L20.4818 21.9649C20.239 21.813 20.0382 21.5983 19.8987 21.3416C19.7593 21.0849 19.6861 20.795 19.6861 20.5V10.25C19.6861 9.79697 19.859 9.36245 20.1666 9.04208C20.4743 8.7217 20.8916 8.54172 21.3267 8.54172C21.7618 8.54172 22.179 8.7217 22.4867 9.04208C22.7943 9.36245 22.9672 9.79697 22.9672 10.25ZM21.3267 6.32322e-05C18.7387 -0.00664954 16.1752 0.521176 13.7845 1.55299C11.3938 2.58481 9.22332 4.10013 7.39871 6.01125C5.9079 7.58292 4.58318 9.09479 3.28102 10.6771V6.83339C3.28102 6.38031 3.10819 5.94579 2.80053 5.62541C2.49287 5.30504 2.0756 5.12506 1.64051 5.12506C1.20542 5.12506 0.788151 5.30504 0.480495 5.62541C0.172839 5.94579 0 6.38031 0 6.83339V15.375C0 15.8281 0.172839 16.2626 0.480495 16.583C0.788151 16.9034 1.20542 17.0834 1.64051 17.0834H9.84307C10.2782 17.0834 10.6954 16.9034 11.0031 16.583C11.3107 16.2626 11.4836 15.8281 11.4836 15.375C11.4836 14.922 11.3107 14.4874 11.0031 14.1671C10.6954 13.8467 10.2782 13.6667 9.84307 13.6667H5.1266C6.59281 11.8687 8.05287 10.1753 9.71799 8.42C11.998 6.04574 14.8994 4.42381 18.0595 3.75685C21.2197 3.08989 24.4985 3.40749 27.4863 4.66997C30.4742 5.93244 33.0385 8.08381 34.8588 10.8552C36.6792 13.6267 37.6749 16.8953 37.7215 20.2526C37.7682 23.61 36.8637 26.9072 35.1211 29.7323C33.3784 32.5575 30.875 34.7852 27.9235 36.1371C24.972 37.4891 21.7033 37.9053 18.526 37.3338C15.3486 36.7623 12.4034 35.2285 10.0584 32.9239C9.90166 32.7696 9.7173 32.6491 9.51582 32.569C9.31434 32.489 9.09969 32.451 8.88414 32.4574C8.66858 32.4637 8.45634 32.5142 8.25952 32.606C8.06271 32.6978 7.88518 32.829 7.73707 32.9922C7.58895 33.1554 7.47316 33.3474 7.3963 33.5572C7.31944 33.767 7.28302 33.9905 7.28911 34.215C7.29521 34.4395 7.3437 34.6605 7.43182 34.8654C7.51994 35.0704 7.64596 35.2553 7.80269 35.4095C10.1393 37.7056 12.98 39.3714 16.077 40.2614C19.174 41.1513 22.4331 41.2385 25.5699 40.5152C28.7066 39.7919 31.6257 38.2802 34.0724 36.1119C36.5191 33.9437 38.419 31.1848 39.6063 28.0761C40.7936 24.9674 41.2323 21.6033 40.884 18.2775C40.5356 14.9516 39.4109 11.7651 37.608 8.99599C35.8051 6.22688 33.3788 3.95934 30.5408 2.39126C27.7028 0.823189 24.5394 0.00224077 21.3267 6.32322e-05Z" fill="#7A3BFF"/>
</svg>
