<svg width="50" height="50" viewBox="0 0 50 50" fill="none" xmlns="http://www.w3.org/2000/svg">
<path d="M15.7063 50C34.575 50 44.8969 30.7587 44.8969 14.1019C44.901 13.5609 44.8948 13.0199 44.8781 12.4789C46.887 10.6876 48.6213 8.47125 50 5.93312C48.1222 6.9495 46.1333 7.62073 44.0969 7.92532C46.2425 6.34736 47.8494 3.86405 48.6187 0.937231C46.604 2.40916 44.3975 3.44099 42.0969 3.98707C40.5506 1.96034 38.5044 0.617701 36.2753 0.167109C34.0461 -0.283483 31.7585 0.183123 29.7667 1.49465C27.7749 2.80618 26.19 4.88944 25.2577 7.42173C24.3253 9.95403 24.0974 12.794 24.6094 15.5018C20.5302 15.2513 16.5395 13.9477 12.8963 11.6758C9.25316 9.40377 6.03898 6.21418 3.4625 2.31408C2.15494 5.09525 1.75609 8.38447 2.3469 11.5143C2.9377 14.6441 4.47389 17.3801 6.64375 19.167C5.0169 19.1023 3.4256 18.5646 2 17.5979V17.7709C2.00398 20.6838 2.82444 23.5058 4.32289 25.7605C5.82133 28.0152 7.906 29.5646 10.225 30.1472C9.34459 30.4459 8.4351 30.5947 7.52188 30.5895C6.87787 30.5977 6.23489 30.5243 5.60313 30.3703C6.25748 32.879 7.53368 35.0725 9.25261 36.6431C10.9715 38.2137 13.0469 39.0825 15.1875 39.1275C11.5503 42.6387 7.06014 44.5444 2.4375 44.5387C1.62281 44.5463 0.808582 44.4885 0 44.3657C4.69194 48.0481 10.1415 50.003 15.7063 50Z" fill="#7A3BFF"/>
</svg>
