<svg width="40" height="36" viewBox="0 0 40 36" fill="none" xmlns="http://www.w3.org/2000/svg">
<path d="M36.8 6.62744H4.8C4.37565 6.62744 3.96869 6.45792 3.66863 6.15617C3.36857 5.85443 3.2 5.44517 3.2 5.01843C3.2 4.5917 3.36857 4.18244 3.66863 3.88069C3.96869 3.57894 4.37565 3.40942 4.8 3.40942H32C32.4243 3.40942 32.8313 3.2399 33.1314 2.93816C33.4314 2.63641 33.6 2.22715 33.6 1.80042C33.6 1.37368 33.4314 0.964422 33.1314 0.662674C32.8313 0.360927 32.4243 0.191406 32 0.191406H4.8C3.52696 0.191406 2.30606 0.699967 1.40589 1.60521C0.505713 2.51045 0 3.73823 0 5.01843V30.7626C0 32.0428 0.505713 33.2706 1.40589 34.1758C2.30606 35.081 3.52696 35.5896 4.8 35.5896H36.8C37.6487 35.5896 38.4626 35.2506 39.0627 34.6471C39.6629 34.0436 40 33.2251 40 32.3716V9.84546C40 8.99199 39.6629 8.17347 39.0627 7.56998C38.4626 6.96648 37.6487 6.62744 36.8 6.62744ZM36.8 32.3716H4.8C4.37565 32.3716 3.96869 32.2021 3.66863 31.9003C3.36857 31.5986 3.2 31.1893 3.2 30.7626V9.56992C3.71375 9.75306 4.25493 9.84626 4.8 9.84546H36.8V32.3716ZM27.2 20.304C27.2 19.8267 27.3408 19.36 27.6045 18.9631C27.8682 18.5662 28.243 18.2569 28.6816 18.0742C29.1201 17.8915 29.6027 17.8438 30.0682 17.9369C30.5338 18.03 30.9614 18.2599 31.2971 18.5974C31.6327 18.9349 31.8613 19.365 31.9539 19.8332C32.0465 20.3013 31.999 20.7866 31.8173 21.2276C31.6357 21.6686 31.328 22.0456 30.9334 22.3108C30.5387 22.576 30.0747 22.7175 29.6 22.7175C28.9635 22.7175 28.353 22.4632 27.9029 22.0106C27.4529 21.558 27.2 20.9441 27.2 20.304Z" fill="#7A3BFF"/>
</svg>
