<svg width="50" height="50" viewBox="0 0 50 50" fill="none" xmlns="http://www.w3.org/2000/svg">
<path d="M25.1609 0H25.4391C28.008 0.0133464 41.0244 0.146811 44.534 1.49035C45.595 1.90039 46.5618 2.69963 47.3378 3.8082C48.1138 4.91678 48.6719 6.29586 48.9562 7.80763C49.2718 9.49818 49.4937 11.7359 49.6437 14.0448L49.675 14.5075L49.7437 15.6642L49.7687 16.1269C49.9719 20.1931 49.9969 24.0012 50 24.8332V25.1668C49.9969 26.0299 49.9688 30.0961 49.7437 34.3313L49.7187 34.7985L49.6906 35.2611C49.5343 37.8059 49.3031 40.3328 48.9562 42.1924C48.6719 43.7041 48.1138 45.0832 47.3378 46.1918C46.5618 47.3004 45.595 48.0996 44.534 48.5097C40.9088 49.8977 27.1298 49.9956 25.2203 50H24.7766C23.8109 50 19.8169 49.9733 15.6291 49.7687L15.0978 49.742L14.8259 49.7242L14.2915 49.693L13.7571 49.6619C10.2881 49.4439 6.98481 49.0924 5.46284 48.5052C4.40223 48.0956 3.43568 47.297 2.6597 46.1892C1.88372 45.0815 1.32547 43.7033 1.04069 42.1924C0.693793 40.3372 0.462529 37.8059 0.306269 35.2611L0.281268 34.794L0.256266 34.3313C0.101142 31.3169 0.0156738 28.296 0 25.2736L0 24.7264C0.00625039 23.7699 0.031252 20.4645 0.200013 16.8164L0.221889 16.3582L0.231264 16.1269L0.256266 15.6642L0.32502 14.5075L0.356272 14.0448C0.506282 11.7359 0.728171 9.49373 1.04382 7.80763C1.32812 6.29586 1.88616 4.91678 2.66217 3.8082C3.43818 2.69963 4.40498 1.90039 5.46597 1.49035C6.98794 0.912004 10.2913 0.556099 13.7602 0.333659L14.2915 0.302518L14.8291 0.275826L15.0978 0.262479L15.6322 0.231338C18.6065 0.0952203 21.582 0.0195825 24.5578 0.004449L25.1609 0ZM20.0013 14.2806V35.7149L32.9927 25.0022L20.0013 14.2806Z" fill="#7A3BFF"/>
</svg>
