<svg width="42" height="34" viewBox="0 0 42 34" fill="none" xmlns="http://www.w3.org/2000/svg">
<path d="M30.8 9.57602V8.5C30.8 3.655 24.1797 0 15.4 0C6.62025 0 0 3.655 0 8.5V16.2273C0 20.2628 4.59375 23.4697 11.2 24.4298V25.5C11.2 30.345 17.8202 34 26.6 34C35.3797 34 42 30.345 42 25.5V17.7727C42 13.7739 37.5515 10.5632 30.8 9.57602ZM39.2 17.7727C39.2 20.3266 33.8117 23.1818 26.6 23.1818C25.9473 23.1818 25.2997 23.1567 24.661 23.1103C28.4357 21.5919 30.8 19.125 30.8 16.2273V12.6998C36.0272 13.5594 39.2 15.8931 39.2 17.7727ZM11.2 21.2983V16.7025C12.5926 16.9028 13.9956 17.0022 15.4 17C16.8044 17.0022 18.2074 16.9028 19.6 16.7025V21.2983C18.2095 21.5251 16.8056 21.6381 15.4 21.6364C13.9944 21.6381 12.5905 21.5251 11.2 21.2983ZM28 13.5092V16.2273C28 17.8481 25.8282 19.5886 22.4 20.6453V16.1307C24.6593 15.526 26.572 14.6258 28 13.5092ZM15.4 3.09091C22.6117 3.09091 28 5.94614 28 8.5C28 11.0539 22.6117 13.9091 15.4 13.9091C8.18825 13.9091 2.8 11.0539 2.8 8.5C2.8 5.94614 8.18825 3.09091 15.4 3.09091ZM2.8 16.2273V13.5092C4.228 14.6258 6.14075 15.526 8.4 16.1307V20.6453C4.97175 19.5886 2.8 17.8481 2.8 16.2273ZM14 25.5V24.6944C14.4602 24.7137 14.9257 24.7273 15.4 24.7273C16.079 24.7273 16.7423 24.7022 17.3932 24.6597C18.1165 24.9455 18.8531 25.1879 19.6 25.386V29.9181C16.1717 28.8614 14 27.1208 14 25.5ZM22.4 30.571V25.9636C23.7922 26.1702 25.1953 26.2735 26.6 26.2727C28.0044 26.2749 29.4074 26.1755 30.8 25.9752V30.571C28.0149 31.0218 25.1851 31.0218 22.4 30.571ZM33.6 29.9181V25.4034C35.8592 24.7987 37.772 23.8985 39.2 22.7819V25.5C39.2 27.1208 37.0282 28.8614 33.6 29.9181Z" fill="#7A3BFF"/>
</svg>
