<svg width="30" height="28" viewBox="0 0 30 28" fill="none" xmlns="http://www.w3.org/2000/svg">
<path d="M10.9091 0H2.72727C2.00396 0 1.31026 0.268181 0.7988 0.745546C0.287337 1.22291 0 1.87036 0 2.54545V10.1818C0 10.8569 0.287337 11.5044 0.7988 11.9817C1.31026 12.4591 2.00396 12.7273 2.72727 12.7273H10.9091C11.6324 12.7273 12.3261 12.4591 12.8376 11.9817C13.349 11.5044 13.6364 10.8569 13.6364 10.1818V2.54545C13.6364 1.87036 13.349 1.22291 12.8376 0.745546C12.3261 0.268181 11.6324 0 10.9091 0ZM10.9091 10.1818H2.72727V2.54545H10.9091V10.1818ZM10.9091 15.2727H2.72727C2.00396 15.2727 1.31026 15.5409 0.7988 16.0183C0.287337 16.4956 0 17.1431 0 17.8182V25.4545C0 26.1296 0.287337 26.7771 0.7988 27.2545C1.31026 27.7318 2.00396 28 2.72727 28H10.9091C11.6324 28 12.3261 27.7318 12.8376 27.2545C13.349 26.7771 13.6364 26.1296 13.6364 25.4545V17.8182C13.6364 17.1431 13.349 16.4956 12.8376 16.0183C12.3261 15.5409 11.6324 15.2727 10.9091 15.2727ZM10.9091 25.4545H2.72727V17.8182H10.9091V25.4545ZM27.2727 0H19.0909C18.3676 0 17.6739 0.268181 17.1624 0.745546C16.651 1.22291 16.3636 1.87036 16.3636 2.54545V10.1818C16.3636 10.8569 16.651 11.5044 17.1624 11.9817C17.6739 12.4591 18.3676 12.7273 19.0909 12.7273H27.2727C27.996 12.7273 28.6897 12.4591 29.2012 11.9817C29.7127 11.5044 30 10.8569 30 10.1818V2.54545C30 1.87036 29.7127 1.22291 29.2012 0.745546C28.6897 0.268181 27.996 0 27.2727 0ZM27.2727 10.1818H19.0909V2.54545H27.2727V10.1818ZM16.3636 21.6364V16.5455C16.3636 16.2079 16.5073 15.8842 16.763 15.6455C17.0188 15.4068 17.3656 15.2727 17.7273 15.2727C18.0889 15.2727 18.4358 15.4068 18.6915 15.6455C18.9472 15.8842 19.0909 16.2079 19.0909 16.5455V21.6364C19.0909 21.9739 18.9472 22.2976 18.6915 22.5363C18.4358 22.775 18.0889 22.9091 17.7273 22.9091C17.3656 22.9091 17.0188 22.775 16.763 22.5363C16.5073 22.2976 16.3636 21.9739 16.3636 21.6364ZM30 19.0909C30 19.4285 29.8563 19.7522 29.6006 19.9909C29.3449 20.2295 28.998 20.3636 28.6364 20.3636H24.5455V26.7273C24.5455 27.0648 24.4018 27.3885 24.1461 27.6272C23.8903 27.8659 23.5435 28 23.1818 28H17.7273C17.3656 28 17.0188 27.8659 16.763 27.6272C16.5073 27.3885 16.3636 27.0648 16.3636 26.7273C16.3636 26.3897 16.5073 26.066 16.763 25.8273C17.0188 25.5886 17.3656 25.4545 17.7273 25.4545H21.8182V16.5455C21.8182 16.2079 21.9618 15.8842 22.2176 15.6455C22.4733 15.4068 22.8202 15.2727 23.1818 15.2727C23.5435 15.2727 23.8903 15.4068 24.1461 15.6455C24.4018 15.8842 24.5455 16.2079 24.5455 16.5455V17.8182H28.6364C28.998 17.8182 29.3449 17.9523 29.6006 18.191C29.8563 18.4296 30 18.7534 30 19.0909ZM30 24.1818V26.7273C30 27.0648 29.8563 27.3885 29.6006 27.6272C29.3449 27.8659 28.998 28 28.6364 28C28.2747 28 27.9279 27.8659 27.6721 27.6272C27.4164 27.3885 27.2727 27.0648 27.2727 26.7273V24.1818C27.2727 23.8443 27.4164 23.5205 27.6721 23.2819C27.9279 23.0432 28.2747 22.9091 28.6364 22.9091C28.998 22.9091 29.3449 23.0432 29.6006 23.2819C29.8563 23.5205 30 23.8443 30 24.1818Z" fill="#D9D9D9"/>
</svg>
