<svg width="64" height="62" viewBox="0 0 64 62" fill="none" xmlns="http://www.w3.org/2000/svg">
<g clip-path="url(#clip0_1_778)">
<path d="M24.6677 31C24.2317 31 23.7999 31.0832 23.3971 31.2448C22.9943 31.4065 22.6284 31.6434 22.3201 31.942C22.0118 32.2407 21.7672 32.5952 21.6004 32.9854C21.4335 33.3757 21.3477 33.7939 21.3477 34.2162C21.3477 35.9949 22.8357 37.4713 24.6677 37.4364C25.5288 37.4074 26.3446 37.0557 26.9432 36.4553C27.5418 35.855 27.8764 35.0529 27.8764 34.2182C27.8764 33.3835 27.5418 32.5814 26.9432 31.9811C26.3446 31.3807 25.5288 31.029 24.6677 31ZM32.0397 45.1321C33.2997 45.1321 37.6517 44.9849 39.9437 42.7645C40.0938 42.6013 40.1767 42.3903 40.1767 42.1716C40.1767 41.953 40.0938 41.742 39.9437 41.5787C39.8642 41.4993 39.7691 41.4361 39.664 41.393C39.5588 41.3498 39.4458 41.3276 39.3317 41.3276C39.2175 41.3276 39.1045 41.3498 38.9993 41.393C38.8942 41.4361 38.7991 41.4993 38.7197 41.5787C37.3077 42.9854 34.2157 43.4659 32.0397 43.4659C29.8597 43.4659 26.8077 42.9854 25.3557 41.5787C25.2762 41.4993 25.1811 41.4361 25.076 41.393C24.9708 41.3498 24.8578 41.3276 24.7437 41.3276C24.6295 41.3276 24.5165 41.3498 24.4113 41.393C24.3062 41.4361 24.2111 41.4993 24.1317 41.5787C24.0496 41.6557 23.9844 41.7478 23.9399 41.8497C23.8954 41.9515 23.8724 42.061 23.8724 42.1716C23.8724 42.2822 23.8954 42.3917 23.9399 42.4936C23.9844 42.5954 24.0496 42.6875 24.1317 42.7645C26.3877 44.9461 30.7397 45.1283 32.0397 45.1283V45.1321ZM36.0077 34.255C36.0077 36.0298 37.4997 37.4713 39.3317 37.4713C41.1637 37.4713 42.6517 35.9949 42.6517 34.255C42.6098 33.4293 42.2418 32.6508 41.6237 32.0808C41.0057 31.5107 40.185 31.1928 39.3317 31.1928C38.4783 31.1928 37.6576 31.5107 37.0396 32.0808C36.4216 32.6508 36.0535 33.4293 36.0117 34.255H36.0077Z" fill="#51D0FF"/>
<path d="M64 31C64 39.2217 60.6286 47.1067 54.6274 52.9203C48.6263 58.7339 40.4869 62 32 62C23.5131 62 15.3737 58.7339 9.37258 52.9203C3.37142 47.1067 0 39.2217 0 31C0 22.7783 3.37142 14.8933 9.37258 9.07969C15.3737 3.26606 23.5131 0 32 0C40.4869 0 48.6263 3.26606 54.6274 9.07969C60.6286 14.8933 64 22.7783 64 31ZM48.688 26.4856C47.428 26.4856 46.28 26.9661 45.44 27.745C42.236 25.5246 37.84 24.0831 32.956 23.8971L35.092 14.2057L42.044 15.6473C42.0745 16.2761 42.2949 16.8824 42.6778 17.3911C43.0606 17.8997 43.5892 18.2884 44.1979 18.5088C44.8066 18.7292 45.4687 18.7717 46.1021 18.6311C46.7355 18.4904 47.3123 18.1728 47.7612 17.7176C48.21 17.2623 48.5111 16.6895 48.627 16.0701C48.743 15.4506 48.6688 14.8119 48.4136 14.2329C48.1583 13.654 47.7333 13.1603 47.1913 12.8132C46.6492 12.466 46.0138 12.2806 45.364 12.2799C44.7424 12.282 44.134 12.4531 43.6079 12.7737C43.0817 13.0943 42.6591 13.5515 42.388 14.0934L34.636 12.5046C34.5317 12.4822 34.4238 12.4802 34.3187 12.4989C34.2136 12.5175 34.1134 12.5564 34.024 12.6131C33.933 12.6722 33.8555 12.7488 33.7964 12.8382C33.7372 12.9275 33.6976 13.0276 33.68 13.1324L31.312 23.9359C26.352 24.0831 21.88 25.5246 18.632 27.7799C17.792 27.0049 16.648 26.5244 15.392 26.5244C14.3268 26.5229 13.2934 26.8755 12.4643 27.5234C11.6353 28.1713 11.0608 29.0752 10.837 30.084C10.6132 31.0929 10.7535 32.1456 11.2346 33.0663C11.7156 33.9869 12.5082 34.7198 13.48 35.1424C13.4 35.5815 13.3613 36.0375 13.364 36.5103C13.364 43.4659 21.728 49.1273 32.04 49.1273C42.352 49.1273 50.712 43.5046 50.712 36.5103C50.712 36.0685 50.672 35.588 50.596 35.1424C52.2 34.441 53.348 32.8484 53.348 31C53.348 28.4813 51.248 26.4856 48.688 26.4856Z" fill="#51D0FF"/>
</g>
<defs>
<clipPath id="clip0_1_778">
<rect width="64" height="62" fill="white"/>
</clipPath>
</defs>
</svg>
