<svg width="387" height="237" viewBox="0 0 387 237" fill="none" xmlns="http://www.w3.org/2000/svg">
<path d="M410.86 592.617L410.926 592.53L410.522 592.221H410.014H-36.196C-36.2197 592.165 -36.2445 592.107 -36.2704 592.046C-36.5743 591.331 -37.0231 590.269 -37.6019 588.885C-38.7595 586.116 -40.4368 582.056 -42.5141 576.895C-46.6686 566.573 -52.422 551.851 -58.8149 534.256C-71.6034 499.057 -86.9389 452.39 -97.1586 406.46C-107.392 360.466 -112.438 315.451 -104.843 283.435C-101.053 267.459 -94.1529 254.879 -83.338 246.969C-72.5401 239.071 -57.6076 235.657 -37.3932 238.478C-16.4388 241.401 2.45521 234.865 19.8803 222.443C37.2756 210.043 53.275 191.732 68.5309 170.954C81.2264 153.664 93.4624 134.587 105.582 115.69C108.029 111.875 110.471 108.068 112.911 104.285C127.458 81.7264 141.94 60.0009 157.034 42.3576C172.14 24.7001 187.739 11.2763 204.469 5.15305C221.103 -0.935109 239.012 0.135688 258.97 11.7981C279 23.5031 301.095 45.8849 325.872 82.4452C350.637 118.987 378.013 169.59 408.646 237.608C469.937 373.697 500.532 463.927 511.993 522.721C517.725 552.122 518.651 573.566 516.293 588.909C513.938 604.236 508.335 613.33 501.12 618.302C493.883 623.289 484.735 624.33 474.882 622.929C465.034 621.529 454.651 617.709 445.141 613.195C435.643 608.686 427.083 603.516 420.893 599.469C417.8 597.447 415.303 595.708 413.581 594.477C412.72 593.861 412.054 593.372 411.604 593.038C411.379 592.871 411.208 592.743 411.094 592.657L411.014 592.597L410.966 592.561L410.935 592.537L410.928 592.531C410.927 592.531 410.927 592.53 410.86 592.617Z" fill="url(#paint0_linear_1_5460)" fill-opacity="0.46" stroke="#51D0FF" stroke-width="3"/>
<defs>
<linearGradient id="paint0_linear_1_5460" x1="204.5" y1="0" x2="204.5" y2="625" gradientUnits="userSpaceOnUse">
<stop stop-color="#00BAFF"/>
<stop offset="0.776315"/>
</linearGradient>
</defs>
</svg>
