<svg width="407" height="329" viewBox="0 0 407 329" fill="none" xmlns="http://www.w3.org/2000/svg">
<rect x="3" y="300" width="300" height="373" rx="20" transform="rotate(-90 3 300)" fill="#190042"/>
<path d="M345.048 32L349.084 36L353.12 32" stroke="#D9D9D9"/>
<line x1="52.4404" y1="75.5" x2="365.228" y2="75.5" stroke="#626262"/>
<line x1="122.026" y1="246.922" x2="122.026" y2="76.1123" stroke="#626262"/>
<line x1="211.078" y1="246.922" x2="211.078" y2="76.1123" stroke="#626262"/>
<line x1="300.129" y1="246.922" x2="300.129" y2="76.1123" stroke="#626262"/>
<line x1="364.386" y1="246.037" x2="364.386" y2="75.2273" stroke="#626262"/>
<line x1="52.4404" y1="103.5" x2="365.228" y2="103.5" stroke="#626262"/>
<line x1="52.4404" y1="132.5" x2="365.228" y2="132.5" stroke="#626262"/>
<line x1="52.4404" y1="161.5" x2="365.228" y2="161.5" stroke="#626262"/>
<line x1="52.4404" y1="188.5" x2="365.228" y2="188.5" stroke="#626262"/>
<line x1="52.4404" y1="218.5" x2="365.228" y2="218.5" stroke="#626262"/>
<line x1="52.4404" y1="246.5" x2="365.228" y2="246.5" stroke="#626262"/>
<path d="M58.4941 238.748C182.614 248.837 213.93 -49.1637 364.219 238.748" stroke="#51D0FF" stroke-width="2"/>
<rect x="262.809" y="16.5" width="101.917" height="34" rx="17" stroke="#51D0FF"/>
<path d="M279.428 37.4431L277.209 29.4431H278.479L280.037 35.6384H280.111L281.732 29.4431H282.99L284.611 35.6423H284.686L286.24 29.4431H287.514L285.291 37.4431H284.076L282.393 31.4509H282.33L280.646 37.4431H279.428ZM290.296 37.5642C289.704 37.5642 289.195 37.4379 288.768 37.1853C288.344 36.9301 288.016 36.572 287.784 36.1111C287.555 35.6475 287.44 35.1046 287.44 34.4822C287.44 33.8676 287.555 33.3259 287.784 32.8572C288.016 32.3884 288.339 32.0225 288.753 31.7595C289.169 31.4965 289.656 31.365 290.214 31.365C290.552 31.365 290.88 31.421 291.198 31.533C291.516 31.6449 291.801 31.8207 292.053 32.0603C292.306 32.2999 292.505 32.6111 292.651 32.9939C292.797 33.3741 292.87 33.8363 292.87 34.3806V34.7947H288.1V33.9197H291.725C291.725 33.6124 291.663 33.3403 291.538 33.1033C291.413 32.8637 291.237 32.6749 291.01 32.5369C290.787 32.3988 290.523 32.3298 290.221 32.3298C289.893 32.3298 289.607 32.4106 289.362 32.572C289.12 32.7309 288.932 32.9392 288.8 33.197C288.669 33.4522 288.604 33.7296 288.604 34.0291V34.7126C288.604 35.1137 288.675 35.4548 288.815 35.7361C288.958 36.0173 289.158 36.2322 289.413 36.3806C289.668 36.5264 289.966 36.5994 290.307 36.5994C290.529 36.5994 290.731 36.5681 290.913 36.5056C291.095 36.4405 291.253 36.3442 291.385 36.2166C291.518 36.0889 291.62 35.9314 291.69 35.7439L292.796 35.9431C292.707 36.2686 292.548 36.5538 292.319 36.7986C292.092 37.0408 291.807 37.2296 291.464 37.365C291.122 37.4978 290.733 37.5642 290.296 37.5642ZM296.532 37.5642C295.941 37.5642 295.431 37.4379 295.004 37.1853C294.58 36.9301 294.252 36.572 294.02 36.1111C293.791 35.6475 293.676 35.1046 293.676 34.4822C293.676 33.8676 293.791 33.3259 294.02 32.8572C294.252 32.3884 294.575 32.0225 294.989 31.7595C295.405 31.4965 295.892 31.365 296.45 31.365C296.788 31.365 297.116 31.421 297.434 31.533C297.752 31.6449 298.037 31.8207 298.289 32.0603C298.542 32.2999 298.741 32.6111 298.887 32.9939C299.033 33.3741 299.106 33.8363 299.106 34.3806V34.7947H294.336V33.9197H297.961C297.961 33.6124 297.899 33.3403 297.774 33.1033C297.649 32.8637 297.473 32.6749 297.247 32.5369C297.023 32.3988 296.76 32.3298 296.457 32.3298C296.129 32.3298 295.843 32.4106 295.598 32.572C295.356 32.7309 295.168 32.9392 295.036 33.197C294.905 33.4522 294.84 33.7296 294.84 34.0291V34.7126C294.84 35.1137 294.911 35.4548 295.051 35.7361C295.194 36.0173 295.394 36.2322 295.649 36.3806C295.904 36.5264 296.202 36.5994 296.543 36.5994C296.765 36.5994 296.967 36.5681 297.149 36.5056C297.331 36.4405 297.489 36.3442 297.622 36.2166C297.754 36.0889 297.856 35.9314 297.926 35.7439L299.032 35.9431C298.943 36.2686 298.784 36.5538 298.555 36.7986C298.329 37.0408 298.043 37.2296 297.7 37.365C297.359 37.4978 296.969 37.5642 296.532 37.5642ZM301.256 35.408L301.248 33.9822H301.451L303.842 31.4431H305.24L302.514 34.3337H302.33L301.256 35.408ZM300.182 37.4431V29.4431H301.35V37.4431H300.182ZM303.971 37.4431L301.822 34.5916L302.627 33.7751L305.404 37.4431H303.971Z" fill="#E3E3E3"/>
<path d="M29.4212 34.0698V23.1607H33.3097C34.1584 23.1607 34.8615 23.3152 35.419 23.6242C35.9766 23.9331 36.3938 24.3557 36.6708 24.8919C36.9478 25.4246 37.0863 26.0247 37.0863 26.6923C37.0863 27.3635 36.946 27.9672 36.6655 28.5034C36.3885 29.0361 35.9695 29.4587 35.4084 29.7712C34.8509 30.0801 34.1495 30.2346 33.3043 30.2346H30.6303V28.839H33.1552C33.6914 28.839 34.1264 28.7467 34.4602 28.562C34.794 28.3738 35.0391 28.1181 35.1953 27.795C35.3516 27.4718 35.4297 27.1043 35.4297 26.6923C35.4297 26.2804 35.3516 25.9146 35.1953 25.595C35.0391 25.2754 34.7923 25.0251 34.4549 24.844C34.1211 24.6629 33.6808 24.5723 33.1339 24.5723H31.0671V34.0698H29.4212ZM38.5881 34.0698V25.888H40.1275V27.1877H40.2127C40.3618 26.7474 40.6246 26.4011 41.001 26.149C41.381 25.8933 41.8107 25.7655 42.2901 25.7655C42.3895 25.7655 42.5067 25.769 42.6417 25.7761C42.7802 25.7832 42.8885 25.7921 42.9666 25.8028V27.3262C42.9027 27.3085 42.789 27.2889 42.6257 27.2676C42.4623 27.2428 42.299 27.2303 42.1356 27.2303C41.7592 27.2303 41.4236 27.3102 41.1289 27.47C40.8377 27.6263 40.6069 27.8447 40.4364 28.1252C40.266 28.4022 40.1807 28.7183 40.1807 29.0734V34.0698H38.5881ZM44.0449 34.0698V25.888H45.6376V34.0698H44.0449ZM44.8492 24.6256C44.5722 24.6256 44.3343 24.5332 44.1354 24.3486C43.9401 24.1604 43.8425 23.9367 43.8425 23.6774C43.8425 23.4146 43.9401 23.1909 44.1354 23.0063C44.3343 22.818 44.5722 22.7239 44.8492 22.7239C45.1262 22.7239 45.3624 22.818 45.5577 23.0063C45.7565 23.1909 45.856 23.4146 45.856 23.6774C45.856 23.9367 45.7565 24.1604 45.5577 24.3486C45.3624 24.5332 45.1262 24.6256 44.8492 24.6256ZM50.9266 34.235C50.1347 34.235 49.4529 34.0556 48.8812 33.697C48.313 33.3347 47.8762 32.8358 47.5708 32.2002C47.2654 31.5645 47.1127 30.8365 47.1127 30.0162C47.1127 29.1852 47.2689 28.4519 47.5814 27.8163C47.8939 27.1771 48.3343 26.6781 48.9025 26.3195C49.4707 25.9608 50.14 25.7815 50.9106 25.7815C51.5321 25.7815 52.0861 25.8969 52.5726 26.1277C53.0591 26.355 53.4515 26.6746 53.7498 27.0865C54.0516 27.4984 54.2309 27.9796 54.2878 28.5301H52.7377C52.6525 28.1465 52.4572 27.8163 52.1518 27.5393C51.8499 27.2623 51.4451 27.1238 50.9373 27.1238C50.4934 27.1238 50.1045 27.241 49.7707 27.4754C49.4405 27.7062 49.183 28.0364 48.9983 28.4661C48.8137 28.8923 48.7214 29.3965 48.7214 29.9789C48.7214 30.5755 48.8119 31.0904 48.993 31.5237C49.1741 31.9569 49.4298 32.2925 49.7601 32.5304C50.0939 32.7683 50.4863 32.8873 50.9373 32.8873C51.2391 32.8873 51.5126 32.8323 51.7576 32.7222C52.0062 32.6085 52.2139 32.447 52.3808 32.2374C52.5513 32.0279 52.6702 31.7758 52.7377 31.481H54.2878C54.2309 32.0102 54.0587 32.4825 53.7711 32.8979C53.4834 33.3134 53.0981 33.6401 52.6152 33.8781C52.1358 34.116 51.5729 34.235 50.9266 34.235ZM59.2173 34.235C58.4111 34.235 57.7169 34.0627 57.1345 33.7183C56.5557 33.3703 56.1082 32.882 55.7922 32.2534C55.4797 31.6213 55.3234 30.8809 55.3234 30.0322C55.3234 29.1941 55.4797 28.4555 55.7922 27.8163C56.1082 27.1771 56.5486 26.6781 57.1132 26.3195C57.6814 25.9608 58.3455 25.7815 59.1054 25.7815C59.567 25.7815 60.0145 25.8578 60.4477 26.0105C60.881 26.1632 61.2698 26.4029 61.6143 26.7296C61.9587 27.0563 62.2304 27.4807 62.4293 28.0027C62.6281 28.5212 62.7276 29.1515 62.7276 29.8937V30.4583H56.2236V29.2651H61.1668C61.1668 28.8461 61.0816 28.475 60.9112 28.1519C60.7407 27.8252 60.501 27.5677 60.192 27.3795C59.8866 27.1913 59.528 27.0972 59.1161 27.0972C58.6686 27.0972 58.278 27.2073 57.9442 27.4274C57.6139 27.644 57.3582 27.9281 57.1771 28.2797C56.9996 28.6277 56.9108 29.0059 56.9108 29.4143V30.3465C56.9108 30.8933 57.0067 31.3585 57.1984 31.7421C57.3937 32.1256 57.6654 32.4185 58.0134 32.621C58.3614 32.8198 58.768 32.9193 59.2332 32.9193C59.5351 32.9193 59.8103 32.8766 60.0589 32.7914C60.3075 32.7026 60.5223 32.5712 60.7034 32.3972C60.8845 32.2232 61.023 32.0084 61.1189 31.7527L62.6263 32.0244C62.5056 32.4683 62.289 32.8571 61.9765 33.1909C61.6675 33.5212 61.2787 33.7786 60.8099 33.9633C60.3447 34.1444 59.8138 34.235 59.2173 34.235ZM71.3108 34.235C70.5189 34.235 69.8371 34.0556 69.2653 33.697C68.6972 33.3347 68.2604 32.8358 67.955 32.2002C67.6496 31.5645 67.4969 30.8365 67.4969 30.0162C67.4969 29.1852 67.6531 28.4519 67.9656 27.8163C68.2781 27.1771 68.7185 26.6781 69.2866 26.3195C69.8548 25.9608 70.5242 25.7815 71.2948 25.7815C71.9163 25.7815 72.4702 25.8969 72.9567 26.1277C73.4433 26.355 73.8357 26.6746 74.1339 27.0865C74.4358 27.4984 74.6151 27.9796 74.6719 28.5301H73.1219C73.0366 28.1465 72.8413 27.8163 72.5359 27.5393C72.2341 27.2623 71.8293 27.1238 71.3214 27.1238C70.8776 27.1238 70.4887 27.241 70.1549 27.4754C69.8246 27.7062 69.5672 28.0364 69.3825 28.4661C69.1979 28.8923 69.1055 29.3965 69.1055 29.9789C69.1055 30.5755 69.1961 31.0904 69.3772 31.5237C69.5583 31.9569 69.814 32.2925 70.1442 32.5304C70.4781 32.7683 70.8705 32.8873 71.3214 32.8873C71.6233 32.8873 71.8967 32.8323 72.1418 32.7222C72.3903 32.6085 72.5981 32.447 72.765 32.2374C72.9354 32.0279 73.0544 31.7758 73.1219 31.481H74.6719C74.6151 32.0102 74.4429 32.4825 74.1553 32.8979C73.8676 33.3134 73.4823 33.6401 72.9994 33.8781C72.52 34.116 71.9571 34.235 71.3108 34.235ZM77.6678 29.2119V34.0698H76.0752V23.1607H77.6465V27.2197H77.7477C77.9395 26.7793 78.2325 26.4296 78.6267 26.1703C79.0208 25.9111 79.5357 25.7815 80.1714 25.7815C80.7325 25.7815 81.2225 25.8969 81.6416 26.1277C82.0642 26.3585 82.3909 26.703 82.6217 27.1611C82.8561 27.6156 82.9732 28.1838 82.9732 28.8656V34.0698H81.3806V29.0574C81.3806 28.4573 81.2261 27.9921 80.9171 27.6618C80.6082 27.328 80.1785 27.1611 79.6281 27.1611C79.2517 27.1611 78.9143 27.241 78.616 27.4008C78.3213 27.5606 78.0887 27.795 77.9182 28.1039C77.7513 28.4093 77.6678 28.7786 77.6678 29.2119ZM87.1796 34.2509C86.6612 34.2509 86.1924 34.1551 85.7734 33.9633C85.3543 33.768 85.0223 33.4857 84.7773 33.1163C84.5358 32.747 84.4151 32.2943 84.4151 31.758C84.4151 31.2964 84.5039 30.9164 84.6814 30.6181C84.859 30.3198 85.0987 30.0837 85.4005 29.9097C85.7024 29.7357 86.0397 29.6043 86.4126 29.5155C86.7855 29.4267 87.1654 29.3592 87.5525 29.3131C88.0426 29.2563 88.4403 29.2101 88.7457 29.1746C89.0511 29.1355 89.273 29.0734 89.4115 28.9881C89.55 28.9029 89.6193 28.7644 89.6193 28.5727V28.5354C89.6193 28.0702 89.4879 27.7097 89.2251 27.4541C88.9659 27.1984 88.5788 27.0705 88.0639 27.0705C87.5276 27.0705 87.1051 27.1895 86.7961 27.4274C86.4907 27.6618 86.2794 27.9228 86.1622 28.2104L84.6654 27.8695C84.843 27.3724 85.1022 26.9711 85.4431 26.6657C85.7876 26.3568 86.1835 26.133 86.631 25.9945C87.0784 25.8525 87.549 25.7815 88.0426 25.7815C88.3693 25.7815 88.7155 25.8205 89.0813 25.8987C89.4506 25.9732 89.795 26.1117 90.1146 26.3141C90.4378 26.5166 90.7024 26.806 90.9083 27.1824C91.1143 27.5553 91.2173 28.04 91.2173 28.6366V34.0698H89.6619V32.9512H89.598C89.495 33.1572 89.3405 33.3596 89.1345 33.5585C88.9286 33.7573 88.664 33.9225 88.3409 34.0538C88.0177 34.1852 87.6306 34.2509 87.1796 34.2509ZM87.5259 32.9725C87.9662 32.9725 88.3426 32.8855 88.6551 32.7115C88.9712 32.5375 89.2109 32.3102 89.3742 32.0297C89.5411 31.7456 89.6246 31.442 89.6246 31.1188V30.0641C89.5678 30.121 89.4577 30.1742 89.2943 30.2239C89.1345 30.2701 88.9517 30.3109 88.7457 30.3465C88.5397 30.3784 88.3391 30.4086 88.1438 30.437C87.9485 30.4619 87.7851 30.4832 87.6537 30.5009C87.3448 30.54 87.0624 30.6057 86.8068 30.698C86.5546 30.7903 86.3522 30.9235 86.1995 31.0975C86.0504 31.268 85.9758 31.4953 85.9758 31.7793C85.9758 32.1735 86.1214 32.4718 86.4126 32.6742C86.7038 32.8731 87.0749 32.9725 87.5259 32.9725ZM93.0386 34.0698V25.888H94.5781V27.1877H94.6633C94.8124 26.7474 95.0752 26.4011 95.4516 26.149C95.8316 25.8933 96.2613 25.7655 96.7407 25.7655C96.8401 25.7655 96.9573 25.769 97.0923 25.7761C97.2308 25.7832 97.3391 25.7921 97.4172 25.8028V27.3262C97.3533 27.3085 97.2396 27.2889 97.0763 27.2676C96.9129 27.2428 96.7496 27.2303 96.5862 27.2303C96.2098 27.2303 95.8742 27.3102 95.5795 27.47C95.2883 27.6263 95.0575 27.8447 94.887 28.1252C94.7165 28.4022 94.6313 28.7183 94.6313 29.0734V34.0698H93.0386ZM102.798 25.888V27.1664H98.329V25.888H102.798ZM99.5275 23.9278H101.12V31.6675C101.12 31.9764 101.166 32.209 101.259 32.3653C101.351 32.518 101.47 32.6227 101.616 32.6796C101.765 32.7328 101.926 32.7595 102.1 32.7595C102.228 32.7595 102.34 32.7506 102.436 32.7328C102.532 32.7151 102.606 32.7009 102.66 32.6902L102.947 34.0059C102.855 34.0414 102.724 34.0769 102.553 34.1124C102.383 34.1515 102.17 34.1728 101.914 34.1764C101.495 34.1835 101.104 34.1089 100.742 33.9526C100.38 33.7964 100.087 33.5549 99.8631 33.2282C99.6394 32.9015 99.5275 32.4913 99.5275 31.9977V23.9278Z" fill="#E3E3E3"/>
<path d="M35.8382 56.07C35.8382 56.65 35.6382 57.1333 35.2382 57.52C34.8449 57.9 34.2415 58.09 33.4282 58.09H32.0882V61H31.1782V54.03H33.4282C34.2149 54.03 34.8115 54.22 35.2182 54.6C35.6315 54.98 35.8382 55.47 35.8382 56.07ZM33.4282 57.34C33.9349 57.34 34.3082 57.23 34.5482 57.01C34.7882 56.79 34.9082 56.4767 34.9082 56.07C34.9082 55.21 34.4149 54.78 33.4282 54.78H32.0882V57.34H33.4282ZM37.6792 56.41C37.8392 56.0967 38.0659 55.8533 38.3592 55.68C38.6592 55.5067 39.0226 55.42 39.4492 55.42V56.36H39.2092C38.1892 56.36 37.6792 56.9133 37.6792 58.02V61H36.7692V55.52H37.6792V56.41ZM40.7697 54.63C40.5964 54.63 40.4497 54.57 40.3297 54.45C40.2097 54.33 40.1497 54.1833 40.1497 54.01C40.1497 53.8367 40.2097 53.69 40.3297 53.57C40.4497 53.45 40.5964 53.39 40.7697 53.39C40.9364 53.39 41.0764 53.45 41.1897 53.57C41.3097 53.69 41.3697 53.8367 41.3697 54.01C41.3697 54.1833 41.3097 54.33 41.1897 54.45C41.0764 54.57 40.9364 54.63 40.7697 54.63ZM41.2097 55.52V61H40.2997V55.52H41.2097ZM42.2206 58.25C42.2206 57.6833 42.334 57.19 42.5606 56.77C42.7873 56.3433 43.1006 56.0133 43.5006 55.78C43.9073 55.5467 44.3706 55.43 44.8906 55.43C45.564 55.43 46.1173 55.5933 46.5506 55.92C46.9906 56.2467 47.2806 56.7 47.4206 57.28H46.4406C46.3473 56.9467 46.164 56.6833 45.8906 56.49C45.624 56.2967 45.2906 56.2 44.8906 56.2C44.3706 56.2 43.9506 56.38 43.6306 56.74C43.3106 57.0933 43.1506 57.5967 43.1506 58.25C43.1506 58.91 43.3106 59.42 43.6306 59.78C43.9506 60.14 44.3706 60.32 44.8906 60.32C45.2906 60.32 45.624 60.2267 45.8906 60.04C46.1573 59.8533 46.3406 59.5867 46.4406 59.24H47.4206C47.274 59.8 46.9806 60.25 46.5406 60.59C46.1006 60.9233 45.5506 61.09 44.8906 61.09C44.3706 61.09 43.9073 60.9733 43.5006 60.74C43.1006 60.5067 42.7873 60.1767 42.5606 59.75C42.334 59.3233 42.2206 58.8233 42.2206 58.25ZM53.4348 58.05C53.4348 58.2233 53.4248 58.4067 53.4048 58.6H49.0248C49.0582 59.14 49.2415 59.5633 49.5748 59.87C49.9148 60.17 50.3248 60.32 50.8048 60.32C51.1982 60.32 51.5248 60.23 51.7848 60.05C52.0515 59.8633 52.2382 59.6167 52.3448 59.31H53.3248C53.1782 59.8367 52.8848 60.2667 52.4448 60.6C52.0048 60.9267 51.4582 61.09 50.8048 61.09C50.2848 61.09 49.8182 60.9733 49.4048 60.74C48.9982 60.5067 48.6782 60.1767 48.4448 59.75C48.2115 59.3167 48.0948 58.8167 48.0948 58.25C48.0948 57.6833 48.2082 57.1867 48.4348 56.76C48.6615 56.3333 48.9782 56.0067 49.3848 55.78C49.7982 55.5467 50.2715 55.43 50.8048 55.43C51.3248 55.43 51.7848 55.5433 52.1848 55.77C52.5848 55.9967 52.8915 56.31 53.1048 56.71C53.3248 57.1033 53.4348 57.55 53.4348 58.05ZM52.4948 57.86C52.4948 57.5133 52.4182 57.2167 52.2648 56.97C52.1115 56.7167 51.9015 56.5267 51.6348 56.4C51.3748 56.2667 51.0848 56.2 50.7648 56.2C50.3048 56.2 49.9115 56.3467 49.5848 56.64C49.2648 56.9333 49.0815 57.34 49.0348 57.86H52.4948ZM59.292 61.09C58.7787 61.09 58.312 60.9733 57.892 60.74C57.4787 60.5067 57.152 60.1767 56.912 59.75C56.6787 59.3167 56.562 58.8167 56.562 58.25C56.562 57.69 56.682 57.1967 56.922 56.77C57.1687 56.3367 57.502 56.0067 57.922 55.78C58.342 55.5467 58.812 55.43 59.332 55.43C59.852 55.43 60.322 55.5467 60.742 55.78C61.162 56.0067 61.492 56.3333 61.732 56.76C61.9787 57.1867 62.102 57.6833 62.102 58.25C62.102 58.8167 61.9754 59.3167 61.722 59.75C61.4754 60.1767 61.1387 60.5067 60.712 60.74C60.2854 60.9733 59.812 61.09 59.292 61.09ZM59.292 60.29C59.6187 60.29 59.9254 60.2133 60.212 60.06C60.4987 59.9067 60.7287 59.6767 60.902 59.37C61.082 59.0633 61.172 58.69 61.172 58.25C61.172 57.81 61.0854 57.4367 60.912 57.13C60.7387 56.8233 60.512 56.5967 60.232 56.45C59.952 56.2967 59.6487 56.22 59.322 56.22C58.9887 56.22 58.682 56.2967 58.402 56.45C58.1287 56.5967 57.9087 56.8233 57.742 57.13C57.5754 57.4367 57.492 57.81 57.492 58.25C57.492 58.6967 57.572 59.0733 57.732 59.38C57.8987 59.6867 58.1187 59.9167 58.392 60.07C58.6654 60.2167 58.9654 60.29 59.292 60.29ZM65.3285 56.27H64.1785V61H63.2685V56.27H62.5585V55.52H63.2685V55.13C63.2685 54.5167 63.4252 54.07 63.7385 53.79C64.0585 53.5033 64.5685 53.36 65.2685 53.36V54.12C64.8685 54.12 64.5852 54.2 64.4185 54.36C64.2585 54.5133 64.1785 54.77 64.1785 55.13V55.52H65.3285V56.27ZM68.2655 54.6V53.77H70.1455V61H69.2255V54.6H68.2655ZM81.1947 54.08V61H80.2847V55.84L77.9847 61H77.3447L75.0347 55.83V61H74.1247V54.08H75.1047L77.6647 59.8L80.2247 54.08H81.1947ZM86.658 59.45H83.618L83.058 61H82.098L84.618 54.07H85.668L88.178 61H87.218L86.658 59.45ZM86.398 58.71L85.138 55.19L83.878 58.71H86.398ZM91.9263 57.52L94.0663 61H93.0363L91.3663 58.28L89.7763 61H88.7663L90.8963 57.52L88.7563 54.03H89.7763L91.4563 56.76L93.0563 54.03H94.0763L91.9263 57.52ZM95.9972 54.03V61H95.0872V54.03H95.9972Z" fill="#9C9C9C"/>
<path d="M176.976 283.03V283.77H175.076V290H174.166V283.77H172.256V283.03H176.976ZM178.366 283.63C178.193 283.63 178.046 283.57 177.926 283.45C177.806 283.33 177.746 283.183 177.746 283.01C177.746 282.837 177.806 282.69 177.926 282.57C178.046 282.45 178.193 282.39 178.366 282.39C178.533 282.39 178.673 282.45 178.786 282.57C178.906 282.69 178.966 282.837 178.966 283.01C178.966 283.183 178.906 283.33 178.786 283.45C178.673 283.57 178.533 283.63 178.366 283.63ZM178.806 284.52V290H177.896V284.52H178.806ZM186.747 284.42C187.174 284.42 187.554 284.51 187.887 284.69C188.22 284.863 188.484 285.127 188.677 285.48C188.87 285.833 188.967 286.263 188.967 286.77V290H188.067V286.9C188.067 286.353 187.93 285.937 187.657 285.65C187.39 285.357 187.027 285.21 186.567 285.21C186.094 285.21 185.717 285.363 185.437 285.67C185.157 285.97 185.017 286.407 185.017 286.98V290H184.117V286.9C184.117 286.353 183.98 285.937 183.707 285.65C183.44 285.357 183.077 285.21 182.617 285.21C182.144 285.21 181.767 285.363 181.487 285.67C181.207 285.97 181.067 286.407 181.067 286.98V290H180.157V284.52H181.067V285.31C181.247 285.023 181.487 284.803 181.787 284.65C182.094 284.497 182.43 284.42 182.797 284.42C183.257 284.42 183.664 284.523 184.017 284.73C184.37 284.937 184.634 285.24 184.807 285.64C184.96 285.253 185.214 284.953 185.567 284.74C185.92 284.527 186.314 284.42 186.747 284.42ZM195.26 287.05C195.26 287.223 195.25 287.407 195.23 287.6H190.85C190.883 288.14 191.067 288.563 191.4 288.87C191.74 289.17 192.15 289.32 192.63 289.32C193.023 289.32 193.35 289.23 193.61 289.05C193.877 288.863 194.063 288.617 194.17 288.31H195.15C195.003 288.837 194.71 289.267 194.27 289.6C193.83 289.927 193.283 290.09 192.63 290.09C192.11 290.09 191.643 289.973 191.23 289.74C190.823 289.507 190.503 289.177 190.27 288.75C190.037 288.317 189.92 287.817 189.92 287.25C189.92 286.683 190.033 286.187 190.26 285.76C190.487 285.333 190.803 285.007 191.21 284.78C191.623 284.547 192.097 284.43 192.63 284.43C193.15 284.43 193.61 284.543 194.01 284.77C194.41 284.997 194.717 285.31 194.93 285.71C195.15 286.103 195.26 286.55 195.26 287.05ZM194.32 286.86C194.32 286.513 194.243 286.217 194.09 285.97C193.937 285.717 193.727 285.527 193.46 285.4C193.2 285.267 192.91 285.2 192.59 285.2C192.13 285.2 191.737 285.347 191.41 285.64C191.09 285.933 190.907 286.34 190.86 286.86H194.32ZM202.127 280.58L199.387 291.7H198.487L201.217 280.58H202.127ZM206.639 283.03V287.44C206.639 288.06 206.789 288.52 207.089 288.82C207.396 289.12 207.819 289.27 208.359 289.27C208.892 289.27 209.309 289.12 209.609 288.82C209.916 288.52 210.069 288.06 210.069 287.44V283.03H210.979V287.43C210.979 288.01 210.862 288.5 210.629 288.9C210.396 289.293 210.079 289.587 209.679 289.78C209.286 289.973 208.842 290.07 208.349 290.07C207.856 290.07 207.409 289.973 207.009 289.78C206.616 289.587 206.302 289.293 206.069 288.9C205.842 288.5 205.729 288.01 205.729 287.43V283.03H206.639ZM216.587 283.03V283.77H214.687V290H213.777V283.77H211.867V283.03H216.587ZM217.167 286.51C217.167 285.83 217.32 285.22 217.627 284.68C217.934 284.133 218.35 283.707 218.877 283.4C219.41 283.093 220 282.94 220.647 282.94C221.407 282.94 222.07 283.123 222.637 283.49C223.204 283.857 223.617 284.377 223.877 285.05H222.787C222.594 284.63 222.314 284.307 221.947 284.08C221.587 283.853 221.154 283.74 220.647 283.74C220.16 283.74 219.724 283.853 219.337 284.08C218.95 284.307 218.647 284.63 218.427 285.05C218.207 285.463 218.097 285.95 218.097 286.51C218.097 287.063 218.207 287.55 218.427 287.97C218.647 288.383 218.95 288.703 219.337 288.93C219.724 289.157 220.16 289.27 220.647 289.27C221.154 289.27 221.587 289.16 221.947 288.94C222.314 288.713 222.594 288.39 222.787 287.97H223.877C223.617 288.637 223.204 289.153 222.637 289.52C222.07 289.88 221.407 290.06 220.647 290.06C220 290.06 219.41 289.91 218.877 289.61C218.35 289.303 217.934 288.88 217.627 288.34C217.32 287.8 217.167 287.19 217.167 286.51Z" fill="#9C9C9C"/>
<path d="M15.563 171.113C16.085 171.113 16.52 171.293 16.868 171.653C17.21 172.007 17.381 172.55 17.381 173.282V174.488H20V175.307H13.727V173.282C13.727 172.574 13.898 172.037 14.24 171.671C14.582 171.299 15.023 171.113 15.563 171.113ZM16.706 173.282C16.706 172.826 16.607 172.49 16.409 172.274C16.211 172.058 15.929 171.95 15.563 171.95C14.789 171.95 14.402 172.394 14.402 173.282V174.488H16.706V173.282ZM15.869 169.456C15.587 169.312 15.368 169.108 15.212 168.844C15.056 168.574 14.978 168.247 14.978 167.863H15.824V168.079C15.824 168.997 16.322 169.456 17.318 169.456H20V170.275H15.068V169.456H15.869ZM14.267 166.675C14.267 166.831 14.213 166.963 14.105 167.071C13.997 167.179 13.865 167.233 13.709 167.233C13.553 167.233 13.421 167.179 13.313 167.071C13.205 166.963 13.151 166.831 13.151 166.675C13.151 166.525 13.205 166.399 13.313 166.297C13.421 166.189 13.553 166.135 13.709 166.135C13.865 166.135 13.997 166.189 14.105 166.297C14.213 166.399 14.267 166.525 14.267 166.675ZM15.068 166.279H20V167.098H15.068V166.279ZM17.525 165.369C17.015 165.369 16.571 165.267 16.193 165.063C15.809 164.859 15.512 164.577 15.302 164.217C15.092 163.851 14.987 163.434 14.987 162.966C14.987 162.36 15.134 161.862 15.428 161.472C15.722 161.076 16.13 160.815 16.652 160.689V161.571C16.352 161.655 16.115 161.82 15.941 162.066C15.767 162.306 15.68 162.606 15.68 162.966C15.68 163.434 15.842 163.812 16.166 164.1C16.484 164.388 16.937 164.532 17.525 164.532C18.119 164.532 18.578 164.388 18.902 164.1C19.226 163.812 19.388 163.434 19.388 162.966C19.388 162.606 19.304 162.306 19.136 162.066C18.968 161.826 18.728 161.661 18.416 161.571V160.689C18.92 160.821 19.325 161.085 19.631 161.481C19.931 161.877 20.081 162.372 20.081 162.966C20.081 163.434 19.976 163.851 19.766 164.217C19.556 164.577 19.259 164.859 18.875 165.063C18.491 165.267 18.041 165.369 17.525 165.369ZM17.345 155.276C17.501 155.276 17.666 155.285 17.84 155.303L17.84 159.245C18.326 159.215 18.707 159.05 18.983 158.75C19.253 158.444 19.388 158.075 19.388 157.643C19.388 157.289 19.307 156.995 19.145 156.761C18.977 156.521 18.755 156.353 18.479 156.257L18.479 155.375C18.953 155.507 19.34 155.771 19.64 156.167C19.934 156.563 20.081 157.055 20.081 157.643C20.081 158.111 19.976 158.531 19.766 158.903C19.556 159.269 19.259 159.557 18.875 159.767C18.485 159.977 18.035 160.082 17.525 160.082C17.015 160.082 16.568 159.98 16.184 159.776C15.8 159.572 15.506 159.287 15.302 158.921C15.092 158.549 14.987 158.123 14.987 157.643C14.987 157.175 15.089 156.761 15.293 156.401C15.497 156.041 15.779 155.765 16.139 155.573C16.493 155.375 16.895 155.276 17.345 155.276ZM17.174 156.122C16.862 156.122 16.595 156.191 16.373 156.329C16.145 156.467 15.974 156.656 15.86 156.896C15.74 157.13 15.68 157.391 15.68 157.679C15.68 158.093 15.812 158.447 16.076 158.741C16.34 159.029 16.706 159.194 17.174 159.236V156.122ZM11.522 149.096L21.53 151.562V152.372L11.522 149.915V149.096ZM20.063 143.847C20.063 144.261 19.991 144.633 19.847 144.963C19.697 145.287 19.493 145.542 19.235 145.728C18.971 145.914 18.668 146.01 18.326 146.016V145.143C18.62 145.113 18.869 144.993 19.073 144.783C19.271 144.567 19.37 144.255 19.37 143.847C19.37 143.457 19.274 143.151 19.082 142.929C18.884 142.701 18.632 142.587 18.326 142.587C18.086 142.587 17.891 142.653 17.741 142.785C17.591 142.917 17.477 143.082 17.399 143.28C17.321 143.478 17.237 143.745 17.147 144.081C17.039 144.495 16.931 144.828 16.823 145.08C16.715 145.326 16.547 145.539 16.319 145.719C16.085 145.893 15.773 145.98 15.383 145.98C15.041 145.98 14.738 145.893 14.474 145.719C14.21 145.545 14.006 145.302 13.862 144.99C13.718 144.672 13.646 144.309 13.646 143.901C13.646 143.313 13.793 142.833 14.087 142.461C14.381 142.083 14.771 141.87 15.257 141.822V142.722C15.017 142.752 14.807 142.878 14.627 143.1C14.441 143.322 14.348 143.616 14.348 143.982C14.348 144.324 14.438 144.603 14.618 144.819C14.792 145.035 15.038 145.143 15.356 145.143C15.584 145.143 15.77 145.08 15.914 144.954C16.058 144.822 16.169 144.663 16.247 144.477C16.319 144.285 16.403 144.018 16.499 143.676C16.613 143.262 16.727 142.929 16.841 142.677C16.949 142.425 17.12 142.209 17.354 142.029C17.582 141.849 17.894 141.759 18.29 141.759C18.596 141.759 18.884 141.84 19.154 142.002C19.424 142.164 19.643 142.404 19.811 142.722C19.979 143.04 20.063 143.415 20.063 143.847ZM18.605 137.026V139.762L20 140.266V141.13L13.763 138.862V137.917L20 135.658V136.522L18.605 137.026ZM17.939 137.26L14.771 138.394L17.939 139.528V137.26ZM13.727 130.988H14.393V132.698H20V133.517H14.393V135.236H13.727V130.988Z" fill="#9C9C9C"/>
<path d="M96.5484 262.03C97.3084 262.03 97.9651 262.173 98.5184 262.46C99.0784 262.74 99.5051 263.143 99.7984 263.67C100.098 264.197 100.248 264.817 100.248 265.53C100.248 266.243 100.098 266.863 99.7984 267.39C99.5051 267.91 99.0784 268.31 98.5184 268.59C97.9651 268.863 97.3084 269 96.5484 269H94.3784V262.03H96.5484ZM96.5484 268.25C97.4484 268.25 98.1351 268.013 98.6084 267.54C99.0817 267.06 99.3184 266.39 99.3184 265.53C99.3184 264.663 99.0784 263.987 98.5984 263.5C98.1251 263.013 97.4417 262.77 96.5484 262.77H95.2884V268.25H96.5484ZM100.909 266.24C100.909 265.68 101.022 265.19 101.249 264.77C101.475 264.343 101.785 264.013 102.179 263.78C102.579 263.547 103.022 263.43 103.509 263.43C103.989 263.43 104.405 263.533 104.759 263.74C105.112 263.947 105.375 264.207 105.549 264.52V263.52H106.469V269H105.549V267.98C105.369 268.3 105.099 268.567 104.739 268.78C104.385 268.987 103.972 269.09 103.499 269.09C103.012 269.09 102.572 268.97 102.179 268.73C101.785 268.49 101.475 268.153 101.249 267.72C101.022 267.287 100.909 266.793 100.909 266.24ZM105.549 266.25C105.549 265.837 105.465 265.477 105.299 265.17C105.132 264.863 104.905 264.63 104.619 264.47C104.339 264.303 104.029 264.22 103.689 264.22C103.349 264.22 103.039 264.3 102.759 264.46C102.479 264.62 102.255 264.853 102.089 265.16C101.922 265.467 101.839 265.827 101.839 266.24C101.839 266.66 101.922 267.027 102.089 267.34C102.255 267.647 102.479 267.883 102.759 268.05C103.039 268.21 103.349 268.29 103.689 268.29C104.029 268.29 104.339 268.21 104.619 268.05C104.905 267.883 105.132 267.647 105.299 267.34C105.465 267.027 105.549 266.663 105.549 266.25ZM108.917 264.27V267.5C108.917 267.767 108.973 267.957 109.087 268.07C109.2 268.177 109.397 268.23 109.677 268.23H110.347V269H109.527C109.02 269 108.64 268.883 108.387 268.65C108.133 268.417 108.007 268.033 108.007 267.5V264.27H107.297V263.52H108.007V262.14H108.917V263.52H110.347V264.27H108.917ZM116.249 266.05C116.249 266.223 116.239 266.407 116.219 266.6H111.839C111.872 267.14 112.056 267.563 112.389 267.87C112.729 268.17 113.139 268.32 113.619 268.32C114.012 268.32 114.339 268.23 114.599 268.05C114.866 267.863 115.052 267.617 115.159 267.31H116.139C115.992 267.837 115.699 268.267 115.259 268.6C114.819 268.927 114.272 269.09 113.619 269.09C113.099 269.09 112.632 268.973 112.219 268.74C111.812 268.507 111.492 268.177 111.259 267.75C111.026 267.317 110.909 266.817 110.909 266.25C110.909 265.683 111.022 265.187 111.249 264.76C111.476 264.333 111.792 264.007 112.199 263.78C112.612 263.547 113.086 263.43 113.619 263.43C114.139 263.43 114.599 263.543 114.999 263.77C115.399 263.997 115.706 264.31 115.919 264.71C116.139 265.103 116.249 265.55 116.249 266.05ZM115.309 265.86C115.309 265.513 115.232 265.217 115.079 264.97C114.926 264.717 114.716 264.527 114.449 264.4C114.189 264.267 113.899 264.2 113.579 264.2C113.119 264.2 112.726 264.347 112.399 264.64C112.079 264.933 111.896 265.34 111.849 265.86H115.309Z" fill="#9C9C9C"/>
<path d="M187.161 262.03C187.921 262.03 188.577 262.173 189.131 262.46C189.691 262.74 190.117 263.143 190.411 263.67C190.711 264.197 190.861 264.817 190.861 265.53C190.861 266.243 190.711 266.863 190.411 267.39C190.117 267.91 189.691 268.31 189.131 268.59C188.577 268.863 187.921 269 187.161 269H184.991V262.03H187.161ZM187.161 268.25C188.061 268.25 188.747 268.013 189.221 267.54C189.694 267.06 189.931 266.39 189.931 265.53C189.931 264.663 189.691 263.987 189.211 263.5C188.737 263.013 188.054 262.77 187.161 262.77H185.901V268.25H187.161ZM191.521 266.24C191.521 265.68 191.634 265.19 191.861 264.77C192.088 264.343 192.398 264.013 192.791 263.78C193.191 263.547 193.634 263.43 194.121 263.43C194.601 263.43 195.018 263.533 195.371 263.74C195.724 263.947 195.988 264.207 196.161 264.52V263.52H197.081V269H196.161V267.98C195.981 268.3 195.711 268.567 195.351 268.78C194.998 268.987 194.584 269.09 194.111 269.09C193.624 269.09 193.184 268.97 192.791 268.73C192.398 268.49 192.088 268.153 191.861 267.72C191.634 267.287 191.521 266.793 191.521 266.24ZM196.161 266.25C196.161 265.837 196.078 265.477 195.911 265.17C195.744 264.863 195.518 264.63 195.231 264.47C194.951 264.303 194.641 264.22 194.301 264.22C193.961 264.22 193.651 264.3 193.371 264.46C193.091 264.62 192.868 264.853 192.701 265.16C192.534 265.467 192.451 265.827 192.451 266.24C192.451 266.66 192.534 267.027 192.701 267.34C192.868 267.647 193.091 267.883 193.371 268.05C193.651 268.21 193.961 268.29 194.301 268.29C194.641 268.29 194.951 268.21 195.231 268.05C195.518 267.883 195.744 267.647 195.911 267.34C196.078 267.027 196.161 266.663 196.161 266.25ZM199.529 264.27V267.5C199.529 267.767 199.585 267.957 199.699 268.07C199.812 268.177 200.009 268.23 200.289 268.23H200.959V269H200.139C199.632 269 199.252 268.883 198.999 268.65C198.745 268.417 198.619 268.033 198.619 267.5V264.27H197.909V263.52H198.619V262.14H199.529V263.52H200.959V264.27H199.529ZM206.861 266.05C206.861 266.223 206.851 266.407 206.831 266.6H202.451C202.485 267.14 202.668 267.563 203.001 267.87C203.341 268.17 203.751 268.32 204.231 268.32C204.625 268.32 204.951 268.23 205.211 268.05C205.478 267.863 205.665 267.617 205.771 267.31H206.751C206.605 267.837 206.311 268.267 205.871 268.6C205.431 268.927 204.885 269.09 204.231 269.09C203.711 269.09 203.245 268.973 202.831 268.74C202.425 268.507 202.105 268.177 201.871 267.75C201.638 267.317 201.521 266.817 201.521 266.25C201.521 265.683 201.635 265.187 201.861 264.76C202.088 264.333 202.405 264.007 202.811 263.78C203.225 263.547 203.698 263.43 204.231 263.43C204.751 263.43 205.211 263.543 205.611 263.77C206.011 263.997 206.318 264.31 206.531 264.71C206.751 265.103 206.861 265.55 206.861 266.05ZM205.921 265.86C205.921 265.513 205.845 265.217 205.691 264.97C205.538 264.717 205.328 264.527 205.061 264.4C204.801 264.267 204.511 264.2 204.191 264.2C203.731 264.2 203.338 264.347 203.011 264.64C202.691 264.933 202.508 265.34 202.461 265.86H205.921Z" fill="#9C9C9C"/>
<path d="M277.769 262.03C278.529 262.03 279.186 262.173 279.739 262.46C280.299 262.74 280.726 263.143 281.019 263.67C281.319 264.197 281.469 264.817 281.469 265.53C281.469 266.243 281.319 266.863 281.019 267.39C280.726 267.91 280.299 268.31 279.739 268.59C279.186 268.863 278.529 269 277.769 269H275.599V262.03H277.769ZM277.769 268.25C278.669 268.25 279.356 268.013 279.829 267.54C280.302 267.06 280.539 266.39 280.539 265.53C280.539 264.663 280.299 263.987 279.819 263.5C279.346 263.013 278.662 262.77 277.769 262.77H276.509V268.25H277.769ZM282.129 266.24C282.129 265.68 282.243 265.19 282.469 264.77C282.696 264.343 283.006 264.013 283.399 263.78C283.799 263.547 284.243 263.43 284.729 263.43C285.209 263.43 285.626 263.533 285.979 263.74C286.333 263.947 286.596 264.207 286.769 264.52V263.52H287.689V269H286.769V267.98C286.589 268.3 286.319 268.567 285.959 268.78C285.606 268.987 285.193 269.09 284.719 269.09C284.233 269.09 283.793 268.97 283.399 268.73C283.006 268.49 282.696 268.153 282.469 267.72C282.243 267.287 282.129 266.793 282.129 266.24ZM286.769 266.25C286.769 265.837 286.686 265.477 286.519 265.17C286.353 264.863 286.126 264.63 285.839 264.47C285.559 264.303 285.249 264.22 284.909 264.22C284.569 264.22 284.259 264.3 283.979 264.46C283.699 264.62 283.476 264.853 283.309 265.16C283.143 265.467 283.059 265.827 283.059 266.24C283.059 266.66 283.143 267.027 283.309 267.34C283.476 267.647 283.699 267.883 283.979 268.05C284.259 268.21 284.569 268.29 284.909 268.29C285.249 268.29 285.559 268.21 285.839 268.05C286.126 267.883 286.353 267.647 286.519 267.34C286.686 267.027 286.769 266.663 286.769 266.25ZM290.137 264.27V267.5C290.137 267.767 290.194 267.957 290.307 268.07C290.421 268.177 290.617 268.23 290.897 268.23H291.567V269H290.747C290.241 269 289.861 268.883 289.607 268.65C289.354 268.417 289.227 268.033 289.227 267.5V264.27H288.517V263.52H289.227V262.14H290.137V263.52H291.567V264.27H290.137ZM297.47 266.05C297.47 266.223 297.46 266.407 297.44 266.6H293.06C293.093 267.14 293.276 267.563 293.61 267.87C293.95 268.17 294.36 268.32 294.84 268.32C295.233 268.32 295.56 268.23 295.82 268.05C296.086 267.863 296.273 267.617 296.38 267.31H297.36C297.213 267.837 296.92 268.267 296.48 268.6C296.04 268.927 295.493 269.09 294.84 269.09C294.32 269.09 293.853 268.973 293.44 268.74C293.033 268.507 292.713 268.177 292.48 267.75C292.246 267.317 292.13 266.817 292.13 266.25C292.13 265.683 292.243 265.187 292.47 264.76C292.696 264.333 293.013 264.007 293.42 263.78C293.833 263.547 294.306 263.43 294.84 263.43C295.36 263.43 295.82 263.543 296.22 263.77C296.62 263.997 296.926 264.31 297.14 264.71C297.36 265.103 297.47 265.55 297.47 266.05ZM296.53 265.86C296.53 265.513 296.453 265.217 296.3 264.97C296.146 264.717 295.936 264.527 295.67 264.4C295.41 264.267 295.12 264.2 294.8 264.2C294.34 264.2 293.946 264.347 293.62 264.64C293.3 264.933 293.116 265.34 293.07 265.86H296.53Z" fill="#9C9C9C"/>
<path d="M29.7118 76.31C29.7118 75.1633 29.8985 74.27 30.2718 73.63C30.6451 72.9833 31.2985 72.66 32.2318 72.66C33.1585 72.66 33.8085 72.9833 34.1818 73.63C34.5551 74.27 34.7418 75.1633 34.7418 76.31C34.7418 77.4767 34.5551 78.3833 34.1818 79.03C33.8085 79.6767 33.1585 80 32.2318 80C31.2985 80 30.6451 79.6767 30.2718 79.03C29.8985 78.3833 29.7118 77.4767 29.7118 76.31ZM33.8418 76.31C33.8418 75.73 33.8018 75.24 33.7218 74.84C33.6485 74.4333 33.4918 74.1067 33.2518 73.86C33.0185 73.6133 32.6785 73.49 32.2318 73.49C31.7785 73.49 31.4318 73.6133 31.1918 73.86C30.9585 74.1067 30.8018 74.4333 30.7218 74.84C30.6485 75.24 30.6118 75.73 30.6118 76.31C30.6118 76.91 30.6485 77.4133 30.7218 77.82C30.8018 78.2267 30.9585 78.5533 31.1918 78.8C31.4318 79.0467 31.7785 79.17 32.2318 79.17C32.6785 79.17 33.0185 79.0467 33.2518 78.8C33.4918 78.5533 33.6485 78.2267 33.7218 77.82C33.8018 77.4133 33.8418 76.91 33.8418 76.31ZM35.7911 76.31C35.7911 75.1633 35.9778 74.27 36.3511 73.63C36.7244 72.9833 37.3778 72.66 38.3111 72.66C39.2378 72.66 39.8878 72.9833 40.2611 73.63C40.6344 74.27 40.8211 75.1633 40.8211 76.31C40.8211 77.4767 40.6344 78.3833 40.2611 79.03C39.8878 79.6767 39.2378 80 38.3111 80C37.3778 80 36.7244 79.6767 36.3511 79.03C35.9778 78.3833 35.7911 77.4767 35.7911 76.31ZM39.9211 76.31C39.9211 75.73 39.8811 75.24 39.8011 74.84C39.7278 74.4333 39.5711 74.1067 39.3311 73.86C39.0978 73.6133 38.7578 73.49 38.3111 73.49C37.8578 73.49 37.5111 73.6133 37.2711 73.86C37.0378 74.1067 36.8811 74.4333 36.8011 74.84C36.7278 75.24 36.6911 75.73 36.6911 76.31C36.6911 76.91 36.7278 77.4133 36.8011 77.82C36.8811 78.2267 37.0378 78.5533 37.2711 78.8C37.5111 79.0467 37.8578 79.17 38.3111 79.17C38.7578 79.17 39.0978 79.0467 39.3311 78.8C39.5711 78.5533 39.7278 78.2267 39.8011 77.82C39.8811 77.4133 39.9211 76.91 39.9211 76.31ZM42.3104 80.06C42.1371 80.06 41.9904 80 41.8704 79.88C41.7504 79.76 41.6904 79.6133 41.6904 79.44C41.6904 79.2667 41.7504 79.12 41.8704 79C41.9904 78.88 42.1371 78.82 42.3104 78.82C42.4771 78.82 42.6171 78.88 42.7304 79C42.8504 79.12 42.9104 79.2667 42.9104 79.44C42.9104 79.6133 42.8504 79.76 42.7304 79.88C42.6171 80 42.4771 80.06 42.3104 80.06ZM43.77 76.31C43.77 75.1633 43.9567 74.27 44.33 73.63C44.7033 72.9833 45.3567 72.66 46.29 72.66C47.2167 72.66 47.8667 72.9833 48.24 73.63C48.6133 74.27 48.8 75.1633 48.8 76.31C48.8 77.4767 48.6133 78.3833 48.24 79.03C47.8667 79.6767 47.2167 80 46.29 80C45.3567 80 44.7033 79.6767 44.33 79.03C43.9567 78.3833 43.77 77.4767 43.77 76.31ZM47.9 76.31C47.9 75.73 47.86 75.24 47.78 74.84C47.7067 74.4333 47.55 74.1067 47.31 73.86C47.0767 73.6133 46.7367 73.49 46.29 73.49C45.8367 73.49 45.49 73.6133 45.25 73.86C45.0167 74.1067 44.86 74.4333 44.78 74.84C44.7067 75.24 44.67 75.73 44.67 76.31C44.67 76.91 44.7067 77.4133 44.78 77.82C44.86 78.2267 45.0167 78.5533 45.25 78.8C45.49 79.0467 45.8367 79.17 46.29 79.17C46.7367 79.17 47.0767 79.0467 47.31 78.8C47.55 78.5533 47.7067 78.2267 47.78 77.82C47.86 77.4133 47.9 76.91 47.9 76.31Z" fill="#9C9C9C"/>
<path d="M29.7118 105.31C29.7118 104.163 29.8985 103.27 30.2718 102.63C30.6451 101.983 31.2985 101.66 32.2318 101.66C33.1585 101.66 33.8085 101.983 34.1818 102.63C34.5551 103.27 34.7418 104.163 34.7418 105.31C34.7418 106.477 34.5551 107.383 34.1818 108.03C33.8085 108.677 33.1585 109 32.2318 109C31.2985 109 30.6451 108.677 30.2718 108.03C29.8985 107.383 29.7118 106.477 29.7118 105.31ZM33.8418 105.31C33.8418 104.73 33.8018 104.24 33.7218 103.84C33.6485 103.433 33.4918 103.107 33.2518 102.86C33.0185 102.613 32.6785 102.49 32.2318 102.49C31.7785 102.49 31.4318 102.613 31.1918 102.86C30.9585 103.107 30.8018 103.433 30.7218 103.84C30.6485 104.24 30.6118 104.73 30.6118 105.31C30.6118 105.91 30.6485 106.413 30.7218 106.82C30.8018 107.227 30.9585 107.553 31.1918 107.8C31.4318 108.047 31.7785 108.17 32.2318 108.17C32.6785 108.17 33.0185 108.047 33.2518 107.8C33.4918 107.553 33.6485 107.227 33.7218 106.82C33.8018 106.413 33.8418 105.91 33.8418 105.31ZM35.7911 105.31C35.7911 104.163 35.9778 103.27 36.3511 102.63C36.7244 101.983 37.3778 101.66 38.3111 101.66C39.2378 101.66 39.8878 101.983 40.2611 102.63C40.6344 103.27 40.8211 104.163 40.8211 105.31C40.8211 106.477 40.6344 107.383 40.2611 108.03C39.8878 108.677 39.2378 109 38.3111 109C37.3778 109 36.7244 108.677 36.3511 108.03C35.9778 107.383 35.7911 106.477 35.7911 105.31ZM39.9211 105.31C39.9211 104.73 39.8811 104.24 39.8011 103.84C39.7278 103.433 39.5711 103.107 39.3311 102.86C39.0978 102.613 38.7578 102.49 38.3111 102.49C37.8578 102.49 37.5111 102.613 37.2711 102.86C37.0378 103.107 36.8811 103.433 36.8011 103.84C36.7278 104.24 36.6911 104.73 36.6911 105.31C36.6911 105.91 36.7278 106.413 36.8011 106.82C36.8811 107.227 37.0378 107.553 37.2711 107.8C37.5111 108.047 37.8578 108.17 38.3111 108.17C38.7578 108.17 39.0978 108.047 39.3311 107.8C39.5711 107.553 39.7278 107.227 39.8011 106.82C39.8811 106.413 39.9211 105.91 39.9211 105.31ZM42.3104 109.06C42.1371 109.06 41.9904 109 41.8704 108.88C41.7504 108.76 41.6904 108.613 41.6904 108.44C41.6904 108.267 41.7504 108.12 41.8704 108C41.9904 107.88 42.1371 107.82 42.3104 107.82C42.4771 107.82 42.6171 107.88 42.7304 108C42.8504 108.12 42.9104 108.267 42.9104 108.44C42.9104 108.613 42.8504 108.76 42.7304 108.88C42.6171 109 42.4771 109.06 42.3104 109.06ZM43.77 105.31C43.77 104.163 43.9567 103.27 44.33 102.63C44.7033 101.983 45.3567 101.66 46.29 101.66C47.2167 101.66 47.8667 101.983 48.24 102.63C48.6133 103.27 48.8 104.163 48.8 105.31C48.8 106.477 48.6133 107.383 48.24 108.03C47.8667 108.677 47.2167 109 46.29 109C45.3567 109 44.7033 108.677 44.33 108.03C43.9567 107.383 43.77 106.477 43.77 105.31ZM47.9 105.31C47.9 104.73 47.86 104.24 47.78 103.84C47.7067 103.433 47.55 103.107 47.31 102.86C47.0767 102.613 46.7367 102.49 46.29 102.49C45.8367 102.49 45.49 102.613 45.25 102.86C45.0167 103.107 44.86 103.433 44.78 103.84C44.7067 104.24 44.67 104.73 44.67 105.31C44.67 105.91 44.7067 106.413 44.78 106.82C44.86 107.227 45.0167 107.553 45.25 107.8C45.49 108.047 45.8367 108.17 46.29 108.17C46.7367 108.17 47.0767 108.047 47.31 107.8C47.55 107.553 47.7067 107.227 47.78 106.82C47.86 106.413 47.9 105.91 47.9 105.31Z" fill="#9C9C9C"/>
<path d="M29.7118 133.31C29.7118 132.163 29.8985 131.27 30.2718 130.63C30.6451 129.983 31.2985 129.66 32.2318 129.66C33.1585 129.66 33.8085 129.983 34.1818 130.63C34.5551 131.27 34.7418 132.163 34.7418 133.31C34.7418 134.477 34.5551 135.383 34.1818 136.03C33.8085 136.677 33.1585 137 32.2318 137C31.2985 137 30.6451 136.677 30.2718 136.03C29.8985 135.383 29.7118 134.477 29.7118 133.31ZM33.8418 133.31C33.8418 132.73 33.8018 132.24 33.7218 131.84C33.6485 131.433 33.4918 131.107 33.2518 130.86C33.0185 130.613 32.6785 130.49 32.2318 130.49C31.7785 130.49 31.4318 130.613 31.1918 130.86C30.9585 131.107 30.8018 131.433 30.7218 131.84C30.6485 132.24 30.6118 132.73 30.6118 133.31C30.6118 133.91 30.6485 134.413 30.7218 134.82C30.8018 135.227 30.9585 135.553 31.1918 135.8C31.4318 136.047 31.7785 136.17 32.2318 136.17C32.6785 136.17 33.0185 136.047 33.2518 135.8C33.4918 135.553 33.6485 135.227 33.7218 134.82C33.8018 134.413 33.8418 133.91 33.8418 133.31ZM35.7911 133.31C35.7911 132.163 35.9778 131.27 36.3511 130.63C36.7244 129.983 37.3778 129.66 38.3111 129.66C39.2378 129.66 39.8878 129.983 40.2611 130.63C40.6344 131.27 40.8211 132.163 40.8211 133.31C40.8211 134.477 40.6344 135.383 40.2611 136.03C39.8878 136.677 39.2378 137 38.3111 137C37.3778 137 36.7244 136.677 36.3511 136.03C35.9778 135.383 35.7911 134.477 35.7911 133.31ZM39.9211 133.31C39.9211 132.73 39.8811 132.24 39.8011 131.84C39.7278 131.433 39.5711 131.107 39.3311 130.86C39.0978 130.613 38.7578 130.49 38.3111 130.49C37.8578 130.49 37.5111 130.613 37.2711 130.86C37.0378 131.107 36.8811 131.433 36.8011 131.84C36.7278 132.24 36.6911 132.73 36.6911 133.31C36.6911 133.91 36.7278 134.413 36.8011 134.82C36.8811 135.227 37.0378 135.553 37.2711 135.8C37.5111 136.047 37.8578 136.17 38.3111 136.17C38.7578 136.17 39.0978 136.047 39.3311 135.8C39.5711 135.553 39.7278 135.227 39.8011 134.82C39.8811 134.413 39.9211 133.91 39.9211 133.31ZM42.3104 137.06C42.1371 137.06 41.9904 137 41.8704 136.88C41.7504 136.76 41.6904 136.613 41.6904 136.44C41.6904 136.267 41.7504 136.12 41.8704 136C41.9904 135.88 42.1371 135.82 42.3104 135.82C42.4771 135.82 42.6171 135.88 42.7304 136C42.8504 136.12 42.9104 136.267 42.9104 136.44C42.9104 136.613 42.8504 136.76 42.7304 136.88C42.6171 137 42.4771 137.06 42.3104 137.06ZM43.77 133.31C43.77 132.163 43.9567 131.27 44.33 130.63C44.7033 129.983 45.3567 129.66 46.29 129.66C47.2167 129.66 47.8667 129.983 48.24 130.63C48.6133 131.27 48.8 132.163 48.8 133.31C48.8 134.477 48.6133 135.383 48.24 136.03C47.8667 136.677 47.2167 137 46.29 137C45.3567 137 44.7033 136.677 44.33 136.03C43.9567 135.383 43.77 134.477 43.77 133.31ZM47.9 133.31C47.9 132.73 47.86 132.24 47.78 131.84C47.7067 131.433 47.55 131.107 47.31 130.86C47.0767 130.613 46.7367 130.49 46.29 130.49C45.8367 130.49 45.49 130.613 45.25 130.86C45.0167 131.107 44.86 131.433 44.78 131.84C44.7067 132.24 44.67 132.73 44.67 133.31C44.67 133.91 44.7067 134.413 44.78 134.82C44.86 135.227 45.0167 135.553 45.25 135.8C45.49 136.047 45.8367 136.17 46.29 136.17C46.7367 136.17 47.0767 136.047 47.31 135.8C47.55 135.553 47.7067 135.227 47.78 134.82C47.86 134.413 47.9 133.91 47.9 133.31Z" fill="#9C9C9C"/>
<path d="M58.9921 265.31C58.9921 264.163 59.1787 263.27 59.5521 262.63C59.9254 261.983 60.5787 261.66 61.5121 261.66C62.4387 261.66 63.0887 261.983 63.4621 262.63C63.8354 263.27 64.0221 264.163 64.0221 265.31C64.0221 266.477 63.8354 267.383 63.4621 268.03C63.0887 268.677 62.4387 269 61.5121 269C60.5787 269 59.9254 268.677 59.5521 268.03C59.1787 267.383 58.9921 266.477 58.9921 265.31ZM63.1221 265.31C63.1221 264.73 63.0821 264.24 63.0021 263.84C62.9287 263.433 62.7721 263.107 62.5321 262.86C62.2987 262.613 61.9587 262.49 61.5121 262.49C61.0587 262.49 60.7121 262.613 60.4721 262.86C60.2387 263.107 60.0821 263.433 60.0021 263.84C59.9287 264.24 59.8921 264.73 59.8921 265.31C59.8921 265.91 59.9287 266.413 60.0021 266.82C60.0821 267.227 60.2387 267.553 60.4721 267.8C60.7121 268.047 61.0587 268.17 61.5121 268.17C61.9587 268.17 62.2987 268.047 62.5321 267.8C62.7721 267.553 62.9287 267.227 63.0021 266.82C63.0821 266.413 63.1221 265.91 63.1221 265.31ZM65.0714 265.31C65.0714 264.163 65.258 263.27 65.6314 262.63C66.0047 261.983 66.658 261.66 67.5914 261.66C68.518 261.66 69.168 261.983 69.5414 262.63C69.9147 263.27 70.1014 264.163 70.1014 265.31C70.1014 266.477 69.9147 267.383 69.5414 268.03C69.168 268.677 68.518 269 67.5914 269C66.658 269 66.0047 268.677 65.6314 268.03C65.258 267.383 65.0714 266.477 65.0714 265.31ZM69.2014 265.31C69.2014 264.73 69.1614 264.24 69.0814 263.84C69.008 263.433 68.8514 263.107 68.6114 262.86C68.378 262.613 68.038 262.49 67.5914 262.49C67.138 262.49 66.7914 262.613 66.5514 262.86C66.318 263.107 66.1614 263.433 66.0814 263.84C66.008 264.24 65.9714 264.73 65.9714 265.31C65.9714 265.91 66.008 266.413 66.0814 266.82C66.1614 267.227 66.318 267.553 66.5514 267.8C66.7914 268.047 67.138 268.17 67.5914 268.17C68.038 268.17 68.378 268.047 68.6114 267.8C68.8514 267.553 69.008 267.227 69.0814 266.82C69.1614 266.413 69.2014 265.91 69.2014 265.31Z" fill="#9C9C9C"/>
<path d="M131.703 265.31C131.703 264.163 131.89 263.27 132.263 262.63C132.636 261.983 133.29 261.66 134.223 261.66C135.15 261.66 135.8 261.983 136.173 262.63C136.546 263.27 136.733 264.163 136.733 265.31C136.733 266.477 136.546 267.383 136.173 268.03C135.8 268.677 135.15 269 134.223 269C133.29 269 132.636 268.677 132.263 268.03C131.89 267.383 131.703 266.477 131.703 265.31ZM135.833 265.31C135.833 264.73 135.793 264.24 135.713 263.84C135.64 263.433 135.483 263.107 135.243 262.86C135.01 262.613 134.67 262.49 134.223 262.49C133.77 262.49 133.423 262.613 133.183 262.86C132.95 263.107 132.793 263.433 132.713 263.84C132.64 264.24 132.603 264.73 132.603 265.31C132.603 265.91 132.64 266.413 132.713 266.82C132.793 267.227 132.95 267.553 133.183 267.8C133.423 268.047 133.77 268.17 134.223 268.17C134.67 268.17 135.01 268.047 135.243 267.8C135.483 267.553 135.64 267.227 135.713 266.82C135.793 266.413 135.833 265.91 135.833 265.31ZM137.782 265.31C137.782 264.163 137.969 263.27 138.342 262.63C138.716 261.983 139.369 261.66 140.302 261.66C141.229 261.66 141.879 261.983 142.252 262.63C142.626 263.27 142.812 264.163 142.812 265.31C142.812 266.477 142.626 267.383 142.252 268.03C141.879 268.677 141.229 269 140.302 269C139.369 269 138.716 268.677 138.342 268.03C137.969 267.383 137.782 266.477 137.782 265.31ZM141.912 265.31C141.912 264.73 141.872 264.24 141.792 263.84C141.719 263.433 141.562 263.107 141.322 262.86C141.089 262.613 140.749 262.49 140.302 262.49C139.849 262.49 139.502 262.613 139.262 262.86C139.029 263.107 138.872 263.433 138.792 263.84C138.719 264.24 138.682 264.73 138.682 265.31C138.682 265.91 138.719 266.413 138.792 266.82C138.872 267.227 139.029 267.553 139.262 267.8C139.502 268.047 139.849 268.17 140.302 268.17C140.749 268.17 141.089 268.047 141.322 267.8C141.562 267.553 141.719 267.227 141.792 266.82C141.872 266.413 141.912 265.91 141.912 265.31Z" fill="#9C9C9C"/>
<path d="M157.992 265.31C157.992 264.163 158.179 263.27 158.552 262.63C158.925 261.983 159.579 261.66 160.512 261.66C161.439 261.66 162.089 261.983 162.462 262.63C162.835 263.27 163.022 264.163 163.022 265.31C163.022 266.477 162.835 267.383 162.462 268.03C162.089 268.677 161.439 269 160.512 269C159.579 269 158.925 268.677 158.552 268.03C158.179 267.383 157.992 266.477 157.992 265.31ZM162.122 265.31C162.122 264.73 162.082 264.24 162.002 263.84C161.929 263.433 161.772 263.107 161.532 262.86C161.299 262.613 160.959 262.49 160.512 262.49C160.059 262.49 159.712 262.613 159.472 262.86C159.239 263.107 159.082 263.433 159.002 263.84C158.929 264.24 158.892 264.73 158.892 265.31C158.892 265.91 158.929 266.413 159.002 266.82C159.082 267.227 159.239 267.553 159.472 267.8C159.712 268.047 160.059 268.17 160.512 268.17C160.959 268.17 161.299 268.047 161.532 267.8C161.772 267.553 161.929 267.227 162.002 266.82C162.082 266.413 162.122 265.91 162.122 265.31ZM164.071 265.31C164.071 264.163 164.258 263.27 164.631 262.63C165.005 261.983 165.658 261.66 166.591 261.66C167.518 261.66 168.168 261.983 168.541 262.63C168.915 263.27 169.101 264.163 169.101 265.31C169.101 266.477 168.915 267.383 168.541 268.03C168.168 268.677 167.518 269 166.591 269C165.658 269 165.005 268.677 164.631 268.03C164.258 267.383 164.071 266.477 164.071 265.31ZM168.201 265.31C168.201 264.73 168.161 264.24 168.081 263.84C168.008 263.433 167.851 263.107 167.611 262.86C167.378 262.613 167.038 262.49 166.591 262.49C166.138 262.49 165.791 262.613 165.551 262.86C165.318 263.107 165.161 263.433 165.081 263.84C165.008 264.24 164.971 264.73 164.971 265.31C164.971 265.91 165.008 266.413 165.081 266.82C165.161 267.227 165.318 267.553 165.551 267.8C165.791 268.047 166.138 268.17 166.591 268.17C167.038 268.17 167.378 268.047 167.611 267.8C167.851 267.553 168.008 267.227 168.081 266.82C168.161 266.413 168.201 265.91 168.201 265.31Z" fill="#9C9C9C"/>
<path d="M220.637 265.31C220.637 264.163 220.823 263.27 221.197 262.63C221.57 261.983 222.223 261.66 223.157 261.66C224.083 261.66 224.733 261.983 225.107 262.63C225.48 263.27 225.667 264.163 225.667 265.31C225.667 266.477 225.48 267.383 225.107 268.03C224.733 268.677 224.083 269 223.157 269C222.223 269 221.57 268.677 221.197 268.03C220.823 267.383 220.637 266.477 220.637 265.31ZM224.767 265.31C224.767 264.73 224.727 264.24 224.647 263.84C224.573 263.433 224.417 263.107 224.177 262.86C223.943 262.613 223.603 262.49 223.157 262.49C222.703 262.49 222.357 262.613 222.117 262.86C221.883 263.107 221.727 263.433 221.647 263.84C221.573 264.24 221.537 264.73 221.537 265.31C221.537 265.91 221.573 266.413 221.647 266.82C221.727 267.227 221.883 267.553 222.117 267.8C222.357 268.047 222.703 268.17 223.157 268.17C223.603 268.17 223.943 268.047 224.177 267.8C224.417 267.553 224.573 267.227 224.647 266.82C224.727 266.413 224.767 265.91 224.767 265.31ZM226.716 265.31C226.716 264.163 226.903 263.27 227.276 262.63C227.649 261.983 228.303 261.66 229.236 261.66C230.163 261.66 230.813 261.983 231.186 262.63C231.559 263.27 231.746 264.163 231.746 265.31C231.746 266.477 231.559 267.383 231.186 268.03C230.813 268.677 230.163 269 229.236 269C228.303 269 227.649 268.677 227.276 268.03C226.903 267.383 226.716 266.477 226.716 265.31ZM230.846 265.31C230.846 264.73 230.806 264.24 230.726 263.84C230.653 263.433 230.496 263.107 230.256 262.86C230.023 262.613 229.683 262.49 229.236 262.49C228.783 262.49 228.436 262.613 228.196 262.86C227.963 263.107 227.806 263.433 227.726 263.84C227.653 264.24 227.616 264.73 227.616 265.31C227.616 265.91 227.653 266.413 227.726 266.82C227.806 267.227 227.963 267.553 228.196 267.8C228.436 268.047 228.783 268.17 229.236 268.17C229.683 268.17 230.023 268.047 230.256 267.8C230.496 267.553 230.653 267.227 230.726 266.82C230.806 266.413 230.846 265.91 230.846 265.31Z" fill="#9C9C9C"/>
<path d="M308.45 265.31C308.45 264.163 308.637 263.27 309.01 262.63C309.383 261.983 310.037 261.66 310.97 261.66C311.897 261.66 312.547 261.983 312.92 262.63C313.293 263.27 313.48 264.163 313.48 265.31C313.48 266.477 313.293 267.383 312.92 268.03C312.547 268.677 311.897 269 310.97 269C310.037 269 309.383 268.677 309.01 268.03C308.637 267.383 308.45 266.477 308.45 265.31ZM312.58 265.31C312.58 264.73 312.54 264.24 312.46 263.84C312.387 263.433 312.23 263.107 311.99 262.86C311.757 262.613 311.417 262.49 310.97 262.49C310.517 262.49 310.17 262.613 309.93 262.86C309.697 263.107 309.54 263.433 309.46 263.84C309.387 264.24 309.35 264.73 309.35 265.31C309.35 265.91 309.387 266.413 309.46 266.82C309.54 267.227 309.697 267.553 309.93 267.8C310.17 268.047 310.517 268.17 310.97 268.17C311.417 268.17 311.757 268.047 311.99 267.8C312.23 267.553 312.387 267.227 312.46 266.82C312.54 266.413 312.58 265.91 312.58 265.31ZM314.529 265.31C314.529 264.163 314.716 263.27 315.089 262.63C315.463 261.983 316.116 261.66 317.049 261.66C317.976 261.66 318.626 261.983 318.999 262.63C319.373 263.27 319.559 264.163 319.559 265.31C319.559 266.477 319.373 267.383 318.999 268.03C318.626 268.677 317.976 269 317.049 269C316.116 269 315.463 268.677 315.089 268.03C314.716 267.383 314.529 266.477 314.529 265.31ZM318.659 265.31C318.659 264.73 318.619 264.24 318.539 263.84C318.466 263.433 318.309 263.107 318.069 262.86C317.836 262.613 317.496 262.49 317.049 262.49C316.596 262.49 316.249 262.613 316.009 262.86C315.776 263.107 315.619 263.433 315.539 263.84C315.466 264.24 315.429 264.73 315.429 265.31C315.429 265.91 315.466 266.413 315.539 266.82C315.619 267.227 315.776 267.553 316.009 267.8C316.249 268.047 316.596 268.17 317.049 268.17C317.496 268.17 317.836 268.047 318.069 267.8C318.309 267.553 318.466 267.227 318.539 266.82C318.619 266.413 318.659 265.91 318.659 265.31Z" fill="#9C9C9C"/>
<path d="M333.06 265.31C333.06 264.163 333.247 263.27 333.62 262.63C333.994 261.983 334.647 261.66 335.58 261.66C336.507 261.66 337.157 261.983 337.53 262.63C337.904 263.27 338.09 264.163 338.09 265.31C338.09 266.477 337.904 267.383 337.53 268.03C337.157 268.677 336.507 269 335.58 269C334.647 269 333.994 268.677 333.62 268.03C333.247 267.383 333.06 266.477 333.06 265.31ZM337.19 265.31C337.19 264.73 337.15 264.24 337.07 263.84C336.997 263.433 336.84 263.107 336.6 262.86C336.367 262.613 336.027 262.49 335.58 262.49C335.127 262.49 334.78 262.613 334.54 262.86C334.307 263.107 334.15 263.433 334.07 263.84C333.997 264.24 333.96 264.73 333.96 265.31C333.96 265.91 333.997 266.413 334.07 266.82C334.15 267.227 334.307 267.553 334.54 267.8C334.78 268.047 335.127 268.17 335.58 268.17C336.027 268.17 336.367 268.047 336.6 267.8C336.84 267.553 336.997 267.227 337.07 266.82C337.15 266.413 337.19 265.91 337.19 265.31ZM339.14 265.31C339.14 264.163 339.326 263.27 339.7 262.63C340.073 261.983 340.726 261.66 341.66 261.66C342.586 261.66 343.236 261.983 343.61 262.63C343.983 263.27 344.17 264.163 344.17 265.31C344.17 266.477 343.983 267.383 343.61 268.03C343.236 268.677 342.586 269 341.66 269C340.726 269 340.073 268.677 339.7 268.03C339.326 267.383 339.14 266.477 339.14 265.31ZM343.27 265.31C343.27 264.73 343.23 264.24 343.15 263.84C343.076 263.433 342.92 263.107 342.68 262.86C342.446 262.613 342.106 262.49 341.66 262.49C341.206 262.49 340.86 262.613 340.62 262.86C340.386 263.107 340.23 263.433 340.15 263.84C340.076 264.24 340.04 264.73 340.04 265.31C340.04 265.91 340.076 266.413 340.15 266.82C340.23 267.227 340.386 267.553 340.62 267.8C340.86 268.047 341.206 268.17 341.66 268.17C342.106 268.17 342.446 268.047 342.68 267.8C342.92 267.553 343.076 267.227 343.15 266.82C343.23 266.413 343.27 265.91 343.27 265.31Z" fill="#9C9C9C"/>
<path d="M250.279 265.31C250.279 264.163 250.466 263.27 250.839 262.63C251.213 261.983 251.866 261.66 252.799 261.66C253.726 261.66 254.376 261.983 254.749 262.63C255.123 263.27 255.309 264.163 255.309 265.31C255.309 266.477 255.123 267.383 254.749 268.03C254.376 268.677 253.726 269 252.799 269C251.866 269 251.213 268.677 250.839 268.03C250.466 267.383 250.279 266.477 250.279 265.31ZM254.409 265.31C254.409 264.73 254.369 264.24 254.289 263.84C254.216 263.433 254.059 263.107 253.819 262.86C253.586 262.613 253.246 262.49 252.799 262.49C252.346 262.49 251.999 262.613 251.759 262.86C251.526 263.107 251.369 263.433 251.289 263.84C251.216 264.24 251.179 264.73 251.179 265.31C251.179 265.91 251.216 266.413 251.289 266.82C251.369 267.227 251.526 267.553 251.759 267.8C251.999 268.047 252.346 268.17 252.799 268.17C253.246 268.17 253.586 268.047 253.819 267.8C254.059 267.553 254.216 267.227 254.289 266.82C254.369 266.413 254.409 265.91 254.409 265.31ZM256.358 265.31C256.358 264.163 256.545 263.27 256.918 262.63C257.292 261.983 257.945 261.66 258.878 261.66C259.805 261.66 260.455 261.983 260.828 262.63C261.202 263.27 261.388 264.163 261.388 265.31C261.388 266.477 261.202 267.383 260.828 268.03C260.455 268.677 259.805 269 258.878 269C257.945 269 257.292 268.677 256.918 268.03C256.545 267.383 256.358 266.477 256.358 265.31ZM260.488 265.31C260.488 264.73 260.448 264.24 260.368 263.84C260.295 263.433 260.138 263.107 259.898 262.86C259.665 262.613 259.325 262.49 258.878 262.49C258.425 262.49 258.078 262.613 257.838 262.86C257.605 263.107 257.448 263.433 257.368 263.84C257.295 264.24 257.258 264.73 257.258 265.31C257.258 265.91 257.295 266.413 257.368 266.82C257.448 267.227 257.605 267.553 257.838 267.8C258.078 268.047 258.425 268.17 258.878 268.17C259.325 268.17 259.665 268.047 259.898 267.8C260.138 267.553 260.295 267.227 260.368 266.82C260.448 266.413 260.488 265.91 260.488 265.31Z" fill="#9C9C9C"/>
<path d="M29.7118 160.31C29.7118 159.163 29.8985 158.27 30.2718 157.63C30.6451 156.983 31.2985 156.66 32.2318 156.66C33.1585 156.66 33.8085 156.983 34.1818 157.63C34.5551 158.27 34.7418 159.163 34.7418 160.31C34.7418 161.477 34.5551 162.383 34.1818 163.03C33.8085 163.677 33.1585 164 32.2318 164C31.2985 164 30.6451 163.677 30.2718 163.03C29.8985 162.383 29.7118 161.477 29.7118 160.31ZM33.8418 160.31C33.8418 159.73 33.8018 159.24 33.7218 158.84C33.6485 158.433 33.4918 158.107 33.2518 157.86C33.0185 157.613 32.6785 157.49 32.2318 157.49C31.7785 157.49 31.4318 157.613 31.1918 157.86C30.9585 158.107 30.8018 158.433 30.7218 158.84C30.6485 159.24 30.6118 159.73 30.6118 160.31C30.6118 160.91 30.6485 161.413 30.7218 161.82C30.8018 162.227 30.9585 162.553 31.1918 162.8C31.4318 163.047 31.7785 163.17 32.2318 163.17C32.6785 163.17 33.0185 163.047 33.2518 162.8C33.4918 162.553 33.6485 162.227 33.7218 161.82C33.8018 161.413 33.8418 160.91 33.8418 160.31ZM35.7911 160.31C35.7911 159.163 35.9778 158.27 36.3511 157.63C36.7244 156.983 37.3778 156.66 38.3111 156.66C39.2378 156.66 39.8878 156.983 40.2611 157.63C40.6344 158.27 40.8211 159.163 40.8211 160.31C40.8211 161.477 40.6344 162.383 40.2611 163.03C39.8878 163.677 39.2378 164 38.3111 164C37.3778 164 36.7244 163.677 36.3511 163.03C35.9778 162.383 35.7911 161.477 35.7911 160.31ZM39.9211 160.31C39.9211 159.73 39.8811 159.24 39.8011 158.84C39.7278 158.433 39.5711 158.107 39.3311 157.86C39.0978 157.613 38.7578 157.49 38.3111 157.49C37.8578 157.49 37.5111 157.613 37.2711 157.86C37.0378 158.107 36.8811 158.433 36.8011 158.84C36.7278 159.24 36.6911 159.73 36.6911 160.31C36.6911 160.91 36.7278 161.413 36.8011 161.82C36.8811 162.227 37.0378 162.553 37.2711 162.8C37.5111 163.047 37.8578 163.17 38.3111 163.17C38.7578 163.17 39.0978 163.047 39.3311 162.8C39.5711 162.553 39.7278 162.227 39.8011 161.82C39.8811 161.413 39.9211 160.91 39.9211 160.31ZM42.3104 164.06C42.1371 164.06 41.9904 164 41.8704 163.88C41.7504 163.76 41.6904 163.613 41.6904 163.44C41.6904 163.267 41.7504 163.12 41.8704 163C41.9904 162.88 42.1371 162.82 42.3104 162.82C42.4771 162.82 42.6171 162.88 42.7304 163C42.8504 163.12 42.9104 163.267 42.9104 163.44C42.9104 163.613 42.8504 163.76 42.7304 163.88C42.6171 164 42.4771 164.06 42.3104 164.06ZM43.77 160.31C43.77 159.163 43.9567 158.27 44.33 157.63C44.7033 156.983 45.3567 156.66 46.29 156.66C47.2167 156.66 47.8667 156.983 48.24 157.63C48.6133 158.27 48.8 159.163 48.8 160.31C48.8 161.477 48.6133 162.383 48.24 163.03C47.8667 163.677 47.2167 164 46.29 164C45.3567 164 44.7033 163.677 44.33 163.03C43.9567 162.383 43.77 161.477 43.77 160.31ZM47.9 160.31C47.9 159.73 47.86 159.24 47.78 158.84C47.7067 158.433 47.55 158.107 47.31 157.86C47.0767 157.613 46.7367 157.49 46.29 157.49C45.8367 157.49 45.49 157.613 45.25 157.86C45.0167 158.107 44.86 158.433 44.78 158.84C44.7067 159.24 44.67 159.73 44.67 160.31C44.67 160.91 44.7067 161.413 44.78 161.82C44.86 162.227 45.0167 162.553 45.25 162.8C45.49 163.047 45.8367 163.17 46.29 163.17C46.7367 163.17 47.0767 163.047 47.31 162.8C47.55 162.553 47.7067 162.227 47.78 161.82C47.86 161.413 47.9 160.91 47.9 160.31Z" fill="#9C9C9C"/>
<path d="M29.7118 189.31C29.7118 188.163 29.8985 187.27 30.2718 186.63C30.6451 185.983 31.2985 185.66 32.2318 185.66C33.1585 185.66 33.8085 185.983 34.1818 186.63C34.5551 187.27 34.7418 188.163 34.7418 189.31C34.7418 190.477 34.5551 191.383 34.1818 192.03C33.8085 192.677 33.1585 193 32.2318 193C31.2985 193 30.6451 192.677 30.2718 192.03C29.8985 191.383 29.7118 190.477 29.7118 189.31ZM33.8418 189.31C33.8418 188.73 33.8018 188.24 33.7218 187.84C33.6485 187.433 33.4918 187.107 33.2518 186.86C33.0185 186.613 32.6785 186.49 32.2318 186.49C31.7785 186.49 31.4318 186.613 31.1918 186.86C30.9585 187.107 30.8018 187.433 30.7218 187.84C30.6485 188.24 30.6118 188.73 30.6118 189.31C30.6118 189.91 30.6485 190.413 30.7218 190.82C30.8018 191.227 30.9585 191.553 31.1918 191.8C31.4318 192.047 31.7785 192.17 32.2318 192.17C32.6785 192.17 33.0185 192.047 33.2518 191.8C33.4918 191.553 33.6485 191.227 33.7218 190.82C33.8018 190.413 33.8418 189.91 33.8418 189.31ZM35.7911 189.31C35.7911 188.163 35.9778 187.27 36.3511 186.63C36.7244 185.983 37.3778 185.66 38.3111 185.66C39.2378 185.66 39.8878 185.983 40.2611 186.63C40.6344 187.27 40.8211 188.163 40.8211 189.31C40.8211 190.477 40.6344 191.383 40.2611 192.03C39.8878 192.677 39.2378 193 38.3111 193C37.3778 193 36.7244 192.677 36.3511 192.03C35.9778 191.383 35.7911 190.477 35.7911 189.31ZM39.9211 189.31C39.9211 188.73 39.8811 188.24 39.8011 187.84C39.7278 187.433 39.5711 187.107 39.3311 186.86C39.0978 186.613 38.7578 186.49 38.3111 186.49C37.8578 186.49 37.5111 186.613 37.2711 186.86C37.0378 187.107 36.8811 187.433 36.8011 187.84C36.7278 188.24 36.6911 188.73 36.6911 189.31C36.6911 189.91 36.7278 190.413 36.8011 190.82C36.8811 191.227 37.0378 191.553 37.2711 191.8C37.5111 192.047 37.8578 192.17 38.3111 192.17C38.7578 192.17 39.0978 192.047 39.3311 191.8C39.5711 191.553 39.7278 191.227 39.8011 190.82C39.8811 190.413 39.9211 189.91 39.9211 189.31ZM42.3104 193.06C42.1371 193.06 41.9904 193 41.8704 192.88C41.7504 192.76 41.6904 192.613 41.6904 192.44C41.6904 192.267 41.7504 192.12 41.8704 192C41.9904 191.88 42.1371 191.82 42.3104 191.82C42.4771 191.82 42.6171 191.88 42.7304 192C42.8504 192.12 42.9104 192.267 42.9104 192.44C42.9104 192.613 42.8504 192.76 42.7304 192.88C42.6171 193 42.4771 193.06 42.3104 193.06ZM43.77 189.31C43.77 188.163 43.9567 187.27 44.33 186.63C44.7033 185.983 45.3567 185.66 46.29 185.66C47.2167 185.66 47.8667 185.983 48.24 186.63C48.6133 187.27 48.8 188.163 48.8 189.31C48.8 190.477 48.6133 191.383 48.24 192.03C47.8667 192.677 47.2167 193 46.29 193C45.3567 193 44.7033 192.677 44.33 192.03C43.9567 191.383 43.77 190.477 43.77 189.31ZM47.9 189.31C47.9 188.73 47.86 188.24 47.78 187.84C47.7067 187.433 47.55 187.107 47.31 186.86C47.0767 186.613 46.7367 186.49 46.29 186.49C45.8367 186.49 45.49 186.613 45.25 186.86C45.0167 187.107 44.86 187.433 44.78 187.84C44.7067 188.24 44.67 188.73 44.67 189.31C44.67 189.91 44.7067 190.413 44.78 190.82C44.86 191.227 45.0167 191.553 45.25 191.8C45.49 192.047 45.8367 192.17 46.29 192.17C46.7367 192.17 47.0767 192.047 47.31 191.8C47.55 191.553 47.7067 191.227 47.78 190.82C47.86 190.413 47.9 189.91 47.9 189.31Z" fill="#9C9C9C"/>
<path d="M29.7118 217.31C29.7118 216.163 29.8985 215.27 30.2718 214.63C30.6451 213.983 31.2985 213.66 32.2318 213.66C33.1585 213.66 33.8085 213.983 34.1818 214.63C34.5551 215.27 34.7418 216.163 34.7418 217.31C34.7418 218.477 34.5551 219.383 34.1818 220.03C33.8085 220.677 33.1585 221 32.2318 221C31.2985 221 30.6451 220.677 30.2718 220.03C29.8985 219.383 29.7118 218.477 29.7118 217.31ZM33.8418 217.31C33.8418 216.73 33.8018 216.24 33.7218 215.84C33.6485 215.433 33.4918 215.107 33.2518 214.86C33.0185 214.613 32.6785 214.49 32.2318 214.49C31.7785 214.49 31.4318 214.613 31.1918 214.86C30.9585 215.107 30.8018 215.433 30.7218 215.84C30.6485 216.24 30.6118 216.73 30.6118 217.31C30.6118 217.91 30.6485 218.413 30.7218 218.82C30.8018 219.227 30.9585 219.553 31.1918 219.8C31.4318 220.047 31.7785 220.17 32.2318 220.17C32.6785 220.17 33.0185 220.047 33.2518 219.8C33.4918 219.553 33.6485 219.227 33.7218 218.82C33.8018 218.413 33.8418 217.91 33.8418 217.31ZM35.7911 217.31C35.7911 216.163 35.9778 215.27 36.3511 214.63C36.7244 213.983 37.3778 213.66 38.3111 213.66C39.2378 213.66 39.8878 213.983 40.2611 214.63C40.6344 215.27 40.8211 216.163 40.8211 217.31C40.8211 218.477 40.6344 219.383 40.2611 220.03C39.8878 220.677 39.2378 221 38.3111 221C37.3778 221 36.7244 220.677 36.3511 220.03C35.9778 219.383 35.7911 218.477 35.7911 217.31ZM39.9211 217.31C39.9211 216.73 39.8811 216.24 39.8011 215.84C39.7278 215.433 39.5711 215.107 39.3311 214.86C39.0978 214.613 38.7578 214.49 38.3111 214.49C37.8578 214.49 37.5111 214.613 37.2711 214.86C37.0378 215.107 36.8811 215.433 36.8011 215.84C36.7278 216.24 36.6911 216.73 36.6911 217.31C36.6911 217.91 36.7278 218.413 36.8011 218.82C36.8811 219.227 37.0378 219.553 37.2711 219.8C37.5111 220.047 37.8578 220.17 38.3111 220.17C38.7578 220.17 39.0978 220.047 39.3311 219.8C39.5711 219.553 39.7278 219.227 39.8011 218.82C39.8811 218.413 39.9211 217.91 39.9211 217.31ZM42.3104 221.06C42.1371 221.06 41.9904 221 41.8704 220.88C41.7504 220.76 41.6904 220.613 41.6904 220.44C41.6904 220.267 41.7504 220.12 41.8704 220C41.9904 219.88 42.1371 219.82 42.3104 219.82C42.4771 219.82 42.6171 219.88 42.7304 220C42.8504 220.12 42.9104 220.267 42.9104 220.44C42.9104 220.613 42.8504 220.76 42.7304 220.88C42.6171 221 42.4771 221.06 42.3104 221.06ZM43.77 217.31C43.77 216.163 43.9567 215.27 44.33 214.63C44.7033 213.983 45.3567 213.66 46.29 213.66C47.2167 213.66 47.8667 213.983 48.24 214.63C48.6133 215.27 48.8 216.163 48.8 217.31C48.8 218.477 48.6133 219.383 48.24 220.03C47.8667 220.677 47.2167 221 46.29 221C45.3567 221 44.7033 220.677 44.33 220.03C43.9567 219.383 43.77 218.477 43.77 217.31ZM47.9 217.31C47.9 216.73 47.86 216.24 47.78 215.84C47.7067 215.433 47.55 215.107 47.31 214.86C47.0767 214.613 46.7367 214.49 46.29 214.49C45.8367 214.49 45.49 214.613 45.25 214.86C45.0167 215.107 44.86 215.433 44.78 215.84C44.7067 216.24 44.67 216.73 44.67 217.31C44.67 217.91 44.7067 218.413 44.78 218.82C44.86 219.227 45.0167 219.553 45.25 219.8C45.49 220.047 45.8367 220.17 46.29 220.17C46.7367 220.17 47.0767 220.047 47.31 219.8C47.55 219.553 47.7067 219.227 47.78 218.82C47.86 218.413 47.9 217.91 47.9 217.31Z" fill="#9C9C9C"/>
<path d="M29.7118 245.31C29.7118 244.163 29.8985 243.27 30.2718 242.63C30.6451 241.983 31.2985 241.66 32.2318 241.66C33.1585 241.66 33.8085 241.983 34.1818 242.63C34.5551 243.27 34.7418 244.163 34.7418 245.31C34.7418 246.477 34.5551 247.383 34.1818 248.03C33.8085 248.677 33.1585 249 32.2318 249C31.2985 249 30.6451 248.677 30.2718 248.03C29.8985 247.383 29.7118 246.477 29.7118 245.31ZM33.8418 245.31C33.8418 244.73 33.8018 244.24 33.7218 243.84C33.6485 243.433 33.4918 243.107 33.2518 242.86C33.0185 242.613 32.6785 242.49 32.2318 242.49C31.7785 242.49 31.4318 242.613 31.1918 242.86C30.9585 243.107 30.8018 243.433 30.7218 243.84C30.6485 244.24 30.6118 244.73 30.6118 245.31C30.6118 245.91 30.6485 246.413 30.7218 246.82C30.8018 247.227 30.9585 247.553 31.1918 247.8C31.4318 248.047 31.7785 248.17 32.2318 248.17C32.6785 248.17 33.0185 248.047 33.2518 247.8C33.4918 247.553 33.6485 247.227 33.7218 246.82C33.8018 246.413 33.8418 245.91 33.8418 245.31ZM35.7911 245.31C35.7911 244.163 35.9778 243.27 36.3511 242.63C36.7244 241.983 37.3778 241.66 38.3111 241.66C39.2378 241.66 39.8878 241.983 40.2611 242.63C40.6344 243.27 40.8211 244.163 40.8211 245.31C40.8211 246.477 40.6344 247.383 40.2611 248.03C39.8878 248.677 39.2378 249 38.3111 249C37.3778 249 36.7244 248.677 36.3511 248.03C35.9778 247.383 35.7911 246.477 35.7911 245.31ZM39.9211 245.31C39.9211 244.73 39.8811 244.24 39.8011 243.84C39.7278 243.433 39.5711 243.107 39.3311 242.86C39.0978 242.613 38.7578 242.49 38.3111 242.49C37.8578 242.49 37.5111 242.613 37.2711 242.86C37.0378 243.107 36.8811 243.433 36.8011 243.84C36.7278 244.24 36.6911 244.73 36.6911 245.31C36.6911 245.91 36.7278 246.413 36.8011 246.82C36.8811 247.227 37.0378 247.553 37.2711 247.8C37.5111 248.047 37.8578 248.17 38.3111 248.17C38.7578 248.17 39.0978 248.047 39.3311 247.8C39.5711 247.553 39.7278 247.227 39.8011 246.82C39.8811 246.413 39.9211 245.91 39.9211 245.31ZM42.3104 249.06C42.1371 249.06 41.9904 249 41.8704 248.88C41.7504 248.76 41.6904 248.613 41.6904 248.44C41.6904 248.267 41.7504 248.12 41.8704 248C41.9904 247.88 42.1371 247.82 42.3104 247.82C42.4771 247.82 42.6171 247.88 42.7304 248C42.8504 248.12 42.9104 248.267 42.9104 248.44C42.9104 248.613 42.8504 248.76 42.7304 248.88C42.6171 249 42.4771 249.06 42.3104 249.06ZM43.77 245.31C43.77 244.163 43.9567 243.27 44.33 242.63C44.7033 241.983 45.3567 241.66 46.29 241.66C47.2167 241.66 47.8667 241.983 48.24 242.63C48.6133 243.27 48.8 244.163 48.8 245.31C48.8 246.477 48.6133 247.383 48.24 248.03C47.8667 248.677 47.2167 249 46.29 249C45.3567 249 44.7033 248.677 44.33 248.03C43.9567 247.383 43.77 246.477 43.77 245.31ZM47.9 245.31C47.9 244.73 47.86 244.24 47.78 243.84C47.7067 243.433 47.55 243.107 47.31 242.86C47.0767 242.613 46.7367 242.49 46.29 242.49C45.8367 242.49 45.49 242.613 45.25 242.86C45.0167 243.107 44.86 243.433 44.78 243.84C44.7067 244.24 44.67 244.73 44.67 245.31C44.67 245.91 44.7067 246.413 44.78 246.82C44.86 247.227 45.0167 247.553 45.25 247.8C45.49 248.047 45.8367 248.17 46.29 248.17C46.7367 248.17 47.0767 248.047 47.31 247.8C47.55 247.553 47.7067 247.227 47.78 246.82C47.86 246.413 47.9 245.91 47.9 245.31Z" fill="#9C9C9C"/>
</svg>
