<svg width="24" height="28" viewBox="0 0 24 28" fill="none" xmlns="http://www.w3.org/2000/svg">
<path d="M23.7236 20.254C23.0298 19.0099 21.9986 15.4896 21.9986 10.8917C21.9986 8.13047 20.945 5.48233 19.0696 3.52985C17.1943 1.57736 14.6507 0.480469 11.9986 0.480469C9.34639 0.480469 6.80285 1.57736 4.92748 3.52985C3.05212 5.48233 1.99855 8.13047 1.99855 10.8917C1.99855 15.4909 0.966051 19.0099 0.272301 20.254C0.0951393 20.5703 0.00121912 20.9296 1.17887e-05 21.2958C-0.00119554 21.6619 0.0903529 22.0219 0.265425 22.3395C0.440496 22.6571 0.692901 22.9209 0.997183 23.1045C1.30146 23.2881 1.64687 23.3849 1.99855 23.3852H7.0998C7.33052 24.5606 7.94408 25.6169 8.83672 26.3755C9.72935 27.1342 10.8463 27.5485 11.9986 27.5485C13.1508 27.5485 14.2677 27.1342 15.1604 26.3755C16.053 25.6169 16.6666 24.5606 16.8973 23.3852H21.9986C22.3501 23.3847 22.6954 23.2877 22.9995 23.104C23.3036 22.9203 23.5558 22.6564 23.7307 22.3389C23.9057 22.0214 23.9971 21.6615 23.9958 21.2955C23.9946 20.9294 23.9007 20.5702 23.7236 20.254ZM11.9986 25.4674C11.3783 25.4672 10.7734 25.2669 10.267 24.894C9.76069 24.5211 9.37779 23.994 9.17105 23.3852H14.8261C14.6193 23.994 14.2364 24.5211 13.7301 24.894C13.2237 25.2669 12.6188 25.4672 11.9986 25.4674ZM1.99855 21.3029C2.96105 19.5799 3.99855 15.5872 3.99855 10.8917C3.99855 8.68272 4.84141 6.56421 6.3417 5.00222C7.84199 3.44023 9.87682 2.56272 11.9986 2.56272C14.1203 2.56272 16.1551 3.44023 17.6554 5.00222C19.1557 6.56421 19.9986 8.68272 19.9986 10.8917C19.9986 15.5833 21.0336 19.576 21.9986 21.3029H1.99855Z" fill="#D9D9D9"/>
</svg>
