<svg width="27" height="28" viewBox="0 0 27 28" fill="none" xmlns="http://www.w3.org/2000/svg">
<path d="M25.7351 25.3203L19.4764 18.8054C21.2904 16.538 22.195 13.6297 22.0019 10.6856C21.8089 7.74151 20.533 4.98823 18.4398 2.99853C16.3466 1.00884 13.5972 -0.0640849 10.7635 0.00296332C7.92984 0.0700115 5.23008 1.27187 3.22586 3.35851C1.22163 5.44516 0.0672461 8.25594 0.00284627 11.2061C-0.0615536 14.1563 0.968989 17.0188 2.88009 19.1981C4.7912 21.3774 7.43573 22.7057 10.2635 22.9067C13.0914 23.1077 15.8848 22.166 18.0626 20.2773L24.3201 26.7934C24.413 26.8902 24.5233 26.9669 24.6447 27.0193C24.7661 27.0716 24.8962 27.0986 25.0276 27.0986C25.159 27.0986 25.2891 27.0716 25.4105 27.0193C25.5319 26.9669 25.6422 26.8902 25.7351 26.7934C25.828 26.6967 25.9017 26.5819 25.952 26.4555C26.0023 26.3291 26.0282 26.1936 26.0282 26.0569C26.0282 25.9201 26.0023 25.7846 25.952 25.6582C25.9017 25.5318 25.828 25.417 25.7351 25.3203ZM2.02763 11.4811C2.02763 9.62789 2.55547 7.81627 3.5444 6.27537C4.53334 4.73446 5.93894 3.53347 7.58348 2.82427C9.22801 2.11507 11.0376 1.92951 12.7834 2.29106C14.5293 2.6526 16.1329 3.54502 17.3916 4.85545C18.6503 6.16589 19.5074 7.83548 19.8547 9.6531C20.202 11.4707 20.0237 13.3547 19.3425 15.0669C18.6614 16.7791 17.5078 18.2425 16.0278 19.2721C14.5477 20.3017 12.8077 20.8512 11.0276 20.8512C8.64149 20.8485 6.35385 19.8604 4.66659 18.1037C2.97934 16.3471 2.03028 13.9654 2.02763 11.4811Z" fill="#D9D9D9"/>
</svg>
