<svg width="77" height="77" viewBox="0 0 77 77" fill="none" xmlns="http://www.w3.org/2000/svg">
<path d="M70.5833 0H6.41667C4.71486 0 3.08276 0.64904 1.8794 1.80434C0.676039 2.95964 0 4.52656 0 6.1604V28.7883C0 63.2904 30.407 74.7372 36.4948 76.6816C37.795 77.1061 39.205 77.1061 40.5052 76.6816C46.601 74.7372 77 63.2904 77 28.7883V6.1604C77 4.52656 76.324 2.95964 75.1206 1.80434C73.9172 0.64904 72.2851 0 70.5833 0ZM70.5833 28.796C70.5833 58.9897 43.9742 69.0774 38.5 70.8331C33.0739 69.0966 6.41667 59.0167 6.41667 28.796V6.1604H70.5833V28.796Z" fill="#51D0FF"/>
<path d="M46.08 34.1551C47.092 33.2078 47.8028 31.9978 48.1279 30.669C48.4529 29.3403 48.3786 27.9487 47.9137 26.6598C47.4488 25.371 46.6129 24.2391 45.5055 23.3987C44.398 22.5584 43.0656 22.045 41.6667 21.9197V19.2963C41.6667 18.9525 41.5262 18.6228 41.2761 18.3797C41.0261 18.1366 40.6869 18 40.3333 18C39.9797 18 39.6406 18.1366 39.3905 18.3797C39.1405 18.6228 39 18.9525 39 19.2963V21.8889H36.3333V19.2963C36.3333 18.9525 36.1929 18.6228 35.9428 18.3797C35.6928 18.1366 35.3536 18 35 18C34.6464 18 34.3072 18.1366 34.0572 18.3797C33.8071 18.6228 33.6667 18.9525 33.6667 19.2963V21.8889H28.3333C27.9797 21.8889 27.6406 22.0255 27.3905 22.2686C27.1405 22.5117 27 22.8414 27 23.1852C27 23.529 27.1405 23.8587 27.3905 24.1018C27.6406 24.3449 27.9797 24.4815 28.3333 24.4815H29.6667V46.5185H28.3333C27.9797 46.5185 27.6406 46.6551 27.3905 46.8982C27.1405 47.1413 27 47.471 27 47.8148C27 48.1586 27.1405 48.4883 27.3905 48.7314C27.6406 48.9745 27.9797 49.1111 28.3333 49.1111H33.6667V51.7037C33.6667 52.0475 33.8071 52.3772 34.0572 52.6203C34.3072 52.8634 34.6464 53 35 53C35.3536 53 35.6928 52.8634 35.9428 52.6203C36.1929 52.3772 36.3333 52.0475 36.3333 51.7037V49.1111H39V51.7037C39 52.0475 39.1405 52.3772 39.3905 52.6203C39.6406 52.8634 39.9797 53 40.3333 53C40.6869 53 41.0261 52.8634 41.2761 52.6203C41.5262 52.3772 41.6667 52.0475 41.6667 51.7037V49.1111H43C44.8491 49.1111 46.6411 48.4883 48.0713 47.3487C49.5014 46.2091 50.4813 44.623 50.8443 42.8603C51.2073 41.0975 50.931 39.2669 50.0624 37.6798C49.1938 36.0928 47.7866 34.8472 46.08 34.1551ZM45.6667 29.0185C45.6667 30.2218 45.175 31.3758 44.2998 32.2267C43.4247 33.0775 42.2377 33.5556 41 33.5556H32.3333V24.4815H41C42.2377 24.4815 43.4247 24.9595 44.2998 25.8103C45.175 26.6612 45.6667 27.8152 45.6667 29.0185ZM43 46.5185H32.3333V36.1481H43C44.4145 36.1481 45.771 36.6944 46.7712 37.6669C47.7714 38.6393 48.3333 39.9581 48.3333 41.3333C48.3333 42.7085 47.7714 44.0274 46.7712 44.9998C45.771 45.9722 44.4145 46.5185 43 46.5185Z" fill="#51D0FF"/>
</svg>
