<svg width="22" height="24" viewBox="0 0 22 24" fill="none" xmlns="http://www.w3.org/2000/svg">
<path d="M21.7083 19.2688L17.7083 23.4333C17.5206 23.6286 17.2661 23.7384 17.0008 23.7384C16.7354 23.7384 16.4809 23.6286 16.2933 23.4333C16.1056 23.2379 16.0002 22.973 16.0002 22.6967C16.0002 22.4204 16.1056 22.1555 16.2933 21.9601L18.587 19.5733H1.00079C0.73557 19.5733 0.481217 19.4636 0.29368 19.2684C0.106144 19.0731 0.000786781 18.8083 0.000786781 18.5322C0.000786781 18.2561 0.106144 17.9913 0.29368 17.796C0.481217 17.6008 0.73557 17.4911 1.00079 17.4911H18.587L16.2933 15.1043C16.1056 14.9089 16.0002 14.644 16.0002 14.3677C16.0002 14.0914 16.1056 13.8265 16.2933 13.6311C16.4809 13.4358 16.7354 13.326 17.0008 13.326C17.2661 13.326 17.5206 13.4358 17.7083 13.6311L21.7083 17.7956C21.8013 17.8923 21.875 18.0071 21.9253 18.1335C21.9757 18.2599 22.0016 18.3954 22.0016 18.5322C22.0016 18.669 21.9757 18.8045 21.9253 18.9309C21.875 19.0573 21.8013 19.1721 21.7083 19.2688ZM4.29329 10.9398C4.48093 11.1352 4.73542 11.2449 5.00079 11.2449C5.26615 11.2449 5.52065 11.1352 5.70829 10.9398C5.89593 10.7444 6.00134 10.4795 6.00134 10.2032C6.00134 9.92693 5.89593 9.66197 5.70829 9.46661L3.41454 7.07984H21.0008C21.266 7.07984 21.5204 6.97015 21.7079 6.7749C21.8954 6.57965 22.0008 6.31484 22.0008 6.03872C22.0008 5.76259 21.8954 5.49778 21.7079 5.30253C21.5204 5.10728 21.266 4.99759 21.0008 4.99759H3.41454L5.70829 2.61082C5.89593 2.41546 6.00134 2.1505 6.00134 1.87422C6.00134 1.59795 5.89593 1.33298 5.70829 1.13763C5.52065 0.94227 5.26615 0.83252 5.00079 0.83252C4.73542 0.83252 4.48093 0.94227 4.29329 1.13763L0.293287 5.30212C0.20031 5.39881 0.126551 5.51364 0.0762272 5.64003C0.0259029 5.76642 0 5.9019 0 6.03872C0 6.17554 0.0259029 6.31101 0.0762272 6.4374C0.126551 6.56379 0.20031 6.67862 0.293287 6.77531L4.29329 10.9398Z" fill="#D9D9D9"/>
</svg>
