<svg width="26" height="28" viewBox="0 0 26 28" fill="none" xmlns="http://www.w3.org/2000/svg">
<path d="M25.6534 22.5364L20.9265 27.627C20.7047 27.8658 20.404 28 20.0904 28C19.7768 28 19.4761 27.8658 19.2543 27.627C19.0326 27.3882 18.908 27.0643 18.908 26.7266C18.908 26.3889 19.0326 26.065 19.2543 25.8262L21.9649 22.9086H1.18266C0.869248 22.9086 0.56867 22.7746 0.347052 22.5359C0.125434 22.2972 0.000929766 21.9735 0.000929766 21.636C0.000929766 21.2984 0.125434 20.9747 0.347052 20.7361C0.56867 20.4974 0.869248 20.3633 1.18266 20.3633H21.9649L19.2543 17.4457C19.0326 17.2069 18.908 16.883 18.908 16.5453C18.908 16.2076 19.0326 15.8837 19.2543 15.6449C19.4761 15.4061 19.7768 15.272 20.0904 15.272C20.404 15.272 20.7047 15.4061 20.9265 15.6449L25.6534 20.7356C25.7633 20.8538 25.8505 20.9941 25.9099 21.1486C25.9694 21.3031 26 21.4687 26 21.636C26 21.8032 25.9694 21.9688 25.9099 22.1233C25.8505 22.2778 25.7633 22.4182 25.6534 22.5364ZM5.07352 12.3551C5.29526 12.5939 5.59601 12.728 5.9096 12.728C6.22319 12.728 6.52393 12.5939 6.74568 12.3551C6.96742 12.1163 7.09199 11.7924 7.09199 11.4547C7.09199 11.117 6.96742 10.7931 6.74568 10.5543L4.03507 7.63668H24.8173C25.1308 7.63668 25.4313 7.5026 25.653 7.26393C25.8746 7.02526 25.9991 6.70155 25.9991 6.36402C25.9991 6.02649 25.8746 5.70278 25.653 5.46411C25.4313 5.22544 25.1308 5.09136 24.8173 5.09136H4.03507L6.74568 2.17378C6.96742 1.93498 7.09199 1.61109 7.09199 1.27337C7.09199 0.935652 6.96742 0.611765 6.74567 0.372962C6.52393 0.134158 6.22319 5.0324e-09 5.9096 0C5.59601 -5.0324e-09 5.29526 0.134158 5.07352 0.372962L0.346587 5.46361C0.236713 5.58181 0.14955 5.72217 0.0900802 5.87667C0.0306103 6.03117 0 6.19677 0 6.36402C0 6.53127 0.0306103 6.69688 0.0900802 6.85138C0.14955 7.00588 0.236713 7.14624 0.346587 7.26443L5.07352 12.3551Z" fill="#51D0FF"/>
</svg>
