<svg width="64" height="62" viewBox="0 0 64 62" fill="none" xmlns="http://www.w3.org/2000/svg">
<path d="M64 31C64 39.2217 60.6286 47.1067 54.6274 52.9203C48.6263 58.7339 40.4869 62 32 62C23.5131 62 15.3737 58.7339 9.37258 52.9203C3.37142 47.1067 0 39.2217 0 31C0 22.7783 3.37142 14.8933 9.37258 9.07969C15.3737 3.26606 23.5131 0 32 0C40.4869 0 48.6263 3.26606 54.6274 9.07969C60.6286 14.8933 64 22.7783 64 31ZM33.148 22.8858C30.0333 24.1413 23.812 26.7375 14.484 30.6745C12.972 31.2557 12.1787 31.8267 12.104 32.3872C11.984 33.3289 13.204 33.7009 14.864 34.2085L15.564 34.4216C17.196 34.937 19.396 35.5376 20.536 35.5609C21.576 35.5867 22.7333 35.1734 24.008 34.3209C32.7253 28.622 37.224 25.7416 37.504 25.6796C37.704 25.6331 37.984 25.5789 38.168 25.7416C38.352 25.9044 38.336 26.2066 38.316 26.288C38.196 26.7879 33.408 31.0969 30.932 33.3289C30.16 34.0264 29.612 34.5185 29.5 34.6309C29.2534 34.8751 29.0027 35.1154 28.748 35.3516C27.228 36.7699 26.092 37.8316 28.808 39.5676C30.116 40.4046 31.164 41.0905 32.208 41.7802C33.344 42.532 34.48 43.2799 35.952 44.2176C36.3253 44.4553 36.6853 44.6968 37.032 44.9422C38.356 45.8567 39.552 46.6782 41.02 46.5465C41.876 46.469 42.76 45.694 43.208 43.369C44.268 37.8781 46.352 25.9858 46.832 21.0839C46.8622 20.6764 46.8447 20.2669 46.78 19.8632C46.7412 19.5378 46.5786 19.238 46.324 19.0224C45.9596 18.7799 45.526 18.6539 45.084 18.662C43.884 18.6814 42.032 19.3053 33.148 22.8858Z" fill="#51D0FF"/>
</svg>
