<svg width="51" height="71" viewBox="0 0 51 71" fill="none" xmlns="http://www.w3.org/2000/svg">
<path d="M49.6024 60.8529L28.8501 35.5L49.6024 10.1471C49.6142 10.1301 49.6268 10.1141 49.6401 10.099C50.2881 9.27156 50.7294 8.21756 50.9081 7.0702C51.0869 5.92284 50.995 4.73362 50.6443 3.65283C50.2935 2.57204 49.6995 1.64818 48.9374 0.99801C48.1753 0.347842 47.2792 0.000542064 46.3625 0H4.63171C3.71521 0.00127229 2.81956 0.3491 2.05788 0.999549C1.29621 1.65 0.702688 2.57389 0.352279 3.65453C0.00187049 4.73517 -0.0897051 5.92409 0.0891201 7.0711C0.267945 8.21812 0.70915 9.27178 1.357 10.099L1.39178 10.1471L22.1442 35.5L1.39178 60.8529L1.357 60.901C0.70915 61.7282 0.267945 62.7819 0.0891201 63.9289C-0.0897051 65.0759 0.00187049 66.2648 0.352279 67.3455C0.702688 68.4261 1.29621 69.35 2.05788 70.0005C2.81956 70.6509 3.71521 70.9987 4.63171 71H46.3625C47.2795 71.0002 48.1759 70.6534 48.9385 70.0035C49.7011 69.3536 50.2955 68.4298 50.6466 67.3489C50.9977 66.2679 51.0898 65.0784 50.9112 63.9307C50.7325 62.783 50.2912 61.7287 49.643 60.901C49.6287 60.886 49.6152 60.87 49.6024 60.8529ZM46.3625 5.91667L25.4971 31.4027L4.63171 5.91667H46.3625ZM4.63171 65.0833L25.4971 39.5973L46.3625 65.0833H4.63171Z" fill="#51D0FF"/>
</svg>
