<svg width="200" height="200" viewBox="0 0 200 200" fill="none" xmlns="http://www.w3.org/2000/svg">
<path d="M143.904 71.4808C144.619 72.1952 145.186 73.0435 145.574 73.9774C145.961 74.9112 146.16 75.9122 146.16 76.9231C146.16 77.934 145.961 78.9349 145.574 79.8688C145.186 80.8026 144.619 81.651 143.904 82.3654L90.0577 136.212C89.3433 136.927 88.4949 137.494 87.5611 137.881C86.6273 138.268 85.6263 138.468 84.6154 138.468C83.6045 138.468 82.6035 138.268 81.6697 137.881C80.7359 137.494 79.8875 136.927 79.1731 136.212L56.0962 113.135C54.6528 111.691 53.8419 109.734 53.8419 107.692C53.8419 105.651 54.6528 103.693 56.0962 102.25C57.5396 100.807 59.4972 99.9957 61.5385 99.9957C63.5798 99.9957 65.5374 100.807 66.9808 102.25L84.6154 119.894L133.019 71.4808C133.734 70.7655 134.582 70.1982 135.516 69.8111C136.45 69.424 137.451 69.2247 138.462 69.2247C139.472 69.2247 140.473 69.424 141.407 69.8111C142.341 70.1982 143.189 70.7655 143.904 71.4808ZM200 100C200 119.778 194.135 139.112 183.147 155.557C172.159 172.002 156.541 184.819 138.268 192.388C119.996 199.957 99.8891 201.937 80.491 198.078C61.0929 194.22 43.2746 184.696 29.2894 170.711C15.3041 156.725 5.78004 138.907 1.92152 119.509C-1.937 100.111 0.0433284 80.0042 7.61209 61.7316C15.1809 43.459 27.9981 27.8412 44.443 16.853C60.8879 5.8649 80.2219 0 100 0C126.513 0.0279983 151.932 10.5727 170.68 29.3202C189.427 48.0678 199.972 73.4869 200 100ZM184.615 100C184.615 83.2646 179.653 66.9051 170.355 52.9902C161.057 39.0753 147.842 28.2299 132.381 21.8256C116.919 15.4212 99.9062 13.7456 83.4924 17.0105C67.0786 20.2754 52.0016 28.3342 40.1679 40.1679C28.3343 52.0016 20.2754 67.0786 17.0105 83.4923C13.7456 99.9061 15.4213 116.919 21.8256 132.381C28.23 147.842 39.0753 161.057 52.9902 170.355C66.9052 179.653 83.2647 184.615 100 184.615C122.434 184.59 143.941 175.667 159.804 159.804C175.667 143.941 184.59 122.434 184.615 100Z" fill="#7A3BFF"/>
</svg>
