<svg width="200" height="200" viewBox="0 0 200 200" fill="none" xmlns="http://www.w3.org/2000/svg">
<path d="M200 96.0003C200 123.583 189.464 150.035 170.711 169.539C151.957 189.043 126.522 200 100 200C73.4783 200 48.043 189.043 29.2893 169.539C10.5357 150.035 0 123.583 0 96.0003C0 55.0004 22.8942 17.6405 58.3269 0.730531C59.2449 0.291917 60.237 0.0456432 61.2465 0.00576749C62.256 -0.0341082 63.2632 0.133196 64.2105 0.498129C65.1578 0.863062 66.0268 1.41848 66.7677 2.13266C67.5087 2.84685 68.1071 3.70581 68.5288 4.66052C68.9506 5.61523 69.1874 6.64698 69.2257 7.69686C69.2641 8.74675 69.1032 9.79421 68.7523 10.7794C68.4014 11.7647 67.8674 12.6684 67.1806 13.4389C66.4939 14.2095 65.668 14.8319 64.75 15.2705C34.7596 29.5905 15.3846 61.2704 15.3846 96.0003C15.3846 119.339 24.2994 141.722 40.1679 158.226C56.0364 174.729 77.5586 184 100 184C122.441 184 143.964 174.729 159.832 158.226C175.701 141.722 184.615 119.339 184.615 96.0003C184.615 61.2704 165.24 29.5905 135.25 15.2705C133.396 14.3847 131.956 12.7692 131.248 10.7794C130.539 8.78968 130.619 6.58864 131.471 4.66052C132.323 2.7324 133.876 1.23515 135.789 0.498129C137.703 -0.238887 139.819 -0.155289 141.673 0.730531C177.106 17.6405 200 55.0004 200 96.0003Z" fill="#7A3BFF"/>
</svg>
