<svg width="50" height="50" viewBox="0 0 50 50" fill="none" xmlns="http://www.w3.org/2000/svg">
<path d="M43.1432 40.2005C43.532 40.591 43.7503 41.1195 43.7503 41.6706C43.7503 42.2216 43.532 42.7502 43.1432 43.1406C42.8594 43.4193 36.151 50 25 50C15.263 50 8.19531 44.1667 4.16667 39.6224V45.8333C4.16667 46.3859 3.94717 46.9158 3.55647 47.3065C3.16577 47.6972 2.63587 47.9167 2.08333 47.9167C1.5308 47.9167 1.0009 47.6972 0.610195 47.3065C0.219494 46.9158 0 46.3859 0 45.8333V33.3333C0 32.7808 0.219494 32.2509 0.610195 31.8602C1.0009 31.4695 1.5308 31.25 2.08333 31.25H14.5833C15.1359 31.25 15.6658 31.4695 16.0565 31.8602C16.4472 32.2509 16.6667 32.7808 16.6667 33.3333C16.6667 33.8859 16.4472 34.4158 16.0565 34.8065C15.6658 35.1972 15.1359 35.4167 14.5833 35.4167H6.10417C9.3125 39.4141 15.8854 45.8333 25 45.8333C34.375 45.8333 40.1406 40.2448 40.1979 40.1875C40.5903 39.7988 41.121 39.5818 41.6733 39.5843C42.2256 39.5867 42.7543 39.8084 43.1432 40.2005ZM47.9167 2.08333C47.3641 2.08333 46.8342 2.30283 46.4435 2.69353C46.0528 3.08423 45.8333 3.61413 45.8333 4.16667V10.3776C41.8047 5.83333 34.737 0 25 0C13.849 0 7.14062 6.58073 6.85938 6.85938C6.46777 7.2496 6.24721 7.77941 6.24624 8.33225C6.24526 8.8851 6.46394 9.41568 6.85417 9.80729C7.24439 10.1989 7.7742 10.4195 8.32705 10.4204C8.87989 10.4214 9.41047 10.2027 9.80208 9.8125C9.85937 9.75521 15.625 4.16667 25 4.16667C34.1146 4.16667 40.6875 10.5859 43.8958 14.5833H35.4167C34.8641 14.5833 34.3342 14.8028 33.9435 15.1935C33.5528 15.5842 33.3333 16.1141 33.3333 16.6667C33.3333 17.2192 33.5528 17.7491 33.9435 18.1398C34.3342 18.5305 34.8641 18.75 35.4167 18.75H47.9167C48.4692 18.75 48.9991 18.5305 49.3898 18.1398C49.7805 17.7491 50 17.2192 50 16.6667V4.16667C50 3.61413 49.7805 3.08423 49.3898 2.69353C48.9991 2.30283 48.4692 2.08333 47.9167 2.08333Z" fill="#7A3BFF"/>
</svg>
