<svg width="65" height="62" viewBox="0 0 65 62" fill="none" xmlns="http://www.w3.org/2000/svg">
<g clip-path="url(#clip0_1_781)">
<path d="M20.4181 58.1248C44.9475 58.1248 58.3659 38.7381 58.3659 21.9555C58.3714 21.4104 58.3632 20.8653 58.3416 20.3203C60.9531 18.5155 63.2077 16.2823 65 13.725C62.5589 14.7491 59.9732 15.4254 57.3259 15.7323C60.1152 14.1424 62.2042 11.6403 63.2044 8.69138C60.5852 10.1744 57.7167 11.214 54.7259 11.7643C52.7157 9.72222 50.0557 8.36944 47.1578 7.91544C44.26 7.46145 41.2861 7.93158 38.6967 9.25301C36.1073 10.5744 34.047 12.6734 32.835 15.2249C31.6229 17.7763 31.3267 20.6377 31.9922 23.366C26.6893 23.1136 21.5014 21.8002 16.7652 19.511C12.0291 17.2219 7.85067 14.0082 4.50125 10.0786C2.80142 12.8808 2.28292 16.1949 3.05097 19.3483C3.81901 22.5018 5.81606 25.2584 8.63688 27.0589C6.52197 26.9937 4.45329 26.4519 2.6 25.4779V25.6523C2.60517 28.5871 3.67177 31.4304 5.61975 33.7022C7.56773 35.9739 10.2778 37.535 13.2925 38.122C12.148 38.4229 10.9656 38.5728 9.77844 38.5676C8.94123 38.5759 8.10536 38.5019 7.28406 38.3468C8.13472 40.8744 9.79378 43.0845 12.0284 44.667C14.263 46.2495 16.961 47.1248 19.7437 47.1701C15.0154 50.7079 9.17819 52.628 3.16875 52.6223C2.10965 52.6299 1.05116 52.5716 0 52.4479C6.09953 56.1581 13.1839 58.1278 20.4181 58.1248Z" fill="#51D0FF"/>
</g>
<defs>
<clipPath id="clip0_1_781">
<rect width="65" height="62" fill="white"/>
</clipPath>
</defs>
</svg>
