<svg width="10" height="10" viewBox="0 0 10 10" fill="none" xmlns="http://www.w3.org/2000/svg">
<path d="M9.85337 4.46164C9.80693 4.50038 9.75179 4.53111 9.6911 4.55208C9.6304 4.57305 9.56534 4.58384 9.49964 4.58384C9.43394 4.58384 9.36888 4.57305 9.30818 4.55208C9.24749 4.53111 9.19235 4.50038 9.14591 4.46164L5.49991 1.42268V9.58335C5.49991 9.69385 5.44723 9.79983 5.35347 9.87797C5.25971 9.9561 5.13254 10 4.99994 10C4.86734 10 4.74017 9.9561 4.64641 9.87797C4.55265 9.79983 4.49998 9.69385 4.49998 9.58335V1.42268L0.853971 4.46164C0.760157 4.53982 0.632918 4.58374 0.500244 4.58374C0.367571 4.58374 0.240332 4.53982 0.146518 4.46164C0.0527041 4.38346 9.88491e-10 4.27742 0 4.16686C-9.88492e-10 4.05629 0.0527041 3.95026 0.146518 3.87208L4.64622 0.122199C4.69265 0.0834598 4.74779 0.052728 4.80849 0.0317602C4.86918 0.0107924 4.93424 0 4.99994 0C5.06565 0 5.1307 0.0107924 5.1914 0.0317602C5.25209 0.052728 5.30724 0.0834598 5.35367 0.122199L9.85337 3.87208C9.89985 3.91077 9.93673 3.95672 9.96189 4.00731C9.98705 4.05789 10 4.1121 10 4.16686C10 4.22161 9.98705 4.27583 9.96189 4.32641C9.93673 4.37699 9.89985 4.42294 9.85337 4.46164Z" fill="#190042"/>
</svg>
