<svg width="32" height="31" viewBox="0 0 32 31" fill="none" xmlns="http://www.w3.org/2000/svg">
<path d="M31.8186 29.1137C29.4778 25.0368 25.8705 22.1135 21.6607 20.7277C23.743 19.4789 25.3609 17.5759 26.2658 15.3112C27.1707 13.0464 27.3126 10.5449 26.6698 8.19103C26.0269 5.83712 24.6349 3.76087 22.7073 2.28114C20.7798 0.801403 18.4234 0 16 0C13.5766 0 11.2202 0.801403 9.29267 2.28114C7.36513 3.76087 5.97305 5.83712 5.33021 8.19103C4.68736 10.5449 4.82929 13.0464 5.7342 15.3112C6.63911 17.5759 8.25696 19.4789 10.3393 20.7277C6.12953 22.1119 2.52224 25.0353 0.181419 29.1137C0.0955774 29.2547 0.0386391 29.4116 0.0139637 29.5751C-0.0107116 29.7387 -0.00262404 29.9055 0.0377492 30.0659C0.0781224 30.2262 0.149964 30.3768 0.249034 30.5087C0.348104 30.6406 0.472397 30.7512 0.614578 30.8339C0.75676 30.9167 0.91395 30.9699 1.07688 30.9904C1.2398 31.011 1.40516 30.9984 1.5632 30.9535C1.72123 30.9087 1.86875 30.8323 1.99703 30.7291C2.12532 30.6259 2.23178 30.4978 2.31013 30.3524C5.2058 25.3109 10.3239 22.3008 16 22.3008C21.6761 22.3008 26.7942 25.3109 29.6899 30.3524C29.7682 30.4978 29.8747 30.6259 30.003 30.7291C30.1313 30.8323 30.2788 30.9087 30.4368 30.9535C30.5948 30.9984 30.7602 31.011 30.9231 30.9904C31.0861 30.9699 31.2432 30.9167 31.3854 30.8339C31.5276 30.7512 31.6519 30.6406 31.751 30.5087C31.85 30.3768 31.9219 30.2262 31.9623 30.0659C32.0026 29.9055 32.0107 29.7387 31.986 29.5751C31.9614 29.4116 31.9044 29.2547 31.8186 29.1137ZM7.39292 11.1525C7.39292 9.43758 7.89772 7.76115 8.84348 6.33523C9.78923 4.9093 11.1335 3.79793 12.7062 3.14165C14.279 2.48537 16.0096 2.31366 17.6792 2.64822C19.3488 2.98279 20.8824 3.80862 22.0861 5.02127C23.2898 6.23392 24.1096 7.77893 24.4417 9.46092C24.7738 11.1429 24.6034 12.8863 23.9519 14.4707C23.3005 16.0551 22.1973 17.4094 20.7818 18.3621C19.3664 19.3149 17.7023 19.8234 16 19.8234C13.718 19.821 11.5302 18.9067 9.91657 17.2811C8.30296 15.6555 7.39536 13.4514 7.39292 11.1525Z" fill="#51D0FF"/>
</svg>
