<svg width="25" height="23" viewBox="0 0 25 23" fill="none" xmlns="http://www.w3.org/2000/svg">
<path d="M23 4.16449H3C2.73478 4.16449 2.48043 4.0548 2.29289 3.85956C2.10536 3.66431 2 3.39949 2 3.12337C2 2.84725 2.10536 2.58243 2.29289 2.38718C2.48043 2.19194 2.73478 2.08225 3 2.08225H20C20.2652 2.08225 20.5196 1.97256 20.7071 1.77731C20.8946 1.58206 21 1.31725 21 1.04112C21 0.765 20.8946 0.500187 20.7071 0.304938C20.5196 0.10969 20.2652 0 20 0H3C2.20435 0 1.44129 0.329069 0.87868 0.914814C0.316071 1.50056 0 2.295 0 3.12337V19.7813C0 20.6097 0.316071 21.4042 0.87868 21.9899C1.44129 22.5756 2.20435 22.9047 3 22.9047H23C23.5304 22.9047 24.0391 22.6853 24.4142 22.2948C24.7893 21.9043 25 21.3747 25 20.8225V6.24674C25 5.69449 24.7893 5.16487 24.4142 4.77437C24.0391 4.38387 23.5304 4.16449 23 4.16449ZM23 20.8225H3C2.73478 20.8225 2.48043 20.7128 2.29289 20.5175C2.10536 20.3223 2 20.0575 2 19.7813V6.06845C2.32109 6.18695 2.65933 6.24726 3 6.24674H23V20.8225ZM17 13.014C17 12.7052 17.088 12.4032 17.2528 12.1464C17.4176 11.8896 17.6519 11.6894 17.926 11.5712C18.2001 11.453 18.5017 11.4221 18.7926 11.4824C19.0836 11.5426 19.3509 11.6914 19.5607 11.9098C19.7704 12.1282 19.9133 12.4064 19.9712 12.7094C20.0291 13.0123 19.9993 13.3263 19.8858 13.6117C19.7723 13.897 19.58 14.1409 19.3334 14.3125C19.0867 14.4841 18.7967 14.5757 18.5 14.5757C18.1022 14.5757 17.7206 14.4112 17.4393 14.1183C17.158 13.8254 17 13.4282 17 13.014Z" fill="#D9D9D9"/>
</svg>
