<svg width="77" height="77" viewBox="0 0 77 77" fill="none" xmlns="http://www.w3.org/2000/svg">
<path d="M70.84 14H9.24C8.42313 14 7.63972 13.6313 7.06211 12.9749C6.4845 12.3185 6.16 11.4283 6.16 10.5C6.16 9.57174 6.4845 8.6815 7.06211 8.02513C7.63972 7.36875 8.42313 7 9.24 7H61.6C62.4169 7 63.2003 6.63125 63.7779 5.97487C64.3555 5.3185 64.68 4.42826 64.68 3.5C64.68 2.57174 64.3555 1.6815 63.7779 1.02513C63.2003 0.36875 62.4169 0 61.6 0H9.24C6.7894 0 4.43917 1.10625 2.70633 3.07538C0.973497 5.04451 0 7.71523 0 10.5V66.5C0 69.2848 0.973497 71.9555 2.70633 73.9246C4.43917 75.8938 6.7894 77 9.24 77H70.84C72.4737 77 74.0406 76.2625 75.1958 74.9497C76.351 73.637 77 71.8565 77 70V21C77 19.1435 76.351 17.363 75.1958 16.0503C74.0406 14.7375 72.4737 14 70.84 14ZM70.84 70H9.24C8.42313 70 7.63972 69.6313 7.06211 68.9749C6.4845 68.3185 6.16 67.4283 6.16 66.5V20.4006C7.14897 20.799 8.19073 21.0017 9.24 21H70.84V70ZM52.36 43.75C52.36 42.7116 52.631 41.6966 53.1386 40.8333C53.6463 39.9699 54.3678 39.297 55.212 38.8996C56.0562 38.5023 56.9851 38.3983 57.8813 38.6009C58.7775 38.8034 59.6007 39.3035 60.2468 40.0377C60.8929 40.7719 61.333 41.7074 61.5112 42.7258C61.6895 43.7442 61.598 44.7998 61.2483 45.7591C60.8986 46.7184 60.3065 47.5383 59.5467 48.1152C58.787 48.6921 57.8937 49 56.98 49C55.7547 49 54.5796 48.4469 53.7132 47.4623C52.8467 46.4777 52.36 45.1424 52.36 43.75Z" fill="#51D0FF"/>
<path d="M34.31 43.4625C35.069 42.7317 35.6021 41.7983 35.8459 40.7732C36.0897 39.7482 36.034 38.6747 35.6853 37.6805C35.3366 36.6862 34.7097 35.813 33.8791 35.1647C33.0485 34.5165 32.0492 34.1205 31 34.0237V32C31 31.7348 30.8946 31.4804 30.7071 31.2929C30.5196 31.1054 30.2652 31 30 31C29.7348 31 29.4804 31.1054 29.2929 31.2929C29.1054 31.4804 29 31.7348 29 32V34H27V32C27 31.7348 26.8946 31.4804 26.7071 31.2929C26.5196 31.1054 26.2652 31 26 31C25.7348 31 25.4804 31.1054 25.2929 31.2929C25.1054 31.4804 25 31.7348 25 32V34H21C20.7348 34 20.4804 34.1054 20.2929 34.2929C20.1054 34.4804 20 34.7348 20 35C20 35.2652 20.1054 35.5196 20.2929 35.7071C20.4804 35.8946 20.7348 36 21 36H22V53H21C20.7348 53 20.4804 53.1054 20.2929 53.2929C20.1054 53.4804 20 53.7348 20 54C20 54.2652 20.1054 54.5196 20.2929 54.7071C20.4804 54.8946 20.7348 55 21 55H25V57C25 57.2652 25.1054 57.5196 25.2929 57.7071C25.4804 57.8946 25.7348 58 26 58C26.2652 58 26.5196 57.8946 26.7071 57.7071C26.8946 57.5196 27 57.2652 27 57V55H29V57C29 57.2652 29.1054 57.5196 29.2929 57.7071C29.4804 57.8946 29.7348 58 30 58C30.2652 58 30.5196 57.8946 30.7071 57.7071C30.8946 57.5196 31 57.2652 31 57V55H32C33.3868 55 34.7309 54.5196 35.8035 53.6404C36.876 52.7613 37.611 51.5378 37.8832 50.1779C38.1555 48.8181 37.9483 47.4059 37.2968 46.1816C36.6454 44.9573 35.5899 43.9964 34.31 43.4625ZM34 39.5C34 40.4283 33.6313 41.3185 32.9749 41.9749C32.3185 42.6313 31.4283 43 30.5 43H24V36H30.5C31.4283 36 32.3185 36.3687 32.9749 37.0251C33.6313 37.6815 34 38.5717 34 39.5ZM32 53H24V45H32C33.0609 45 34.0783 45.4214 34.8284 46.1716C35.5786 46.9217 36 47.9391 36 49C36 50.0609 35.5786 51.0783 34.8284 51.8284C34.0783 52.5786 33.0609 53 32 53Z" fill="#51D0FF"/>
</svg>
