<svg width="1055" height="253" viewBox="0 0 1055 253" fill="none" xmlns="http://www.w3.org/2000/svg">
<path d="M1043.87 585.65L1043.63 585.571H1043.38H44.396C44.3543 585.528 44.3098 585.482 44.2623 585.433C44.1311 585.297 43.9778 585.138 43.8032 584.956C43.1242 584.249 42.1212 583.2 40.8278 581.831C38.2409 579.094 34.4922 575.08 29.85 569.978C20.565 559.774 7.70748 545.22 -6.5785 527.826C-35.1634 493.023 -69.4142 446.913 -92.2286 401.555C-103.636 378.876 -112.152 356.448 -115.694 335.76C-119.236 315.071 -117.786 296.239 -109.413 280.627C-92.7084 249.478 -47.8307 230.188 43.6685 235.835C135.647 241.511 209.951 210.528 278.14 169.447C306.493 152.365 333.821 133.518 360.913 114.833C366.383 111.06 371.844 107.294 377.302 103.55C409.811 81.2497 442.227 59.7359 476.041 42.2514C543.617 7.30897 616.725 -11.5167 707.072 11.8377C797.503 35.2138 905.382 100.893 1042.33 235.408C1179.36 369.996 1247.69 459.167 1273.26 517.188C1286.04 546.199 1288.02 567.162 1282.85 582.047C1277.71 596.849 1265.35 606.026 1248.5 611.163C1231.62 616.309 1210.41 617.333 1188.01 615.924C1165.62 614.515 1142.14 610.686 1120.77 606.199C1099.41 601.712 1080.18 596.573 1066.28 592.556C1059.34 590.547 1053.73 588.82 1049.86 587.595C1047.92 586.982 1046.42 586.495 1045.41 586.162C1044.9 585.995 1044.51 585.867 1044.25 585.781C1044.12 585.738 1044.03 585.705 1043.96 585.683L1043.89 585.658L1043.87 585.652C1043.87 585.652 1043.87 585.651 1043.85 585.701C1043.81 585.804 1043.71 586.116 1043.38 587.071L1043.87 585.65Z" fill="url(#paint0_linear_1_908)" fill-opacity="0.46" stroke="#51D0FF" stroke-width="3"/>
<defs>
<linearGradient id="paint0_linear_1_908" x1="584" y1="0" x2="584" y2="618" gradientUnits="userSpaceOnUse">
<stop stop-color="#00BAFF"/>
<stop offset="0.776315"/>
</linearGradient>
</defs>
</svg>
