<svg width="18" height="23" viewBox="0 0 18 23" fill="none" xmlns="http://www.w3.org/2000/svg">
<path d="M17.25 0H5.25C5.05109 0 4.86032 0.100967 4.71967 0.28069C4.57902 0.460412 4.5 0.704167 4.5 0.958333V5.75H0.75C0.551088 5.75 0.360322 5.85097 0.21967 6.03069C0.0790178 6.21041 0 6.45417 0 6.70833V22.0417C0 22.2958 0.0790178 22.5396 0.21967 22.7193C0.360322 22.899 0.551088 23 0.75 23H12.75C12.9489 23 13.1397 22.899 13.2803 22.7193C13.421 22.5396 13.5 22.2958 13.5 22.0417V17.25H17.25C17.4489 17.25 17.6397 17.149 17.7803 16.9693C17.921 16.7896 18 16.5458 18 16.2917V0.958333C18 0.704167 17.921 0.460412 17.7803 0.28069C17.6397 0.100967 17.4489 0 17.25 0ZM12 21.0833H1.5V7.66667H12V21.0833ZM16.5 15.3333H13.5V6.70833C13.5 6.45417 13.421 6.21041 13.2803 6.03069C13.1397 5.85097 12.9489 5.75 12.75 5.75H6V1.91667H16.5V15.3333Z" fill="#D9D9D9"/>
</svg>
