<svg width="16" height="14" viewBox="0 0 16 14" fill="none" xmlns="http://www.w3.org/2000/svg">
<path d="M6.66645 13.4167C6.66645 13.5714 6.59621 13.7197 6.47119 13.8291C6.34617 13.9385 6.17661 14 5.9998 14H1.33329C0.979679 14 0.640552 13.8771 0.390511 13.6583C0.140471 13.4395 0 13.1428 0 12.8333V1.16667C0 0.857247 0.140471 0.560501 0.390511 0.341709C0.640552 0.122916 0.979679 0 1.33329 0H5.9998C6.17661 0 6.34617 0.0614583 6.47119 0.170854C6.59621 0.280251 6.66645 0.428624 6.66645 0.583333C6.66645 0.738043 6.59621 0.886416 6.47119 0.995812C6.34617 1.10521 6.17661 1.16667 5.9998 1.16667H1.33329V12.8333H5.9998C6.17661 12.8333 6.34617 12.8948 6.47119 13.0042C6.59621 13.1136 6.66645 13.262 6.66645 13.4167ZM15.8045 6.58729L12.4713 3.67062C12.3462 3.56117 12.1765 3.49968 11.9996 3.49968C11.8227 3.49968 11.653 3.56117 11.528 3.67062C11.4029 3.78008 11.3326 3.92854 11.3326 4.08333C11.3326 4.23813 11.4029 4.38658 11.528 4.49604L13.7237 6.41667H5.9998C5.823 6.41667 5.65343 6.47812 5.52841 6.58752C5.40339 6.69692 5.33316 6.84529 5.33316 7C5.33316 7.15471 5.40339 7.30308 5.52841 7.41248C5.65343 7.52188 5.823 7.58333 5.9998 7.58333H13.7237L11.528 9.50396C11.4029 9.61341 11.3326 9.76187 11.3326 9.91667C11.3326 10.0715 11.4029 10.2199 11.528 10.3294C11.653 10.4388 11.8227 10.5003 11.9996 10.5003C12.1765 10.5003 12.3462 10.4388 12.4713 10.3294L15.8045 7.41271C15.8665 7.35853 15.9156 7.2942 15.9492 7.22338C15.9827 7.15257 16 7.07666 16 7C16 6.92334 15.9827 6.84743 15.9492 6.77662C15.9156 6.7058 15.8665 6.64147 15.8045 6.58729Z" fill="white"/>
</svg>
