<svg width="33" height="32" viewBox="0 0 33 32" fill="none" xmlns="http://www.w3.org/2000/svg">
<path d="M32.5601 25.7559L26.5605 31.5738C26.2791 31.8467 25.8974 32 25.4994 32C25.1013 32 24.7196 31.8467 24.4382 31.5738C24.1567 31.3008 23.9986 30.9307 23.9986 30.5447C23.9986 30.1588 24.1567 29.7886 24.4382 29.5157L27.8786 26.1813H1.50107C1.10328 26.1813 0.721773 26.0281 0.440489 25.7553C0.159204 25.4825 0.00118009 25.1126 0.00118009 24.7268C0.00118009 24.3411 0.159204 23.9711 0.440489 23.6984C0.721773 23.4256 1.10328 23.2724 1.50107 23.2724H27.8786L24.4382 19.938C24.1567 19.6651 23.9986 19.2949 23.9986 18.9089C23.9986 18.523 24.1567 18.1528 24.4382 17.8799C24.7196 17.607 25.1013 17.4537 25.4994 17.4537C25.8974 17.4537 26.2791 17.607 26.5605 17.8799L32.5601 23.6978C32.6996 23.8329 32.8102 23.9933 32.8857 24.1699C32.9612 24.3464 33 24.5357 33 24.7268C33 24.918 32.9612 25.1072 32.8857 25.2838C32.8102 25.4604 32.6996 25.6208 32.5601 25.7559ZM6.43947 14.1201C6.72091 14.393 7.10263 14.5463 7.50064 14.5463C7.89866 14.5463 8.28038 14.393 8.56182 14.1201C8.84326 13.8472 9.00137 13.477 9.00137 13.0911C9.00137 12.7051 8.84326 12.3349 8.56182 12.062L5.12144 8.72764H31.4989C31.8967 8.72764 32.2782 8.5744 32.5595 8.30163C32.8408 8.02887 32.9988 7.65892 32.9988 7.27317C32.9988 6.88742 32.8408 6.51747 32.5595 6.2447C32.2782 5.97193 31.8967 5.8187 31.4989 5.8187H5.12144L8.56182 2.48432C8.84326 2.2114 9.00137 1.84124 9.00137 1.45528C9.00137 1.06932 8.84326 0.69916 8.56182 0.426242C8.28038 0.153324 7.89866 5.75132e-09 7.50064 0C7.10263 -5.75132e-09 6.72091 0.153324 6.43947 0.426242L0.439899 6.24413C0.300444 6.37921 0.189814 6.53962 0.114333 6.71619C0.0388516 6.89276 0 7.08203 0 7.27317C0 7.46431 0.0388516 7.65357 0.114333 7.83014C0.189814 8.00671 0.300444 8.16713 0.439899 8.30221L6.43947 14.1201Z" fill="white"/>
</svg>
