<svg width="64" height="43" viewBox="0 0 64 43" fill="none" xmlns="http://www.w3.org/2000/svg">
<path d="M32.206 0H32.562C35.8502 0.0114779 52.5113 0.126257 57.0036 1.2817C58.3616 1.63433 59.5991 2.32168 60.5924 3.27506C61.5857 4.22843 62.3 5.41444 62.6639 6.71457C63.0679 8.16843 63.352 10.0929 63.544 12.0786L63.584 12.4765L63.672 13.4712L63.704 13.8691C63.964 17.366 63.996 20.6411 64 21.3565V21.6435C63.996 22.3857 63.96 25.8826 63.672 29.525L63.64 29.9267L63.604 30.3246C63.404 32.513 63.1079 34.6862 62.6639 36.2854C62.3 37.5856 61.5857 38.7716 60.5924 39.7249C59.5991 40.6783 58.3616 41.3657 57.0036 41.7183C52.3633 42.912 34.7262 42.9962 32.282 43H31.714C30.4779 43 25.3656 42.977 20.0053 42.801L19.3252 42.7781L18.9772 42.7628L18.2931 42.736L17.6091 42.7092C13.1688 42.5218 8.94056 42.2195 6.99244 41.7145C5.63486 41.3622 4.39767 40.6754 3.40442 39.7227C2.41116 38.7701 1.6966 37.5849 1.33208 36.2854C0.888056 34.69 0.592037 32.513 0.392025 30.3246L0.360023 29.9229L0.328021 29.525C0.129462 26.9325 0.0200625 24.3346 0 21.7353L0 21.2647C0.0080005 20.4421 0.0400025 17.5994 0.256016 14.4621L0.284018 14.0681L0.296019 13.8691L0.328021 13.4712L0.416026 12.4765L0.456029 12.0786C0.648041 10.0929 0.932058 8.16461 1.33608 6.71457C1.69999 5.41444 2.41428 4.22843 3.40757 3.27506C4.40087 2.32168 5.63838 1.63433 6.99644 1.2817C8.94456 0.784323 13.1728 0.478245 17.6131 0.286947L18.2931 0.260165L18.9812 0.23721L19.3252 0.225732L20.0093 0.198951C23.8163 0.0818894 27.625 0.016841 31.434 0.00382614L32.206 0ZM25.6016 12.2813V30.7148L42.2306 21.5019L25.6016 12.2813Z" fill="#51D0FF"/>
</svg>
